<!-- Generator: Adobe Illustrator 18.1.1, SVG Export Plug-In  -->
<svg version="1.1"
	 xmlns="http://www.w3.org/2000/svg" xmlns:xlink="http://www.w3.org/1999/xlink" xmlns:a="http://ns.adobe.com/AdobeSVGViewerExtensions/3.0/"
	 x="0px" y="0px" width="1064.9px" height="648.3px" viewBox="0 0 1064.9 648.3" enable-background="new 0 0 1064.9 648.3"
	 xml:space="preserve">
<defs>
</defs>
<g>
	<defs>
		<path id="SVGID_1_" d="M1064.9,633.1c0,8.4-6.8,15.2-15.2,15.2H15.2c-8.4,0-15.2-6.8-15.2-15.2V15.2C0,6.8,6.8,0,15.2,0h1034.4
			c8.4,0,15.2,6.8,15.2,15.2V633.1z"/>
	</defs>
	<clipPath id="SVGID_2_">
		<use xlink:href="#SVGID_1_"  overflow="visible"/>
	</clipPath>
	<g clip-path="url(#SVGID_2_)">
		<g>
			<rect x="0" y="0" fill="#FFFFFF" width="1064.9" height="648.3"/>
		</g>
		<g>
			<g>
				<rect x="0" y="0" fill="#E2E3E4" width="1064.9" height="54.9"/>
			</g>
			<g>
				<polygon fill="#8E9093" points="51,25 37.1,25 41.9,19.2 38.1,16 28.5,27.4 38.1,38.9 41.9,35.7 37.1,29.9 51,29.9 				"/>
			</g>
			<g>
				<path fill="#8E9093" d="M112.7,19.5"/>
			</g>
			<g>
				<path fill="#8E9093" d="M115.6,24.4"/>
			</g>
			<g opacity="0.51">
				<polygon fill="#8E9093" points="77.7,16 73.9,19.2 78.8,25 64.8,25 64.8,29.9 78.8,29.9 73.9,35.7 77.7,38.9 87.3,27.4 				"/>
			</g>
			<g>
				<path fill="#8E9093" d="M133.6,23.7l-4.8,1.4c1.1,2.8,0.9,5.7-1.4,7.5c-3.7,2.8-8.1,4.4-11.8,1.5c-3.7-2.8-4.4-8.1-1.5-11.8
					c1.4-1.8,3.4-2.9,5.6-3.2c1.6-0.2,3.2,0.1,4.7,0.7l-1.3,0.3l0.5,2.1l6.5-1.4l-0.1-3l0.1-0.1c0,0-0.1,0-0.1-0.1l-0.1-3.5
					l-2.2,0.1l0.1,1.8c-2.6-1.5-5.6-2.2-8.6-1.8c-3.5,0.5-6.7,2.3-8.9,5.1c-4.5,5.8-3.4,14.3,2.4,18.8c2.4,1.9,5.3,2.8,8.1,2.8
					c4,0,8-1.8,10.6-5.2C134,32.2,134.8,27.7,133.6,23.7z"/>
			</g>
			<g opacity="0.51">
				<path fill="#8E9093" d="M938.5,38.7H167.9c-3.7,0-6.8-2.6-6.8-5.8v-11c0-3.2,3-5.8,6.8-5.8h770.6c3.7,0,6.8,2.6,6.8,5.8v11
					C945.3,36.1,942.2,38.7,938.5,38.7z M167.9,17.4c-3,0-5.5,2-5.5,4.5v11c0,2.5,2.5,4.5,5.5,4.5h770.6c3,0,5.5-2,5.5-4.5v-11
					c0-2.5-2.5-4.5-5.5-4.5H167.9z"/>
			</g>
			<g>
				<g>
					<rect x="1014.8" y="24.9" fill="#8E9093" width="27.9" height="5.1"/>
				</g>
				<g>
					<rect x="1014.8" y="32.7" fill="#8E9093" width="27.9" height="5.1"/>
				</g>
				<g>
					<rect x="1014.8" y="17.1" fill="#8E9093" width="27.9" height="5.1"/>
				</g>
			</g>
		</g>
	</g>
</g>
<g>
	<g>
		<path fill="#8E9093" d="M91.2,86.4c-1.2,0.9-2.6,1.2-4.3,1.1l-0.4,0v16c2.5-0.8,4.6-2.4,6.2-4.8l0.2,0.1c-1.2,4.3-3.5,6.8-6.8,7.6
			c-1,0.3-2,0.4-3,0.4c-4.1,0-7.2-1.5-9.2-4.4c-1.2-1.7-1.8-3.5-1.8-5.6c0-0.8,0.1-1.8,0.4-2.8c0.4-1.7,1.2-3.2,2.3-4.5
			c0.8-1.1,2.1-2.2,3.7-3.5L76.4,86c-1.1,0-2.1,0.2-3.1,0.7c-0.8,0.5-1.7,1.4-2.6,2.7h-0.1c0.7-4.5,3.6-6.7,8.8-6.7
			c1.6,0,3.1,0.1,4.4,0.5c0.7,0.2,1.6,0.4,2.7,0.8c1.1,0.3,2.1,0.5,2.8,0.5c1.6,0,2.8-0.7,3.5-1.9l0.2,0
			C93.1,84.2,92.5,85.5,91.2,86.4z M79.8,86.4l-0.5-0.1c-2.4,2.6-3.6,5.4-3.6,8.4c0,2.5,1,4.8,3,6.7c0.8-0.8,1.2-1.7,1.2-3V86.4z
			 M85.7,87.5L83.4,87v7.4c0,1.6-0.3,3.1-1,4.2c-0.5,0.9-1.5,2-2.9,3.3c1.6,1.2,3.6,1.8,5.9,1.8l0.5-0.1V87.5z"/>
		<path fill="#8E9093" d="M104,107.9c-1.6,1.1-3.7,1.9-6.3,2.4l-0.1-0.2c2.4-0.9,3.9-1.6,4.5-2.1c1.3-0.9,1.9-2.3,1.9-4V93.7
			c-0.1-0.7-0.6-1.2-1.4-1.7l-2.9,2.1v9l0.9,1.1l-2.8,2.4l-2.7-2.2l1.1-1.2V91.8h-1.8V90h1.9v-2.1c0-1.6-0.4-2.8-1.3-3.6l0.1-0.1
			c0.9,0.3,1.6,0.7,2.3,1.2l0.5,0c1.1-1.2,2.2-1.8,3.5-1.8c-1.1,0.9-1.6,2-1.6,3.3v6.4l5.1-3.7c1.6,1.1,2.4,2.5,2.4,4.3v8.9
			C107.4,104.8,106.2,106.5,104,107.9z"/>
		<path fill="#8E9093" d="M113.4,98.9v3.8l3.1,1.3l2.4-1.5l0.4,0.4c-0.6,0.4-1.3,0.8-2,1.3l-3.2,2.2c-1.6-0.9-3.3-1.5-5-1.8
			c0.7-0.7,1-1.6,1-2.7v-9.7c1.7-0.8,3.3-1.7,4.9-2.9l4.7,4.7C117,96,114.9,97.5,113.4,98.9z M113.3,91.8V98l3.5-2.7L113.3,91.8z"/>
	</g>
	<g>
		<path fill="#8E9093" d="M96.2,125.5c0,0.9-0.1,1.6-0.1,2c-1.9,0.8-3.8,2.1-5.8,3.9c-2.9-1-5.6-1.5-8.2-1.5c-3.4,0-6.9,1-10.4,2.9
			l-0.2-0.4c1.5-0.9,3.8-2.3,6.8-4.3c2.5-1.8,3.8-4,3.8-6.5v-6l-0.1-0.4c0-1.1,0.3-2.3,1-3.5c-1.2,0.5-2,1-2.5,1.6
			c-0.5,0.7-0.8,1.6-0.8,2.7v4.7c0,2.8-1.4,5.3-4.3,7.6c-0.6,0.5-1.9,1.4-3.8,2.7l-0.1-0.1c2.4-2.3,3.6-4.1,3.6-5.6
			c0-1.3-0.4-2.2-1.3-2.7c-0.4-0.2-0.7-0.3-1.1-0.3c-0.8,0-1.6,0.4-2.3,1.1c0.1-1.1,0.6-1.9,1.5-2.4c0.8-0.5,1.7-0.8,2.8-0.7l1.1,0
			c0.2-2,0.8-3.6,1.7-5c0.8-1.3,2.1-2.4,3.9-3.5c-0.5,0-1.3,0-2.3,0.1c-1,0.1-1.7,0.1-2.3,0.1c-2.8,0-4.1-0.7-5-2.4
			c-0.4-0.8-0.6-1.7-0.6-2.6l0-0.7c0.6,1.4,2.1,2.3,3.7,2.3l0.2,0c1.1,0,2.8-0.1,5-0.3s3.9-0.3,5-0.3h1.5c0.3,0,0.8,0,1.6,0.1
			c4,0.4,6.6,3.2,7.6,8.5c0.4,1.8,0.5,4,0.5,6.7C96.3,124,96.2,124.6,96.2,125.5z M84.6,111.9l-0.9,0c-0.6,0.9-0.9,2.2-0.9,3.8v6
			c0,2-0.5,3.5-1.5,4.7l3.3,0V111.9z M88.8,122.8c-1.3,0-2.5,0.5-3.5,1.4v2.1c2.3,0.2,4.5,0.6,6.8,1.2l0.1-3.3
			C91.3,123.3,90.1,122.8,88.8,122.8z M85.3,111.9v5.7c0.9,1,1.9,1.5,3.2,1.5s2.4-0.5,3.3-1.5C91.4,113.5,89.4,111.9,85.3,111.9z
			 M92.2,122.6c0-1.4-0.1-2.8-0.3-4c-1,0.7-2.1,1-3.4,1c-1.1,0-2.1-0.3-3.2-1v4.6c1.4-0.6,2.6-0.9,3.7-0.9c1.2,0,2.2,0.3,3.1,0.9
			V122.6z"/>
		<path fill="#8E9093" d="M107.6,131.3c-1.6-0.8-2.3-2.1-2.3-3.9l-4.9,4h-0.2c-1.7-1.6-2.6-3.2-2.6-4.7c0-2.3,1.2-4.4,3.6-6.6
			l-1.7-4.5l0.5,0c1.3,0.1,2.6-0.4,3.7-1.4l5.2,1.7l1-0.8l0.1,0.1c-0.6,0.9-1,1.8-1.2,2.8v9.5c0.2,0.6,0.5,1,1,1.1l0.7-0.3l0.4,0.3
			L107.6,131.3z M105.3,117.8l-5.3-2l1.5,4.1l3.7,1.8V117.8z M105.3,122.5l-3.8-1.9c-0.7,1.2-1.1,2.4-1.1,3.6c0,1.6,0.7,3.2,2.1,4.6
			l2.7-2.3V122.5z"/>
		<path fill="#8E9093" d="M115.1,131.3c-1.6-0.9-2.4-2.1-2.3-3.7l0-0.7v-9.5l-1.1-1.1l2.7-2.2l2.8,2.3l-0.9,1v10.1
			c0.1,0.5,0.4,0.9,1,1.2l0.7-0.4l0.4,0.3L115.1,131.3z M114.4,112.5h-0.5l0.9-3.7h2.7L114.4,112.5z"/>
		<path fill="#8E9093" d="M125,131.3c-1.2-1-2.9-1.9-5.2-2.8c0.6-0.7,0.9-1.6,0.9-2.6v-14.5c0-0.7-0.4-1.5-1.2-2.3
			c0.9,0.2,1.7,0.6,2.4,1.2l0.4,0c1.1-1.1,2.4-1.7,3.7-1.9c-1.2,0.9-1.8,2-1.8,3.3v15.3l2.7,1.7l0.9-0.7l0.4,0.5L125,131.3z"/>
		<path fill="#8E9093" d="M140.1,125.1c-1.2,1.3-2.7,2.4-4.7,3.5c-0.8,0.4-2,1.1-3.3,1.8c-1.6,1.1-2.5,2-2.5,2.8l0,0.2
			c0,0.7,0.3,1.2,1,1.5c0.5,0.3,1.1,0.4,1.9,0.4c0.9,0,1.7-0.2,2.3-0.6c0.7-0.6,1.2-0.9,1.5-0.9c0.2,0,0.3,0.1,0.4,0.3
			c0,0,0,0.1,0.1,0.3c0,0.5-0.5,0.9-1.6,1.3c-0.8,0.3-1.5,0.4-2.1,0.4h-0.5c-2.3,0-3.6-0.7-3.7-2.1v-0.3c0-0.8,0.5-1.7,1.4-3
			c1-1.3,1.5-2,1.5-2.4v-9.6c0-0.6-0.3-1.2-0.9-1.7l-1.2,0.8l-0.4-0.5l3.5-3.1c1.6,0.8,2.3,2.1,2.3,3.9l4.9-3.9
			c1.5,1.6,2.2,3.5,2.2,5.7C142.3,121.8,141.5,123.6,140.1,125.1z M137.5,117.1L135,119v8.9c1.2-0.9,2.1-1.9,2.9-3
			c0.9-1.3,1.3-2.7,1.3-3.9C139.2,119.4,138.6,118.1,137.5,117.1z"/>
	</g>
	<g>
		<path fill="#8E9093" d="M93.6,156.8c-1.3-0.3-2.4-0.5-3.4-0.5c-1.9,0-3.3,0.8-4.4,2.5l-0.2-0.2c0.3-1.6,0.9-3.5,1.8-5.6
			c0.8-1.8,1.6-3.6,2.4-5.4c-1-0.8-2-1.2-3.1-1.2c-0.9,0-2.1,0.4-3.4,1.2v4c0,2-0.6,3.7-1.8,5.1c-1.3,1.5-2.9,2.3-4.8,2.3h-0.4
			c-0.5,0-1.6-0.3-3.2-0.7c-0.9-0.3-1.6-0.4-2.2-0.4c-0.7,0-1.4,0.2-2.3,0.6l0-0.1c0.6-0.8,1.1-1.4,1.6-1.8c0.8-0.6,1.5-0.9,2.3-0.9
			H73c0.2,0,0.8,0.1,1.8,0.2c0.4,0,0.8,0.1,1.1,0.1l0.6-0.1c1.3,0,2.4-0.8,2.4-2.1c0-1.1-0.5-1.9-1.6-2.5c-0.9-0.5-1.9-0.8-3-0.8
			h-0.9c0.7-0.8,1.5-1.3,2.5-1.3c0.6,0,1.2,0.1,1.7,0.2c-0.7-2.4-2.1-3.5-4.2-3.3l-0.8,0.1c0.5-0.8,1.3-1.2,2.3-1.2
			c0.8,0,1.7,0.2,2.7,0.7c-0.6-2.7-2.3-4-5-4c0.7-0.7,1.5-1,2.4-1c0.5,0,1.4,0.2,2.5,0.5v-3l8.9-5.4c5.3,1.7,7.9,4.5,7.9,8.5
			c0,3.3-1.9,7.3-5.7,12.1c0.9-0.3,1.9-0.5,2.9-0.5c0.7,0,1.7,0.1,3.2,0.4l0.6-0.8l0.6,0.4L93.6,156.8z M82.5,136.3L81,137v13
			c0,1.4-0.1,2.5-0.4,3.4c-0.4,1.1-1.1,1.9-2.2,2.5l0,0.1l0.3,0.1c2.5,0,3.7-1.7,3.7-5l0-0.3V136.3z M87.5,137.6
			c-1.2-0.8-2.7-1.2-4.3-1.3v4.8c1.3,1,2.6,1.5,3.8,1.5c1.2,0,2.3-0.5,3.4-1.6C89.9,139.5,88.9,138.4,87.5,137.6z M90.6,141.8
			c-1.1,0.9-2.3,1.4-3.6,1.4c-1.2,0-2.5-0.4-3.7-1.2v4.9c1.2-0.7,2.3-1,3.5-1c1.1,0,2.2,0.3,3.3,1c0.5-1.5,0.7-2.7,0.7-3.6
			C90.8,143,90.7,142.5,90.6,141.8z"/>
		<path fill="#8E9093" d="M101.3,148.9v3.8l3.1,1.3l2.4-1.5l0.4,0.4c-0.6,0.4-1.3,0.8-2,1.3l-3.2,2.2c-1.6-0.9-3.3-1.5-5-1.8
			c0.7-0.7,1-1.6,1-2.7v-9.7c1.7-0.8,3.3-1.7,4.9-2.9l4.7,4.7C105,146,102.9,147.6,101.3,148.9z M101.3,141.8v6.3l3.5-2.7
			L101.3,141.8z"/>
		<path fill="#8E9093" d="M123.4,156.7c-1.9-0.9-3.3-1.4-4.3-1.4c-1.1,0-2.2,0.5-3.3,1.4c-1.7-1.2-3.8-2.2-6.4-2.9
			c0.7-0.6,1-1.6,1-2.8v-8.5c-1.1-1.3-1.6-2.4-1.6-3.4c0-1.6,1.2-3,3.6-4.3l0.2,0.3c-1,0.9-1.5,1.7-1.5,2.4c0,0.3,0.4,1,1.3,2.3
			c0.9,1.2,1.3,2.3,1.3,3.3l4.9-3.7c1.5,1.1,2.3,2.4,2.4,3.8l4.9-3.8c1.6,1.4,2.5,2.7,2.5,3.9v10.5
			C126.6,154.4,124.9,155.3,123.4,156.7z M117.7,144.2c0-0.3-0.1-0.6-0.3-0.8c0-0.1-0.4-0.5-1.1-1.2l-2.7,2.1v8.2c1,0.5,2.4,1,4,1.5
			V144.2z M125.4,144.2c0-0.4-0.2-0.9-0.7-1.3c-0.1-0.2-0.4-0.4-0.7-0.7l-2.9,2.1v8.5c0.8,0.3,1.7,0.6,2.7,0.8
			c0.3,0.1,0.9,0.2,1.6,0.4V144.2z"/>
		<path fill="#8E9093" d="M142.3,140.8l-3.3,4.5l3.4,2.1v6.7c-0.8,0.3-1.6,0.6-2.4,1.1c-0.4,0.3-1.1,0.7-2.1,1.4
			c-1.2-0.6-2.5-0.9-3.7-0.9c-1.2,0-2.4,0.3-3.7,0.8l-0.5-0.3l4.3-6.2l-3.5-1.9v-5.6c1.6-0.7,3.1-1.7,4.5-3c2,1,3.5,1.5,4.7,1.5
			l0.9-0.1c0.7,0,1.4-0.6,1.4-1.3c0-0.3-0.3-0.7-0.8-1.4l-0.2-0.3c0-0.4,0.3-0.6,0.9-0.6c0.7,0,1.1,0.4,1.1,1.3
			C143.3,139.1,143,139.8,142.3,140.8z M137.1,147.8l-4,5.2c0.7-0.1,1.5-0.2,2.4-0.2c1.3,0,2.6,0.3,3.9,1l0-4.8L137.1,147.8z
			 M137.8,143c-1.1,0-2.3-0.3-3.6-0.8l0,4.2l2.2,1.1l3.5-4.7C139.2,143,138.6,143,137.8,143z"/>
	</g>
</g>
<g>
	<rect x="69.4" y="190.2" fill="#E2E3E4" width="919.6" height="190.3"/>
</g>
<g>
	<rect x="664.3" y="394.9" fill="#E2E3E4" width="324.7" height="190.3"/>
</g>
<g>
	<rect x="69.2" y="177.5" fill="#E2E3E4" width="920" height="2"/>
</g>
<g>
	<rect x="160.2" y="396.5" fill="#E2E3E4" width="487" height="7"/>
</g>
<g>
	<rect x="950.2" y="83.5" fill="#E2E3E4" width="39" height="7"/>
</g>
<g>
	<rect x="898.2" y="83.5" fill="#E2E3E4" width="39" height="7"/>
</g>
<g>
	<rect x="845.2" y="83.5" fill="#E2E3E4" width="39" height="7"/>
</g>
<g>
	<rect x="160.2" y="419.5" fill="#E2E3E4" width="487" height="7"/>
</g>
<g>
	<rect x="82.2" y="441.5" fill="#E2E3E4" width="565" height="7"/>
</g>
<g>
	<rect x="82.2" y="464.5" fill="#E2E3E4" width="565" height="7"/>
</g>
<g>
	<rect x="82.2" y="486.5" fill="#E2E3E4" width="565" height="7"/>
</g>
<g>
	<rect x="82.2" y="509.5" fill="#E2E3E4" width="565" height="7"/>
</g>
<g>
	<rect x="82.2" y="531.5" fill="#E2E3E4" width="565" height="7"/>
</g>
<g>
	<rect x="82.2" y="554.5" fill="#E2E3E4" width="565" height="7"/>
</g>
<g>
	<rect x="82.2" y="576.5" fill="#E2E3E4" width="565" height="7"/>
</g>
<g>
	<g>
		<rect x="82.2" y="355.1" fill="#8E9093" width="63" height="63"/>
	</g>
	<g opacity="0.9">
		<path fill="#FFFFFF" d="M127.7,406.4h-1.1c-1.9-1.7-3.1-3.9-3.6-6.6c-3.4,3.5-6.7,5.6-9.8,6.2c-1.1,0.3-2.3,0.4-3.5,0.4
			c-4.6,0-8.1-1.6-10.6-4.8c-2.1-2.8-3.1-5.8-3.1-9.1c0-1.7,0.3-3.5,1-5.4c1-3,2.7-5.6,4.9-7.7c1.9-1.8,4.4-3.5,7.6-5.1l-0.1-0.2
			c-2.1,0.5-3.6,0.8-4.5,0.8c-0.8,0-2.8-0.2-3.6-0.2h-1.2c-2.8,0.3-4.9,2-6.3,5.2l-0.4,0.2c0-2.7,0.5-4.9,1.6-6.6c1.4-2,3.3-3,5.8-3
			c1,0,2.4,0.2,4.3,0.7c1.9,0.4,3.3,0.6,4.3,0.6c1.6,0,3-0.4,4.2-1.4h1.2v13c1.5,0.8,2.9,1.2,4.2,1.2s2.6-0.4,3.9-1.2v-6.5l-2.4-1.7
			l-1.8,2.1l-0.7-0.6l5.3-6.3l4.9,3.2l2.6-2.2l0.4,0.3c-1.5,1.8-2.2,3.6-2.2,5.4v21.5c0,1.6,0.3,2.9,1,3.7l1.8-1.5l0.5,0.8
			L127.7,406.4z M101.9,386.5c-0.1,0.4-0.1,0.8-0.1,1c-0.1,1-0.2,1.6-0.2,1.8c0,3.3,1,6.2,3.1,8.8c1.4-1.4,2.1-3.3,2.1-5.7l-0.1-8.9
			c0-3.2,1.5-6.3,4.4-9.2C105.8,377.3,102.7,381.3,101.9,386.5z M113.7,372.1c-1.5,1.5-2.2,3.2-2.2,5.2v11.1c0,4.3-2.1,7.7-6.1,10.3
			c2.2,1.7,4.9,2.6,8.3,2.6V372.1z M123,391.4c-1.5-0.8-2.8-1.1-3.9-1.1c-1.2,0-2.6,0.4-4.2,1.1l0.1,9.8c2.8-0.3,5.5-1.3,8-3V391.4z
			 M123,384.6c-1.5,0.6-2.8,1-4,1c-1.2,0-2.5-0.3-4-1v5.7c1.3-0.6,2.6-0.9,4-0.9c1.3,0,2.6,0.3,4,0.9V384.6z"/>
	</g>
</g>
</svg>
