<!-- Generator: Adobe Illustrator 18.1.1, SVG Export Plug-In  -->
<svg version="1.1"
	 xmlns="http://www.w3.org/2000/svg" xmlns:xlink="http://www.w3.org/1999/xlink" xmlns:a="http://ns.adobe.com/AdobeSVGViewerExtensions/3.0/"
	 x="0px" y="0px" width="1064.9px" height="648.3px" viewBox="0 0 1064.9 648.3" enable-background="new 0 0 1064.9 648.3"
	 xml:space="preserve">
<defs>
</defs>
<g>
	<defs>
		<path id="SVGID_1_" d="M1064.9,633.1c0,8.4-6.8,15.2-15.2,15.2H15.2c-8.4,0-15.2-6.8-15.2-15.2V15.2C0,6.8,6.8,0,15.2,0h1034.4
			c8.4,0,15.2,6.8,15.2,15.2V633.1z"/>
	</defs>
	<clipPath id="SVGID_2_">
		<use xlink:href="#SVGID_1_"  overflow="visible"/>
	</clipPath>
	<g clip-path="url(#SVGID_2_)">
		<rect x="0" y="0" fill="#FFFFFF" width="1064.9" height="648.3"/>
		<g>
			<rect x="0" y="0" fill="#E2E3E4" width="1064.9" height="54.9"/>
			<polygon fill="#8E9093" points="51,25 37.1,25 41.9,19.2 38.1,16 28.5,27.4 38.1,38.9 41.9,35.7 37.1,29.9 51,29.9 			"/>
			<path fill="#8E9093" d="M112.7,19.5"/>
			<path fill="#8E9093" d="M115.6,24.4"/>
			<polygon opacity="0.51" fill="#8E9093" points="77.7,16 73.9,19.2 78.8,25 64.8,25 64.8,29.9 78.8,29.9 73.9,35.7 77.7,38.9 
				87.3,27.4 			"/>
			<path fill="#8E9093" d="M133.6,23.7l-4.8,1.4c1.1,2.8,0.9,5.7-1.4,7.5c-3.7,2.8-8.1,4.4-11.8,1.5c-3.7-2.8-4.4-8.1-1.5-11.8
				c1.4-1.8,3.4-2.9,5.6-3.2c1.6-0.2,3.2,0.1,4.7,0.7l-1.3,0.3l0.5,2.1l6.5-1.4l-0.1-3l0.1-0.1c0,0-0.1,0-0.1-0.1l-0.1-3.5l-2.2,0.1
				l0.1,1.8c-2.6-1.5-5.6-2.2-8.6-1.8c-3.5,0.5-6.7,2.3-8.9,5.1c-4.5,5.8-3.4,14.3,2.4,18.8c2.4,1.9,5.3,2.8,8.1,2.8
				c4,0,8-1.8,10.6-5.2C134,32.2,134.8,27.7,133.6,23.7z"/>
			<path opacity="0.51" fill="#8E9093" d="M938.5,38.7H167.9c-3.7,0-6.8-2.6-6.8-5.8v-11c0-3.2,3-5.8,6.8-5.8h770.6
				c3.7,0,6.8,2.6,6.8,5.8v11C945.3,36.1,942.2,38.7,938.5,38.7z M167.9,17.4c-3,0-5.5,2-5.5,4.5v11c0,2.5,2.5,4.5,5.5,4.5h770.6
				c3,0,5.5-2,5.5-4.5v-11c0-2.5-2.5-4.5-5.5-4.5H167.9z"/>
			<g>
				<rect x="1014.8" y="24.9" fill="#8E9093" width="27.9" height="5.1"/>
				<rect x="1014.8" y="32.7" fill="#8E9093" width="27.9" height="5.1"/>
				<rect x="1014.8" y="17.1" fill="#8E9093" width="27.9" height="5.1"/>
			</g>
		</g>
	</g>
</g>
</svg>
