<!-- Generator: Adobe Illustrator 18.1.1, SVG Export Plug-In  -->
<svg version="1.1"
	 xmlns="http://www.w3.org/2000/svg" xmlns:xlink="http://www.w3.org/1999/xlink" xmlns:a="http://ns.adobe.com/AdobeSVGViewerExtensions/3.0/"
	 x="0px" y="0px" width="600px" height="830.2px" viewBox="0 0 600 830.2" enable-background="new 0 0 600 830.2"
	 xml:space="preserve">
<defs>
</defs>
<g>
	<rect x="0" fill="#FFFFFF" width="600" height="265.8"/>
</g>
<g>
	<g>
		<path d="M232.3,301.4h4.5V320h-4.5V301.4z"/>
		<path d="M241.2,301.4h4.6l5.1,8.7c0.7,1.2,1.6,3.2,1.6,3.2h0.1c0,0-0.2-2-0.2-3.2v-8.7h4.6V320h-4.6l-5.2-8.7
			c-0.7-1.2-1.6-3.2-1.6-3.2h-0.1c0,0,0.2,2,0.2,3.2v8.7h-4.6V301.4z"/>
		<path d="M262.3,314.2c0,0,2.1,1.9,4.4,1.9c0.9,0,1.9-0.4,1.9-1.5c0-2.2-8.4-2.1-8.4-7.9c0-3.4,2.9-5.7,6.6-5.7c4,0,6,2.1,6,2.1
			l-1.9,3.7c0,0-1.9-1.6-4.1-1.6c-0.9,0-2,0.4-2,1.5c0,2.3,8.4,1.9,8.4,7.8c0,3.1-2.4,5.8-6.6,5.8c-4.4,0-6.8-2.7-6.8-2.7
			L262.3,314.2z"/>
		<path d="M276.3,301.4h4.5V320h-4.5V301.4z"/>
		<path d="M293.8,301.1c4.8,0,7.2,2.5,7.2,2.5l-2.2,3.4c0,0-1.9-1.7-4.5-1.7c-3.9,0-5.5,2.5-5.5,5.3c0,3.5,2.4,5.6,5.3,5.6
			c2.2,0,3.8-1.4,3.8-1.4v-1.4h-2.6v-3.9h6.7V320h-3.8v-0.5c0-0.4,0-0.8,0-0.8H298c0,0-1.8,1.6-4.9,1.6c-4.8,0-9.1-3.6-9.1-9.6
			C284,305.3,288.1,301.1,293.8,301.1z"/>
		<path d="M305.3,301.4h4.5v7.4h6.8v-7.4h4.5V320h-4.5v-7.3h-6.8v7.3h-4.5V301.4z"/>
		<path d="M329.1,305.3h-5.6v-3.9h15.8v3.9h-5.6V320h-4.6V305.3z"/>
		<path d="M342.6,314.2c0,0,2.1,1.9,4.4,1.9c0.9,0,2-0.4,2-1.5c0-2.2-8.4-2.1-8.4-7.9c0-3.4,2.9-5.7,6.6-5.7c4,0,6,2.1,6,2.1
			l-1.9,3.7c0,0-1.9-1.6-4.1-1.6c-0.9,0-2,0.4-2,1.5c0,2.3,8.4,1.9,8.4,7.8c0,3.1-2.4,5.8-6.6,5.8c-4.4,0-6.8-2.7-6.8-2.7
			L342.6,314.2z"/>
	</g>
	<g>
		<rect x="27" y="334" width="531" height="1"/>
	</g>
</g>
<g>
	<g>
		<path d="M191.8,623.3h-5.6v-3.9H202v3.9h-5.6V638h-4.5V623.3z"/>
		<path d="M212.7,619.1c5.6,0,9.7,4.2,9.7,9.5c0,5.5-4.1,9.7-9.7,9.7c-5.6,0-9.7-4.3-9.7-9.7C203,623.3,207.1,619.1,212.7,619.1z
			 M212.7,634.2c2.8,0,5-2.4,5-5.6c0-3-2.2-5.3-5-5.3c-2.8,0-5,2.3-5,5.3C207.7,631.8,210,634.2,212.7,634.2z"/>
		<path d="M225.6,619.4h7.7c3.6,0,6.1,2.7,6.1,6.4s-2.4,6.4-6.1,6.4h-3.2v5.7h-4.5V619.4z M232.3,628.4c1.6,0,2.4-1.1,2.4-2.5
			c0-1.5-0.8-2.5-2.3-2.5h-2.3v5H232.3z"/>
		<path d="M256.4,619.1c5.6,0,9.7,4.2,9.7,9.5c0,2.1-0.8,4-1.8,5.5l1.9,1.6l-2.6,2.9l-1.9-1.8c-1.5,1-3.3,1.5-5.4,1.5
			c-5.6,0-9.7-4.3-9.7-9.7C246.7,623.3,250.8,619.1,256.4,619.1z M256.4,634.2c0.7,0,1.5-0.1,2-0.4l-1.9-1.7l2.5-2.9l1.8,1.8
			c0.3-0.7,0.5-1.5,0.5-2.4c0-3-2.2-5.3-5-5.3c-2.8,0-5,2.3-5,5.3C251.4,631.8,253.7,634.2,256.4,634.2z"/>
		<path d="M269.3,619.4h4.6v11.8c0,2,1.3,3,3.2,3c1.9,0,3.2-1,3.2-3v-11.8h4.5v11.8c0,4.2-3.1,7.2-7.7,7.2c-4.7,0-7.8-3-7.8-7.2
			V619.4z"/>
		<path d="M288.9,619.4h11.6v3.9h-7.1v3.4h5.7v3.9h-5.7v3.5h7.5v3.9h-12V619.4z"/>
		<path d="M305.2,632.2c0,0,2.1,1.9,4.4,1.9c0.9,0,2-0.4,2-1.5c0-2.2-8.4-2.1-8.4-7.9c0-3.4,2.9-5.7,6.6-5.7c4,0,6,2.1,6,2.1
			l-1.9,3.7c0,0-1.9-1.6-4.1-1.6c-0.9,0-2,0.4-2,1.5c0,2.3,8.4,1.9,8.4,7.8c0,3.1-2.4,5.8-6.6,5.8c-4.4,0-6.8-2.7-6.8-2.7
			L305.2,632.2z"/>
		<path d="M322.8,623.3h-5.6v-3.9H333v3.9h-5.6V638h-4.6V623.3z"/>
		<path d="M335.3,619.4h4.5V638h-4.5V619.4z"/>
		<path d="M352.7,619.1c5.6,0,9.7,4.2,9.7,9.5c0,5.5-4.1,9.7-9.7,9.7s-9.7-4.3-9.7-9.7C343,623.3,347.1,619.1,352.7,619.1z
			 M352.7,634.2c2.8,0,5-2.4,5-5.6c0-3-2.2-5.3-5-5.3c-2.8,0-5,2.3-5,5.3C347.7,631.8,349.9,634.2,352.7,634.2z"/>
		<path d="M365.5,619.4h4.6l5.1,8.7c0.7,1.2,1.6,3.2,1.6,3.2h0.1c0,0-0.2-2-0.2-3.2v-8.7h4.5V638h-4.6l-5.2-8.7
			c-0.7-1.2-1.6-3.2-1.6-3.2h-0.1c0,0,0.2,2,0.2,3.2v8.7h-4.5V619.4z"/>
		<path d="M386.6,632.2c0,0,2.1,1.9,4.4,1.9c0.9,0,2-0.4,2-1.5c0-2.2-8.4-2.1-8.4-7.9c0-3.4,2.9-5.7,6.6-5.7c4,0,6,2.1,6,2.1
			l-1.9,3.7c0,0-1.9-1.6-4.1-1.6c-0.9,0-2,0.4-2,1.5c0,2.3,8.4,1.9,8.4,7.8c0,3.1-2.4,5.8-6.6,5.8c-4.4,0-6.8-2.7-6.8-2.7
			L386.6,632.2z"/>
	</g>
	<g>
		<rect x="27" y="652" width="531" height="1"/>
	</g>
</g>
<g>
	<g>
		<path d="M548.3,402h-512c-2.8,0-5-2.2-5-5v-40c0-2.8,2.2-5,5-5h512c2.8,0,5,2.2,5,5v40C553.3,399.8,551,402,548.3,402z M36.3,354
			c-1.7,0-3,1.3-3,3v40c0,1.7,1.3,3,3,3h512c1.7,0,3-1.3,3-3v-40c0-1.7-1.3-3-3-3H36.3z"/>
	</g>
	<g>
		<path fill="#494949" d="M546.1,398.2h-34.8c-1.5,0-2.7-1.2-2.7-2.7v-36.2c0-1.5,1.2-2.7,2.7-2.7h34.8c1.5,0,2.7,1.2,2.7,2.7v36.2
			C548.8,397,547.6,398.2,546.1,398.2z"/>
	</g>
	<g>
		<path d="M48.1,368.9h-6.6v-1.6h14.9v1.6h-6.6v16.7h-1.8V368.9z"/>
		<path d="M56,372.5h1.7v2.3c0,0.6-0.1,1-0.1,1h0.1c0.6-2,2.1-3.5,4.1-3.5c0.4,0,0.7,0.1,0.7,0.1v1.7c0,0-0.3-0.1-0.6-0.1
			c-1.8,0-3.2,1.5-3.8,3.4c-0.3,0.8-0.4,1.7-0.4,2.5v5.5H56V372.5z"/>
		<path d="M65.1,372.5h1.8v7.9c0,2.1,0.3,3.9,2.8,3.9c3,0,4.8-2.6,4.8-5.5v-6.3h1.8v13.1h-1.7v-2c0-0.6,0.1-1,0.1-1h-0.1
			c-0.5,1.3-2.2,3.3-5.1,3.3c-3.1,0-4.4-1.7-4.4-5.1V372.5z"/>
		<path d="M80.4,382.7c0,0,1.5,1.6,3.9,1.6c1.4,0,2.6-0.7,2.6-2.1c0-2.9-7-2.2-7-6.4c0-2.3,2.1-3.6,4.5-3.6c2.8,0,4,1.4,4,1.4
			l-0.8,1.4c0,0-1.1-1.2-3.3-1.2c-1.3,0-2.6,0.6-2.6,2c0,2.9,7,2.1,7,6.4c0,2.1-1.8,3.7-4.5,3.7c-3.2,0-4.8-1.9-4.8-1.9L80.4,382.7z
			"/>
		<path d="M92.5,374.1h-1.7v-1.5h1.7v-3.8h1.7v3.8h3.3v1.5h-3.3v6.5c0,3.1,1.9,3.5,2.9,3.5c0.4,0,0.6-0.1,0.6-0.1v1.6
			c0,0-0.3,0.1-0.8,0.1c-1.5,0-4.5-0.5-4.5-4.9V374.1z"/>
		<path d="M106.3,372.2c3.6,0,5.5,2.8,5.5,6c0,0.3-0.1,0.9-0.1,0.9h-10c0.1,3.4,2.4,5.2,5.1,5.2c2.4,0,4-1.6,4-1.6l0.8,1.4
			c0,0-1.9,1.8-4.8,1.8c-3.9,0-6.8-2.8-6.8-6.8C99.9,374.7,102.8,372.2,106.3,372.2z M110,377.7c-0.1-2.7-1.8-4-3.7-4
			c-2.2,0-4.1,1.4-4.5,4H110z"/>
		<path d="M120.2,372.2c3.2,0,4.3,2.5,4.3,2.5h0.1c0,0-0.1-0.4-0.1-1v-6.4h1.8v18.3h-1.7v-1.4c0-0.6,0.1-0.9,0.1-0.9h-0.1
			c0,0-1.1,2.6-4.5,2.6c-3.5,0-5.7-2.8-5.7-6.9C114.3,374.9,116.7,372.2,120.2,372.2z M120.2,384.3c2.2,0,4.2-1.6,4.2-5.3
			c0-2.7-1.4-5.3-4.2-5.3c-2.3,0-4.2,2-4.2,5.3C116.1,382.2,117.8,384.3,120.2,384.3z"/>
		<path d="M147,379.7h-7.4l-2.1,5.8h-1.9l6.7-18.3h1.9l6.7,18.3h-1.9L147,379.7z M143.3,369.2c0,0-0.4,1.5-0.7,2.4l-2.4,6.6h6.3
			l-2.4-6.6C143.7,370.7,143.3,369.2,143.3,369.2L143.3,369.2z"/>
		<path d="M153.5,372.5h1.7v2.3c0,0.6-0.1,1-0.1,1h0.1c0.6-2,2.1-3.5,4.1-3.5c0.4,0,0.7,0.1,0.7,0.1v1.7c0,0-0.3-0.1-0.6-0.1
			c-1.8,0-3.2,1.5-3.8,3.4c-0.3,0.8-0.4,1.7-0.4,2.5v5.5h-1.8V372.5z"/>
		<path d="M163.2,374.1h-1.7v-1.5h1.7v-3.8h1.7v3.8h3.3v1.5H165v6.5c0,3.1,2,3.5,2.9,3.5c0.4,0,0.6-0.1,0.6-0.1v1.6
			c0,0-0.3,0.1-0.8,0.1c-1.5,0-4.6-0.5-4.6-4.9V374.1z"/>
		<path d="M171.4,367.3h1.8v2.2h-1.8V367.3z M171.4,372.5h1.8v13.1h-1.8V372.5z"/>
		<path d="M183.4,372.2c3.2,0,4.8,1.9,4.8,1.9l-0.9,1.3c0,0-1.5-1.6-3.8-1.6c-2.9,0-5.1,2.1-5.1,5.3c0,3.1,2.3,5.3,5.1,5.3
			c2.7,0,4.2-1.8,4.2-1.8l0.8,1.4c0,0-1.8,2.1-5.1,2.1c-3.9,0-6.9-2.8-6.9-6.8C176.6,375,179.6,372.2,183.4,372.2z"/>
		<path d="M191.6,367.3h1.8v14.8c0,1.7,0.8,2,1.5,2c0.2,0,0.4,0,0.4,0v1.6c0,0-0.3,0.1-0.6,0.1c-1.1,0-3-0.3-3-3.2V367.3z"/>
		<path d="M203.7,372.2c3.6,0,5.5,2.8,5.5,6c0,0.3-0.1,0.9-0.1,0.9h-10c0.1,3.4,2.4,5.2,5.1,5.2c2.4,0,4-1.6,4-1.6l0.8,1.4
			c0,0-1.9,1.8-4.8,1.8c-3.9,0-6.8-2.8-6.8-6.8C197.2,374.7,200.2,372.2,203.7,372.2z M207.4,377.7c-0.1-2.7-1.8-4-3.7-4
			c-2.2,0-4.1,1.4-4.5,4H207.4z"/>
	</g>
	<g>
		<path fill="#FFFFFF" d="M518.9,380.7h2.5v-8c0-0.3,0-0.6,0-0.6h0c0,0-0.1,0.2-0.5,0.7l-1.2,1.2l-0.7-0.7l2.5-2.5h1v10h2.4v1h-5.9
			V380.7z"/>
		<path fill="#FFFFFF" d="M526.2,381c0-3.8,5.6-4.3,5.6-7.3c0-1.2-0.9-2.1-2.3-2.1c-1.6,0-2.4,1.5-2.4,1.5l-0.8-0.5c0,0,1-2,3.3-2
			c2.1,0,3.3,1.4,3.3,3.1c0,3.7-5.5,4.2-5.5,7.1h5.7v1h-6.8C526.2,381.4,526.2,381.2,526.2,381z"/>
		<path fill="#FFFFFF" d="M535.3,370.7h1.1v6.1h1.2l2.3-3h1.3l-2.7,3.4v0l3,4.4h-1.3l-2.6-3.9h-1.3v3.9h-1.1V370.7z"/>
	</g>
</g>
<g>
	<g>
		<path d="M548.3,458.4h-512c-2.8,0-5-2.2-5-5v-40c0-2.8,2.2-5,5-5h512c2.8,0,5,2.2,5,5v40C553.3,456.1,551,458.4,548.3,458.4z
			 M36.3,410.4c-1.7,0-3,1.3-3,3v40c0,1.7,1.3,3,3,3h512c1.7,0,3-1.3,3-3v-40c0-1.7-1.3-3-3-3H36.3z"/>
	</g>
	<g>
		<path fill="#494949" d="M546.1,454.5h-34.8c-1.5,0-2.7-1.2-2.7-2.7v-36.2c0-1.5,1.2-2.7,2.7-2.7h34.8c1.5,0,2.7,1.2,2.7,2.7v36.2
			C548.8,453.3,547.6,454.5,546.1,454.5z"/>
	</g>
	<g>
		<path d="M44,423.6h9.6v1.6h-7.8v6.9h6.7v1.6h-6.7v8.2H44V423.6z"/>
		<path d="M63.3,433.8h0.7v-0.3c0-2.5-1.4-3.4-3.3-3.4c-2.2,0-3.7,1.2-3.7,1.2l-0.8-1.4c0,0,1.7-1.5,4.7-1.5c3.1,0,4.9,1.7,4.9,5
			v8.4h-1.7v-1.4c0-0.6,0.1-1.1,0.1-1.1h-0.1c0,0-1.1,2.8-4.4,2.8c-2.2,0-4.4-1.3-4.4-3.9C55.3,433.9,61.1,433.8,63.3,433.8z
			 M60.1,440.7c2.5,0,4-2.6,4-4.9v-0.6h-0.8c-2.1,0-6.2,0.1-6.2,3C57.2,439.5,58.1,440.7,60.1,440.7z"/>
		<path d="M68.1,428.8h1.9l3.6,9.6c0.2,0.7,0.4,1.6,0.4,1.6h0.1c0,0,0.2-0.9,0.5-1.6l3.6-9.6H80l-5,13.1h-1.9L68.1,428.8z"/>
		<path d="M88.4,428.5c3.8,0,6.9,2.9,6.9,6.8c0,4-3.1,6.9-6.9,6.9s-6.9-3-6.9-6.9C81.5,431.4,84.6,428.5,88.4,428.5z M88.4,440.6
			c2.8,0,5.1-2.3,5.1-5.3c0-3-2.3-5.2-5.1-5.2c-2.8,0-5.1,2.2-5.1,5.2C83.3,438.4,85.6,440.6,88.4,440.6z"/>
		<path d="M98.6,428.8h1.7v2.3c0,0.6-0.1,1-0.1,1h0.1c0.6-2,2.1-3.5,4.1-3.5c0.4,0,0.7,0.1,0.7,0.1v1.7c0,0-0.3-0.1-0.6-0.1
			c-1.8,0-3.2,1.5-3.8,3.4c-0.3,0.8-0.4,1.7-0.4,2.5v5.5h-1.8V428.8z"/>
		<path d="M107.8,439.1c0,0,1.5,1.6,3.9,1.6c1.4,0,2.6-0.7,2.6-2.1c0-2.9-7-2.2-7-6.4c0-2.3,2.1-3.6,4.5-3.6c2.8,0,4,1.4,4,1.4
			l-0.8,1.4c0,0-1.1-1.2-3.3-1.2c-1.3,0-2.6,0.6-2.6,2c0,2.9,7,2.1,7,6.4c0,2.1-1.8,3.7-4.5,3.7c-3.2,0-4.8-1.9-4.8-1.9L107.8,439.1
			z"/>
		<path d="M126.6,438.5c0,0,1.9,2,4.8,2c2,0,3.6-1.2,3.6-3.2c0-4.6-9.1-3.4-9.1-9.1c0-2.6,2.3-4.9,5.7-4.9c3.2,0,4.9,1.8,4.9,1.8
			l-0.9,1.5c0,0-1.6-1.6-4-1.6c-2.3,0-3.8,1.5-3.8,3.1c0,4.3,9.1,3.1,9.1,9.1c0,2.7-2.1,4.9-5.5,4.9c-3.7,0-5.8-2.3-5.8-2.3
			L126.6,438.5z"/>
		<path d="M140.8,430.5h-1.7V429h1.7v-3.8h1.7v3.8h3.3v1.5h-3.3v6.5c0,3.1,1.9,3.5,2.9,3.5c0.4,0,0.6-0.1,0.6-0.1v1.6
			c0,0-0.3,0.1-0.8,0.1c-1.5,0-4.5-0.5-4.5-4.9V430.5z"/>
		<path d="M148.8,428.8h1.8v7.9c0,2.1,0.3,3.9,2.8,3.9c3,0,4.8-2.6,4.8-5.5v-6.3h1.8v13.1h-1.7v-2c0-0.6,0.1-1,0.1-1h-0.1
			c-0.5,1.3-2.2,3.3-5.1,3.3c-3.1,0-4.4-1.7-4.4-5.1V428.8z"/>
		<path d="M169.3,428.5c3.2,0,4.3,2.5,4.3,2.5h0.1c0,0-0.1-0.4-0.1-1v-6.4h1.8v18.3h-1.7v-1.4c0-0.6,0.1-0.9,0.1-0.9h-0.1
			c0,0-1.1,2.6-4.5,2.6c-3.5,0-5.7-2.8-5.7-6.9C163.4,431.2,165.9,428.5,169.3,428.5z M169.4,440.6c2.2,0,4.2-1.6,4.2-5.3
			c0-2.7-1.4-5.3-4.2-5.3c-2.3,0-4.2,2-4.2,5.3C165.3,438.6,167,440.6,169.4,440.6z"/>
		<path d="M185.2,428.5c3.6,0,5.5,2.8,5.5,6c0,0.3-0.1,0.9-0.1,0.9h-10c0.1,3.4,2.4,5.2,5.1,5.2c2.4,0,4-1.6,4-1.6l0.8,1.4
			c0,0-1.9,1.8-4.8,1.8c-3.9,0-6.8-2.8-6.8-6.8C178.7,431.1,181.6,428.5,185.2,428.5z M188.8,434c-0.1-2.7-1.8-4-3.7-4
			c-2.2,0-4.1,1.4-4.5,4H188.8z"/>
		<path d="M194,428.8h1.7v2c0,0.6-0.1,1-0.1,1h0.1c0.5-1.2,2.1-3.3,5.2-3.3c3.2,0,4.4,1.8,4.4,5.1v8.3h-1.8v-7.9
			c0-2.1-0.3-3.9-2.8-3.9c-2.2,0-4.2,1.5-4.8,3.7c-0.2,0.5-0.2,1.1-0.2,1.8v6.3H194V428.8z"/>
		<path d="M209.9,430.5h-1.7V429h1.7v-3.8h1.7v3.8h3.3v1.5h-3.3v6.5c0,3.1,2,3.5,2.9,3.5c0.4,0,0.6-0.1,0.6-0.1v1.6
			c0,0-0.3,0.1-0.8,0.1c-1.5,0-4.6-0.5-4.6-4.9V430.5z"/>
		<path d="M218,439.1c0,0,1.5,1.6,3.9,1.6c1.4,0,2.6-0.7,2.6-2.1c0-2.9-7-2.2-7-6.4c0-2.3,2.1-3.6,4.5-3.6c2.8,0,4,1.4,4,1.4
			l-0.8,1.4c0,0-1.1-1.2-3.3-1.2c-1.3,0-2.6,0.6-2.6,2c0,2.9,7,2.1,7,6.4c0,2.1-1.8,3.7-4.5,3.7c-3.2,0-4.8-1.9-4.8-1.9L218,439.1z"
			/>
	</g>
	<g>
		<path fill="#FFFFFF" d="M517.9,437.3c0-3.8,5.6-4.3,5.6-7.3c0-1.2-0.9-2.1-2.3-2.1c-1.6,0-2.4,1.5-2.4,1.5l-0.8-0.5c0,0,1-2,3.3-2
			c2.1,0,3.3,1.4,3.3,3.1c0,3.7-5.5,4.2-5.5,7.1h5.7v1H518C517.9,437.8,517.9,437.6,517.9,437.3z"/>
		<path fill="#FFFFFF" d="M526.7,437.3c0-3.8,5.6-4.3,5.6-7.3c0-1.2-0.9-2.1-2.3-2.1c-1.6,0-2.4,1.5-2.4,1.5l-0.8-0.5c0,0,1-2,3.3-2
			c2.1,0,3.3,1.4,3.3,3.1c0,3.7-5.5,4.2-5.5,7.1h5.7v1h-6.8C526.7,437.8,526.7,437.6,526.7,437.3z"/>
		<path fill="#FFFFFF" d="M535.8,427.1h1.1v6.1h1.2l2.3-3h1.3l-2.7,3.4v0l3,4.4h-1.3l-2.6-3.9h-1.3v3.9h-1.1V427.1z"/>
	</g>
</g>
<g>
	<g>
		<path d="M548.3,514.7h-512c-2.8,0-5-2.2-5-5v-40c0-2.8,2.2-5,5-5h512c2.8,0,5,2.2,5,5v40C553.3,512.5,551,514.7,548.3,514.7z
			 M36.3,466.7c-1.7,0-3,1.3-3,3v40c0,1.7,1.3,3,3,3h512c1.7,0,3-1.3,3-3v-40c0-1.7-1.3-3-3-3H36.3z"/>
	</g>
	<g>
		<path fill="#494949" d="M546.1,510.9h-34.8c-1.5,0-2.7-1.2-2.7-2.7V472c0-1.5,1.2-2.7,2.7-2.7h34.8c1.5,0,2.7,1.2,2.7,2.7v36.2
			C548.8,509.7,547.6,510.9,546.1,510.9z"/>
	</g>
	<g>
		<path d="M44,480h5.4c1.9,0,2.7,0.2,3.4,0.5c1.7,0.8,2.8,2.5,2.8,4.7c0,2.5-1.4,4.4-3.5,4.9v0.1c0,0,0.2,0.2,0.5,0.7l4,7.4h-2.1
			l-4.1-7.7h-4.6v7.7H44V480z M50.1,489c2.2,0,3.6-1.4,3.6-3.7c0-1.5-0.6-2.6-1.7-3.2c-0.5-0.3-1.2-0.4-2.6-0.4h-3.7v7.4H50.1z"/>
		<path d="M59.7,480h1.8v2.2h-1.8V480z M59.8,485.2h1.8v13.1h-1.8V485.2z"/>
		<path d="M70.3,502.1c2.5,0,4.6-1.2,4.6-4.1v-1.2c0-0.5,0.1-0.9,0.1-0.9h-0.1c-0.8,1.5-2.1,2.3-4.1,2.3c-3.5,0-5.8-2.8-5.8-6.7
			c0-3.9,2.2-6.6,5.7-6.6c3.5,0,4.3,2.2,4.3,2.2H75c0,0,0-0.2,0-0.4v-1.4h1.7V498c0,4.2-3.1,5.8-6.3,5.8c-1.5,0-3-0.4-4.3-1l0.7-1.5
			C66.8,501.2,68.4,502.1,70.3,502.1z M74.9,491.5c0-3.8-1.8-5-4.1-5c-2.5,0-4,1.8-4,5s1.7,5.1,4.3,5.1
			C73.1,496.6,74.9,495.3,74.9,491.5z"/>
		<path d="M80.9,480h1.8v7.1c0,0.6-0.1,1.1-0.1,1.1h0.1c0.5-1.2,2.2-3.2,5.2-3.2c3.2,0,4.4,1.8,4.4,5.1v8.3h-1.8v-7.9
			c0-2.1-0.3-3.9-2.8-3.9c-2.2,0-4.2,1.5-4.8,3.7c-0.2,0.5-0.2,1.1-0.2,1.7v6.3h-1.8V480z"/>
		<path d="M96.8,486.8h-1.7v-1.5h1.7v-3.8h1.7v3.8h3.3v1.5h-3.3v6.5c0,3.1,2,3.5,2.9,3.5c0.4,0,0.6-0.1,0.6-0.1v1.6
			c0,0-0.3,0.1-0.8,0.1c-1.5,0-4.6-0.5-4.6-4.9V486.8z"/>
		<path d="M112.6,480h1.8v16.7h8.5v1.6h-10.3V480z"/>
		<path d="M131.1,484.9c3.6,0,5.5,2.8,5.5,6c0,0.3-0.1,0.9-0.1,0.9h-10c0.1,3.4,2.4,5.2,5.1,5.2c2.4,0,4-1.6,4-1.6l0.8,1.4
			c0,0-1.9,1.8-4.8,1.8c-3.9,0-6.8-2.8-6.8-6.8C124.6,487.5,127.5,484.9,131.1,484.9z M134.7,490.4c-0.1-2.7-1.8-4-3.7-4
			c-2.2,0-4.1,1.4-4.5,4H134.7z"/>
		<path d="M146.8,490.2h0.7v-0.3c0-2.5-1.4-3.4-3.3-3.4c-2.2,0-3.7,1.2-3.7,1.2l-0.8-1.4c0,0,1.7-1.5,4.7-1.5c3.1,0,4.9,1.7,4.9,5
			v8.4h-1.7v-1.4c0-0.6,0.1-1.1,0.1-1.1h-0.1c0,0-1.1,2.8-4.4,2.8c-2.2,0-4.4-1.3-4.4-3.9C138.8,490.3,144.6,490.2,146.8,490.2z
			 M143.6,497.1c2.5,0,4-2.6,4-4.9v-0.6h-0.8c-2.1,0-6.2,0.1-6.2,3C140.6,495.8,141.6,497.1,143.6,497.1z"/>
		<path d="M153.4,485.2h1.7v2c0,0.6-0.1,1-0.1,1h0.1c0.5-1.2,2.1-3.3,5.2-3.3c3.2,0,4.4,1.8,4.4,5.1v8.3H163v-7.9
			c0-2.1-0.3-3.9-2.8-3.9c-2.2,0-4.2,1.5-4.8,3.7c-0.2,0.5-0.2,1.1-0.2,1.8v6.3h-1.8V485.2z"/>
		<path d="M168.8,480h1.8v2.2h-1.8V480z M168.8,485.2h1.8v13.1h-1.8V485.2z"/>
		<path d="M174.9,485.2h1.7v2c0,0.6-0.1,1-0.1,1h0.1c0.5-1.2,2.1-3.3,5.2-3.3c3.2,0,4.4,1.8,4.4,5.1v8.3h-1.8v-7.9
			c0-2.1-0.3-3.9-2.8-3.9c-2.2,0-4.2,1.5-4.8,3.7c-0.2,0.5-0.2,1.1-0.2,1.8v6.3h-1.8V485.2z"/>
		<path d="M194.8,502.1c2.5,0,4.6-1.2,4.6-4.1v-1.2c0-0.5,0.1-0.9,0.1-0.9h-0.1c-0.8,1.5-2.1,2.3-4.1,2.3c-3.5,0-5.8-2.8-5.8-6.7
			c0-3.9,2.2-6.6,5.7-6.6c3.5,0,4.3,2.2,4.3,2.2h0.1c0,0,0-0.2,0-0.4v-1.4h1.7V498c0,4.2-3.1,5.8-6.3,5.8c-1.5,0-3-0.4-4.3-1
			l0.7-1.5C191.3,501.2,192.9,502.1,194.8,502.1z M199.4,491.5c0-3.8-1.8-5-4.1-5c-2.5,0-4,1.8-4,5s1.7,5.1,4.3,5.1
			C197.6,496.6,199.4,495.3,199.4,491.5z"/>
	</g>
	<g>
		<path fill="#FFFFFF" d="M517.5,490.7l5.4-7.2h1.2v7h1.6v0.9h-1.6v3H523v-3h-5.5V490.7z M523,490.4v-4.6c0-0.5,0-1,0-1h0
			c0,0-0.2,0.4-0.5,0.8l-3.6,4.7v0H523z"/>
		<path fill="#FFFFFF" d="M527.2,493.7c0-3.8,5.6-4.3,5.6-7.3c0-1.2-0.9-2.1-2.3-2.1c-1.6,0-2.4,1.5-2.4,1.5l-0.8-0.5c0,0,1-2,3.3-2
			c2.1,0,3.3,1.4,3.3,3.1c0,3.7-5.5,4.2-5.5,7.1h5.7v1h-6.8C527.2,494.2,527.2,493.9,527.2,493.7z"/>
		<path fill="#FFFFFF" d="M536.3,483.5h1.1v6.1h1.2l2.3-3h1.3l-2.7,3.4v0l3,4.4h-1.3l-2.6-3.9h-1.3v3.9h-1.1V483.5z"/>
	</g>
</g>
<g>
	<g>
		<path d="M548.3,571.1h-512c-2.8,0-5-2.2-5-5v-40c0-2.8,2.2-5,5-5h512c2.8,0,5,2.2,5,5v40C553.3,568.8,551,571.1,548.3,571.1z
			 M36.3,523.1c-1.7,0-3,1.3-3,3v40c0,1.7,1.3,3,3,3h512c1.7,0,3-1.3,3-3v-40c0-1.7-1.3-3-3-3H36.3z"/>
	</g>
	<g>
		<path fill="#494949" d="M546.1,567.3h-34.8c-1.5,0-2.7-1.2-2.7-2.7v-36.2c0-1.5,1.2-2.7,2.7-2.7h34.8c1.5,0,2.7,1.2,2.7,2.7v36.2
			C548.8,566.1,547.6,567.3,546.1,567.3z"/>
	</g>
	<g>
		<path d="M51.9,536c4.2,0,6.5,2.1,6.5,2.1l-1,1.4c0,0-2.1-1.8-5.5-1.8c-4.4,0-7.4,3.4-7.4,7.7c0,4.5,3.1,7.8,7.3,7.8
			c3.6,0,5.7-2.7,5.7-2.7v-3.1h-3.1v-1.6h4.8v8.7h-1.7v-1.4c0-0.4,0-0.8,0-0.8h-0.1c0,0-2.1,2.5-6,2.5c-5,0-8.9-4-8.9-9.5
			C42.7,540.2,46.7,536,51.9,536z"/>
		<path d="M69.1,541.2c3.8,0,6.9,2.9,6.9,6.8c0,4-3.1,6.9-6.9,6.9c-3.8,0-6.9-3-6.9-6.9C62.2,544.1,65.3,541.2,69.1,541.2z
			 M69.1,553.3c2.8,0,5.1-2.3,5.1-5.3c0-3-2.3-5.2-5.1-5.2c-2.8,0-5.1,2.2-5.1,5.2C64,551.1,66.3,553.3,69.1,553.3z"/>
		<path d="M85.3,541.2c3.8,0,6.9,2.9,6.9,6.8c0,4-3.1,6.9-6.9,6.9c-3.8,0-6.9-3-6.9-6.9C78.4,544.1,81.4,541.2,85.3,541.2z
			 M85.3,553.3c2.8,0,5.1-2.3,5.1-5.3c0-3-2.3-5.2-5.1-5.2c-2.8,0-5.1,2.2-5.1,5.2C80.2,551.1,82.5,553.3,85.3,553.3z"/>
		<path d="M100.5,541.2c3.2,0,4.3,2.5,4.3,2.5h0.1c0,0-0.1-0.4-0.1-1v-6.4h1.8v18.3h-1.7v-1.4c0-0.6,0.1-0.9,0.1-0.9h-0.1
			c0,0-1.1,2.6-4.5,2.6c-3.5,0-5.7-2.8-5.7-6.9C94.6,543.9,97.1,541.2,100.5,541.2z M100.6,553.3c2.2,0,4.2-1.6,4.2-5.3
			c0-2.7-1.4-5.3-4.2-5.3c-2.3,0-4.2,2-4.2,5.3C96.4,551.3,98.1,553.3,100.6,553.3z"/>
		<path d="M118.3,536.3h5.4c1.9,0,2.7,0.2,3.4,0.5c1.7,0.8,2.8,2.5,2.8,4.7c0,2.5-1.4,4.4-3.5,4.9v0.1c0,0,0.2,0.2,0.5,0.7l4,7.4
			h-2.1l-4.1-7.7h-4.6v7.7h-1.8V536.3z M124.4,545.3c2.2,0,3.6-1.4,3.6-3.7c0-1.5-0.6-2.6-1.7-3.2c-0.5-0.3-1.2-0.4-2.6-0.4h-3.7
			v7.4H124.4z"/>
		<path d="M139.7,541.2c3.6,0,5.5,2.8,5.5,6c0,0.3-0.1,0.9-0.1,0.9h-10c0.1,3.4,2.4,5.2,5.1,5.2c2.4,0,4-1.6,4-1.6l0.8,1.4
			c0,0-1.9,1.8-4.8,1.8c-3.9,0-6.8-2.8-6.8-6.8C133.2,543.8,136.1,541.2,139.7,541.2z M143.3,546.7c-0.1-2.7-1.8-4-3.7-4
			c-2.2,0-4.1,1.4-4.5,4H143.3z"/>
		<path d="M155.4,546.5h0.7v-0.3c0-2.5-1.4-3.4-3.2-3.4c-2.2,0-3.7,1.2-3.7,1.2l-0.8-1.4c0,0,1.7-1.5,4.7-1.5c3.1,0,4.9,1.7,4.9,5
			v8.4h-1.7v-1.4c0-0.7,0.1-1.1,0.1-1.1h-0.1c0,0-1.1,2.8-4.4,2.8c-2.2,0-4.4-1.3-4.4-3.9C147.4,546.6,153.2,546.5,155.4,546.5z
			 M152.2,553.4c2.5,0,4-2.6,4-4.9V548h-0.8c-2.1,0-6.2,0.1-6.2,3C149.3,552.2,150.2,553.4,152.2,553.4z"/>
		<path d="M167,541.2c3.2,0,4.3,2.5,4.3,2.5h0.1c0,0-0.1-0.4-0.1-1v-6.4h1.8v18.3h-1.7v-1.4c0-0.6,0.1-0.9,0.1-0.9h-0.1
			c0,0-1.1,2.6-4.5,2.6c-3.5,0-5.7-2.8-5.7-6.9C161.2,543.9,163.6,541.2,167,541.2z M167.1,553.3c2.2,0,4.2-1.6,4.2-5.3
			c0-2.7-1.4-5.3-4.2-5.3c-2.3,0-4.2,2-4.2,5.3C163,551.3,164.7,553.3,167.1,553.3z"/>
	</g>
	<g>
		<path fill="#FFFFFF" d="M517.9,549.8h2.5v-8c0-0.3,0-0.6,0-0.6h0c0,0-0.1,0.2-0.5,0.7l-1.2,1.2l-0.7-0.7l2.5-2.5h1v10h2.4v1h-5.9
			V549.8z"/>
		<path fill="#FFFFFF" d="M525.3,545.3c0-3.1,0.9-5.6,3.8-5.6c2.8,0,3.8,2.5,3.8,5.6c0,3.2-0.9,5.7-3.8,5.7
			C526.3,550.9,525.3,548.5,525.3,545.3z M531.7,545.3c0-2.6-0.6-4.6-2.6-4.6c-2.1,0-2.7,2-2.7,4.6c0,2.6,0.6,4.7,2.7,4.7
			C531.2,549.9,531.7,547.9,531.7,545.3z"/>
		<path fill="#FFFFFF" d="M535.2,539.8h1.1v6.1h1.2l2.3-3h1.3l-2.7,3.4v0l3,4.4h-1.3l-2.6-3.9h-1.3v3.9h-1.1V539.8z"/>
	</g>
</g>
<g>
	<g>
		<path d="M546.8,830.2h-512c-2.8,0-5-2.2-5-5V683.6c0-2.8,2.2-5,5-5h512c2.8,0,5,2.2,5,5v141.6C551.8,828,549.5,830.2,546.8,830.2z
			 M34.8,680.6c-1.7,0-3,1.3-3,3v141.6c0,1.7,1.3,3,3,3h512c1.7,0,3-1.3,3-3V683.6c0-1.7-1.3-3-3-3H34.8z"/>
	</g>
	<g>
		<rect x="31" y="770" width="520" height="1"/>
	</g>
	<g>
		<path d="M232.3,803.1h-5.5l-1.3,4h-2.9l5.5-15.6h3l5.5,15.6h-2.9L232.3,803.1z M229.5,794.2c0,0-0.4,1.5-0.7,2.4l-1.4,4.2h4.1
			l-1.4-4.2C229.9,795.8,229.6,794.2,229.5,794.2L229.5,794.2z"/>
		<path d="M238.4,803.8c0,0,1.2,1.2,3.1,1.2c0.8,0,1.5-0.4,1.5-1c0-1.7-5.5-1.5-5.5-5.1c0-2.1,1.9-3.3,4.3-3.3
			c2.5,0,3.8,1.3,3.8,1.3l-1,2.1c0,0-1-1-2.8-1c-0.7,0-1.4,0.3-1.4,1c0,1.6,5.5,1.4,5.5,5c0,1.9-1.6,3.4-4.3,3.4
			c-2.8,0-4.4-1.6-4.4-1.6L238.4,803.8z"/>
		<path d="M248,791.5h2.8v8.4h1.4l2.7-4h3.1l-3.5,5v0l4,6.2h-3.2l-3-4.9h-1.5v4.9H248V791.5z"/>
		<path d="M272.9,791.3c4.6,0,8.1,3.5,8.1,8c0,1.9-0.7,3.6-1.7,5l1.8,1.6l-1.6,1.8l-1.7-1.7c-1.3,1-2.9,1.5-4.8,1.5
			c-4.6,0-8.1-3.6-8.1-8.2C264.9,794.8,268.3,791.3,272.9,791.3z M272.9,804.8c0.9,0,2-0.3,2.7-0.8l-1.7-1.7l1.6-1.8l1.7,1.7
			c0.5-0.9,0.9-1.9,0.9-3c0-3.1-2.3-5.4-5.2-5.4c-2.9,0-5.1,2.3-5.1,5.4C267.8,802.4,270.1,804.8,272.9,804.8z"/>
		<path d="M283.5,795.9h2.8v6.6c0,1.4,0.4,2.3,1.7,2.3c2,0,3.1-1.8,3.1-3.8v-5.1h2.8v11.2h-2.7v-1.3c0-0.4,0-0.8,0-0.8h0
			c-0.5,1.2-2,2.3-3.9,2.3c-2.4,0-3.9-1.2-3.9-4.3V795.9z"/>
		<path d="M302,795.7c3.2,0,5,2.4,5,5.3c0,0.3-0.1,1.1-0.1,1.1h-7.7c0.2,2,1.7,3,3.4,3c1.8,0,3.2-1.2,3.2-1.2l1.1,2
			c0,0-1.7,1.6-4.5,1.6c-3.7,0-6-2.7-6-5.9C296.3,798.1,298.6,795.7,302,795.7z M304.1,800.2c0-1.5-1-2.3-2.2-2.3
			c-1.4,0-2.4,0.9-2.7,2.3H304.1z"/>
		<path d="M309.6,803.8c0,0,1.2,1.2,3.1,1.2c0.8,0,1.5-0.4,1.5-1c0-1.7-5.5-1.5-5.5-5.1c0-2.1,1.9-3.3,4.3-3.3
			c2.5,0,3.8,1.3,3.8,1.3l-1,2.1c0,0-1-1-2.8-1c-0.7,0-1.4,0.3-1.4,1c0,1.6,5.5,1.4,5.5,5c0,1.9-1.6,3.4-4.3,3.4
			c-2.8,0-4.4-1.6-4.4-1.6L309.6,803.8z"/>
		<path d="M319.7,798.3h-1.5v-2.2h1.5v-3.2h2.7v3.2h2.6v2.2h-2.6v4.4c0,1.8,1.5,2.1,2.2,2.1c0.3,0,0.5,0,0.5,0v2.4
			c0,0-0.3,0.1-0.9,0.1c-1.6,0-4.7-0.5-4.7-4.2V798.3z"/>
		<path d="M327.5,791.5h2.8v2.5h-2.8V791.5z M327.5,795.9h2.8v11.2h-2.8V795.9z"/>
		<path d="M338.7,795.7c3.4,0,6.2,2.4,6.2,5.9c0,3.5-2.8,5.9-6.2,5.9c-3.4,0-6.2-2.4-6.2-5.9C332.5,798.1,335.3,795.7,338.7,795.7z
			 M338.7,805c1.8,0,3.3-1.4,3.3-3.5c0-2.1-1.5-3.5-3.3-3.5c-1.8,0-3.3,1.4-3.3,3.5C335.4,803.6,336.9,805,338.7,805z"/>
		<path d="M347.1,795.9h2.7v1.3c0,0.4,0,0.8,0,0.8h0c0.5-0.9,1.7-2.3,4-2.3c2.5,0,3.9,1.3,3.9,4.3v7.2h-2.8v-6.6
			c0-1.4-0.4-2.3-1.8-2.3c-1.5,0-2.6,0.9-3,2.3c-0.2,0.5-0.2,1-0.2,1.5v5.1h-2.8V795.9z"/>
	</g>
</g>
</svg>
