<!-- Generator: Adobe Illustrator 18.1.1, SVG Export Plug-In  -->
<svg version="1.1"
	 xmlns="http://www.w3.org/2000/svg" xmlns:xlink="http://www.w3.org/1999/xlink" xmlns:a="http://ns.adobe.com/AdobeSVGViewerExtensions/3.0/"
	 x="0px" y="0px" width="600px" height="1334.4px" viewBox="0 0 600 1334.4" enable-background="new 0 0 600 1334.4"
	 xml:space="preserve">
<defs>
</defs>
<rect x="0" y="50.2" fill="#494949" width="600" height="206"/>
<rect x="0" y="0" fill="#C14237" width="600" height="50"/>
<rect x="27" y="85.8" fill="none" width="468" height="58.2"/>
<text transform="matrix(1 0 0 1 26.9998 102.9389)"><tspan x="0" y="0" fill="#FFFFFF" font-family="'MuseoSans-900'" font-size="24">Obama Warns GOP He Plans to Use Veto </tspan><tspan x="0" y="37" fill="#FFFFFF" font-family="'MuseoSans-900'" font-size="24">Pen In 2015</tspan><tspan x="135.6" y="37" fill="#FFFFFF" font-family="'MuseoSlab-700'" font-size="24"> – </tspan><tspan x="164.9" y="37" fill="#FFFFFF" font-family="'MuseoSlab-500Italic'" font-size="24">Jane Whitefield</tspan></text>
<g>
	<text transform="matrix(1 0 0 1 53.3263 202.5163)" fill="#FFFFFF" font-family="'MuseoSans-900'" font-size="22">from New York Times</text>
	<path fill="none" stroke="#FFFFFF" stroke-width="2" stroke-miterlimit="10" d="M299.7,224.4h-265c-2.2,0-4-1.8-4-4v-49.8
		c0-2.2,1.8-4,4-4h265c2.2,0,4,1.8,4,4v49.8C303.7,222.6,301.9,224.4,299.7,224.4z"/>
</g>
<g>
	<g>
		<text transform="matrix(1 0 0 1 230.1106 310.4457)" font-family="'MuseoSans-900'" font-size="26">INSIGHTS</text>
	</g>
	<line fill="none" stroke="#000000" stroke-miterlimit="10" x1="27.1" y1="324.9" x2="558.1" y2="324.9"/>
</g>
<g>
	<g>
		<text transform="matrix(1 0 0 1 186.0803 628.4457)" font-family="'MuseoSans-900'" font-size="26">TOP QUESTIONS</text>
	</g>
	<line fill="none" stroke="#000000" stroke-miterlimit="10" x1="27.1" y1="642.9" x2="558.1" y2="642.9"/>
</g>
<g>
	<path fill="none" stroke="#000000" stroke-width="2" stroke-miterlimit="10" d="M548.3,391.4h-512c-2.2,0-4-1.8-4-4v-40
		c0-2.2,1.8-4,4-4h512c2.2,0,4,1.8,4,4v40C552.3,389.7,550.5,391.4,548.3,391.4z"/>
	<path fill="#494949" d="M546.1,388.6h-34.8c-1.5,0-2.7-1.2-2.7-2.7v-36.2c0-1.5,1.2-2.7,2.7-2.7h34.8c1.5,0,2.7,1.2,2.7,2.7v36.2
		C548.8,387.4,547.6,388.6,546.1,388.6z"/>
	<text transform="matrix(1 0 0 1 41.319 376.0002)" font-family="'MuseoSans-300'" font-size="26">Trusted Article</text>
	<text transform="matrix(1 0 0 1 518 372.132)" fill="#FFFFFF" font-family="'MuseoSans-300'" font-size="15.5627">12k</text>
</g>
<g>
	<path fill="none" stroke="#000000" stroke-width="2" stroke-miterlimit="10" d="M548.3,449h-512c-2.2,0-4-1.8-4-4v-40
		c0-2.2,1.8-4,4-4h512c2.2,0,4,1.8,4,4v40C552.3,447.2,550.5,449,548.3,449z"/>
	<path fill="#494949" d="M546.1,446.2h-34.8c-1.5,0-2.7-1.2-2.7-2.7v-36.2c0-1.5,1.2-2.7,2.7-2.7h34.8c1.5,0,2.7,1.2,2.7,2.7v36.2
		C548.8,445,547.6,446.2,546.1,446.2z"/>
	<text transform="matrix(1 0 0 1 41.319 433.5303)" font-family="'MuseoSans-300'" font-size="26">Helpful Article</text>
	<text transform="matrix(1 0 0 1 516.9993 429.6621)" fill="#FFFFFF" font-family="'MuseoSans-300'" font-size="15.5627">22k</text>
</g>
<g>
	<path fill="none" stroke="#000000" stroke-width="2" stroke-miterlimit="10" d="M548.3,505.7h-512c-2.2,0-4-1.8-4-4v-40
		c0-2.2,1.8-4,4-4h512c2.2,0,4,1.8,4,4v40C552.3,503.9,550.5,505.7,548.3,505.7z"/>
	<path fill="#494949" d="M546.1,502.9h-34.8c-1.5,0-2.7-1.2-2.7-2.7V464c0-1.5,1.2-2.7,2.7-2.7h34.8c1.5,0,2.7,1.2,2.7,2.7v36.2
		C548.8,501.7,547.6,502.9,546.1,502.9z"/>
	<text transform="matrix(1 0 0 1 41.319 490.2479)" font-family="'MuseoSans-300'" font-size="26">Right Leaning</text>
	<text transform="matrix(1 0 0 1 516.9993 486.3797)" fill="#FFFFFF" font-family="'MuseoSans-300'" font-size="15.5627">42k</text>
</g>
<g>
	<path fill="none" stroke="#000000" stroke-width="2" stroke-miterlimit="10" d="M548.3,560.5h-512c-2.2,0-4-1.8-4-4v-40
		c0-2.2,1.8-4,4-4h512c2.2,0,4,1.8,4,4v40C552.3,558.7,550.5,560.5,548.3,560.5z"/>
	<path fill="#494949" d="M546.1,557.7h-34.8c-1.5,0-2.7-1.2-2.7-2.7v-36.2c0-1.5,1.2-2.7,2.7-2.7h34.8c1.5,0,2.7,1.2,2.7,2.7V555
		C548.8,556.5,547.6,557.7,546.1,557.7z"/>
	<text transform="matrix(1 0 0 1 41.319 545.0651)" font-family="'MuseoSans-300'" font-size="26">Good Read</text>
	<text transform="matrix(1 0 0 1 516.9993 541.197)" fill="#FFFFFF" font-family="'MuseoSans-300'" font-size="15.5627">10k</text>
</g>
<g>
	<path fill="none" stroke="#000000" stroke-width="2" stroke-miterlimit="10" d="M547.3,851.7h-512c-2.2,0-4-1.8-4-4V674.1
		c0-2.2,1.8-4,4-4h512c2.2,0,4,1.8,4,4v173.7C551.3,850,549.5,851.7,547.3,851.7z"/>
	<line fill="none" stroke="#000000" stroke-width="2" stroke-miterlimit="10" x1="31.1" y1="790.4" x2="551.1" y2="790.4"/>
	<text transform="matrix(1 0 0 1 220.0625 828.0004)" font-family="'MuseoSans-700'" font-size="22">Ask Questions</text>
</g>
<g>
	<path fill="none" stroke="#000000" stroke-width="2" stroke-miterlimit="10" d="M537.5,1090.3H45.1c-2.2,0-4-1.8-4-4V884.1
		c0-2.2,1.8-4,4-4h492.4c2.2,0,4,1.8,4,4v202.2C541.5,1088.5,539.8,1090.3,537.5,1090.3z"/>
	<line fill="none" stroke="#000000" stroke-width="2" stroke-miterlimit="10" x1="41.1" y1="1032.4" x2="541.1" y2="1032.4"/>
	<line fill="none" stroke="#000000" stroke-width="2" stroke-miterlimit="10" x1="305.1" y1="1032.4" x2="305.1" y2="1091.4"/>
	<text transform="matrix(1 0 0 1 106.4045 1068.6185)" font-family="'MuseoSans-300'" font-size="21.171">2.3k Upvotes</text>
	<text transform="matrix(1 0 0 1 389.6994 1068.6185)" font-family="'MuseoSans-300'" font-size="21.171">Follow</text>
	<rect x="71.7" y="908.5" fill="none" width="438.8" height="92.4"/>
	<text transform="matrix(1 0 0 1 71.6711 923.3558)"><tspan x="0" y="0" font-family="'MuseoSans-300'" font-size="21.171">Other supporters of Indiana’s “Religious Free</tspan><tspan x="428.3" y="0" font-family="'MuseoSans-300'" font-size="21.171">-</tspan><tspan x="0" y="35.6" font-family="'MuseoSans-300'" font-size="21.171">dom Restoration Act” have made a simple </tspan><tspan x="0" y="71.2" font-family="'MuseoSans-300'" font-size="21.171">point?</tspan></text>
</g>
<g>
	<path fill="none" stroke="#000000" stroke-width="2" stroke-miterlimit="10" d="M537.5,1333.3H45.1c-2.2,0-4-1.8-4-4v-202.2
		c0-2.2,1.8-4,4-4h492.4c2.2,0,4,1.8,4,4v202.2C541.5,1331.5,539.8,1333.3,537.5,1333.3z"/>
	<line fill="none" stroke="#000000" stroke-width="2" stroke-miterlimit="10" x1="41.1" y1="1275.4" x2="541.1" y2="1275.4"/>
	<line fill="none" stroke="#000000" stroke-width="2" stroke-miterlimit="10" x1="305.1" y1="1275.4" x2="305.1" y2="1334.4"/>
	<text transform="matrix(1 0 0 1 106.4045 1311.6185)" font-family="'MuseoSans-300'" font-size="21.171">2.3k Upvotes</text>
	<text transform="matrix(1 0 0 1 389.6994 1311.6185)" font-family="'MuseoSans-300'" font-size="21.171">Follow</text>
	<rect x="71.7" y="1151.5" fill="none" width="438.8" height="92.4"/>
	<text transform="matrix(1 0 0 1 71.6711 1166.3558)"><tspan x="0" y="0" font-family="'MuseoSans-300'" font-size="21.171">Other supporters of Indiana’s “Religious Free</tspan><tspan x="428.3" y="0" font-family="'MuseoSans-300'" font-size="21.171">-</tspan><tspan x="0" y="35.6" font-family="'MuseoSans-300'" font-size="21.171">dom Restoration Act” have made a simple </tspan><tspan x="0" y="71.2" font-family="'MuseoSans-300'" font-size="21.171">point?</tspan></text>
</g>
</svg>
