<!-- Generator: Adobe Illustrator 18.1.1, SVG Export Plug-In  -->
<svg version="1.1"
	 xmlns="http://www.w3.org/2000/svg" xmlns:xlink="http://www.w3.org/1999/xlink" xmlns:a="http://ns.adobe.com/AdobeSVGViewerExtensions/3.0/"
	 x="0px" y="0px" width="600px" height="820.6px" viewBox="0 0 600 820.6" enable-background="new 0 0 600 820.6"
	 xml:space="preserve">
<defs>
</defs>
<rect x="0" y="0" fill="#FFFFFF" width="600" height="256.2"/>
<g>
	<g>
		<text transform="matrix(1 0 0 1 230.0921 310.4457)" font-family="'MuseoSans-900'" font-size="26">INSIGHTS</text>
	</g>
	<line fill="none" stroke="#000000" stroke-miterlimit="10" x1="27" y1="324.9" x2="558" y2="324.9"/>
</g>
<g>
	<g>
		<text transform="matrix(1 0 0 1 186.0618 628.4457)" font-family="'MuseoSans-900'" font-size="26">TOP QUESTIONS</text>
	</g>
	<line fill="none" stroke="#000000" stroke-miterlimit="10" x1="27" y1="642.9" x2="558" y2="642.9"/>
</g>
<g>
	<path fill="none" stroke="#000000" stroke-width="2" stroke-miterlimit="10" d="M548.3,391.4h-512c-2.2,0-4-1.8-4-4v-40
		c0-2.2,1.8-4,4-4h512c2.2,0,4,1.8,4,4v40C552.3,389.7,550.5,391.4,548.3,391.4z"/>
	<path fill="#494949" d="M546.1,388.6h-34.8c-1.5,0-2.7-1.2-2.7-2.7v-36.2c0-1.5,1.2-2.7,2.7-2.7h34.8c1.5,0,2.7,1.2,2.7,2.7v36.2
		C548.8,387.4,547.6,388.6,546.1,388.6z"/>
	<text transform="matrix(1 0 0 1 41.3005 376.0002)" font-family="'MuseoSans-300'" font-size="26">Trusted Article</text>
	<text transform="matrix(1 0 0 1 517.9815 372.132)" fill="#FFFFFF" font-family="'MuseoSans-300'" font-size="15.5627">12k</text>
</g>
<g>
	<path fill="none" stroke="#000000" stroke-width="2" stroke-miterlimit="10" d="M548.3,447.8h-512c-2.2,0-4-1.8-4-4v-40
		c0-2.2,1.8-4,4-4h512c2.2,0,4,1.8,4,4v40C552.3,446,550.5,447.8,548.3,447.8z"/>
	<path fill="#494949" d="M546.1,445h-34.8c-1.5,0-2.7-1.2-2.7-2.7v-36.2c0-1.5,1.2-2.7,2.7-2.7h34.8c1.5,0,2.7,1.2,2.7,2.7v36.2
		C548.8,443.8,547.6,445,546.1,445z"/>
	<text transform="matrix(1 0 0 1 41.3005 432.3552)" font-family="'MuseoSans-300'" font-size="26">Favors Students</text>
	<text transform="matrix(1 0 0 1 516.9808 428.487)" fill="#FFFFFF" font-family="'MuseoSans-300'" font-size="15.5627">22k</text>
</g>
<g>
	<path fill="none" stroke="#000000" stroke-width="2" stroke-miterlimit="10" d="M548.3,504.2h-512c-2.2,0-4-1.8-4-4v-40
		c0-2.2,1.8-4,4-4h512c2.2,0,4,1.8,4,4v40C552.3,502.4,550.5,504.2,548.3,504.2z"/>
	<path fill="#494949" d="M546.1,501.3h-34.8c-1.5,0-2.7-1.2-2.7-2.7v-36.2c0-1.5,1.2-2.7,2.7-2.7h34.8c1.5,0,2.7,1.2,2.7,2.7v36.2
		C548.8,500.1,547.6,501.3,546.1,501.3z"/>
	<text transform="matrix(1 0 0 1 41.3005 488.7101)" font-family="'MuseoSans-300'" font-size="26">Right Leaning</text>
	<text transform="matrix(1 0 0 1 516.9808 484.842)" fill="#FFFFFF" font-family="'MuseoSans-300'" font-size="15.5627">42k</text>
</g>
<g>
	<path fill="none" stroke="#000000" stroke-width="2" stroke-miterlimit="10" d="M548.3,560.5h-512c-2.2,0-4-1.8-4-4v-40
		c0-2.2,1.8-4,4-4h512c2.2,0,4,1.8,4,4v40C552.3,558.7,550.5,560.5,548.3,560.5z"/>
	<path fill="#494949" d="M546.1,557.7h-34.8c-1.5,0-2.7-1.2-2.7-2.7v-36.2c0-1.5,1.2-2.7,2.7-2.7h34.8c1.5,0,2.7,1.2,2.7,2.7V555
		C548.8,556.5,547.6,557.7,546.1,557.7z"/>
	<text transform="matrix(1 0 0 1 41.3005 545.0651)" font-family="'MuseoSans-300'" font-size="26">Good Read</text>
	<text transform="matrix(1 0 0 1 516.9808 541.197)" fill="#FFFFFF" font-family="'MuseoSans-300'" font-size="15.5627">10k</text>
</g>
<g>
	<path fill="none" stroke="#000000" stroke-width="2" stroke-miterlimit="10" d="M547.3,819.6h-512c-2.2,0-4-1.8-4-4V674.1
		c0-2.2,1.8-4,4-4h512c2.2,0,4,1.8,4,4v141.6C551.3,817.9,549.5,819.6,547.3,819.6z"/>
	<line fill="none" stroke="#000000" stroke-miterlimit="10" x1="31" y1="760.9" x2="551" y2="760.9"/>
	<text transform="matrix(1 0 0 1 220.0443 797.5917)" font-family="'MuseoSans-700'" font-size="22">Ask Questions</text>
</g>
<rect x="53.3" y="697.9" fill="none" width="469.7" height="67"/>
<text transform="matrix(1 0 0 1 53.307 709.1537)"><tspan x="0" y="0" font-family="'MuseoSlab-500Italic'" font-size="16">It’s been four months. Why hasn’t the University President </tspan><tspan x="0" y="26" font-family="'MuseoSlab-500Italic'" font-size="16">released a statment?</tspan></text>
</svg>
