<!-- Generator: Adobe Illustrator 18.1.1, SVG Export Plug-In  -->
<svg version="1.1"
	 xmlns="http://www.w3.org/2000/svg" xmlns:xlink="http://www.w3.org/1999/xlink" xmlns:a="http://ns.adobe.com/AdobeSVGViewerExtensions/3.0/"
	 x="0px" y="0px" width="600px" height="256.2px" viewBox="0 0 600 256.2" enable-background="new 0 0 600 256.2"
	 xml:space="preserve">
<defs>
</defs>
<g>
	<rect x="0" y="0" fill="#C14237" width="600" height="256.2"/>
</g>
<g>
	<rect x="0" y="50.2" fill="#494949" width="600" height="206"/>
</g>
<g>
	<path fill="#FFFFFF" d="M28.8,85.8H33v10.8c0,1.8,1.2,2.8,3,2.8c1.8,0,3-1,3-2.8V85.8h4.2v10.8c0,3.9-2.8,6.6-7.2,6.6
		c-4.4,0-7.2-2.7-7.2-6.6V85.8z"/>
	<path fill="#FFFFFF" d="M46.3,90.6h4v1.1c0,0.4,0,0.8,0,0.8h0c0.6-1,1.8-2.1,3.9-2.1c2.5,0,4.4,1.2,4.4,4.6v8h-4.2v-7.2
		c0-1.2-0.5-1.6-1.4-1.6c-1.3,0-2.1,0.7-2.4,1.8c-0.2,0.5-0.2,1-0.2,1.6v5.5h-4.2V90.6z"/>
	<path fill="#FFFFFF" d="M61.6,90.6h4.2v12.4h-4.2V90.6z M61.7,85.8h4.1V89h-4.1V85.8z"/>
	<path fill="#FFFFFF" d="M67.3,90.6h4.4l1.9,6.6c0.2,0.8,0.5,2.1,0.5,2.1h0c0,0,0.2-1.3,0.5-2.1l1.9-6.6h4.4l-4.2,12.4h-5.1
		L67.3,90.6z"/>
	<path fill="#FFFFFF" d="M87.9,90.3c3.6,0,5.7,2.5,5.7,6c0,0.4-0.1,1.3-0.1,1.3h-7.8c0.3,1.5,1.6,2.2,2.9,2.2c1.8,0,3.4-1.2,3.4-1.2
		l1.5,2.9c0,0-2,1.8-5.3,1.8c-4.4,0-6.8-3.2-6.8-6.5C81.4,93.1,83.9,90.3,87.9,90.3z M89.4,95.2c0-0.9-0.6-1.8-1.6-1.8
		c-1.2,0-1.8,0.9-2,1.8H89.4z"/>
	<path fill="#FFFFFF" d="M95.8,90.6h4v2.1c0,0.4,0,0.8,0,0.8h0c0.5-1.7,2.1-3.1,3.9-3.1c0.2,0,0.5,0,0.5,0v4.1c0,0-0.3-0.1-0.8-0.1
		c-1,0-2.6,0.3-3.2,2.2c-0.1,0.5-0.2,1-0.2,1.7v4.7h-4.2V90.6z"/>
	<path fill="#FFFFFF" d="M107,98.6c0,0,1.4,1.2,3.1,1.2c0.6,0,1.2-0.2,1.2-0.6c0-1.1-5.8-1.2-5.8-5.2c0-2.3,2.2-3.8,5.1-3.8
		c2.9,0,4.3,1.4,4.3,1.4l-1.4,3c0,0-1.2-1-2.9-1c-0.6,0-1.2,0.2-1.2,0.6c0,0.9,5.8,1.1,5.8,5.1c0,2.1-1.9,3.9-5.1,3.9
		c-3.1,0-4.9-1.8-4.9-1.8L107,98.6z"/>
	<path fill="#FFFFFF" d="M117.5,90.6h4.2v12.4h-4.2V90.6z M117.5,85.8h4.1V89h-4.1V85.8z"/>
	<path fill="#FFFFFF" d="M125.3,94h-1.6v-3.2h1.7v-3.6h4v3.6h2.6V94h-2.6v3.8c0,1.4,1.4,1.6,2.2,1.6c0.3,0,0.6,0,0.6,0v3.6
		c0,0-0.5,0.1-1.1,0.1c-2,0-5.8-0.5-5.8-4.7V94z"/>
	<path fill="#FFFFFF" d="M134.5,104.1c0,0,0.7,0.5,1.3,0.5c0.7,0,1.6-0.2,2-1.2l0.2-0.6l-5.3-12.1h4.7l1.8,5.7
		c0.2,0.7,0.5,1.9,0.5,1.9h0c0,0,0.2-1.2,0.4-1.8l1.6-5.8h4.5l-5.1,13.7c-1,2.8-3.2,3.7-5.2,3.7c-1.6,0-2.9-0.9-2.9-0.9L134.5,104.1
		z"/>
	<path fill="#FFFFFF" d="M154.7,97.6c0,0,1.9,1.8,4.1,1.8c0.9,0,1.8-0.3,1.8-1.4c0-2-7.7-2-7.7-7.2c0-3.2,2.7-5.3,6.1-5.3
		c3.7,0,5.5,1.9,5.5,1.9l-1.8,3.4c0,0-1.7-1.5-3.8-1.5c-0.9,0-1.8,0.4-1.8,1.3c0,2.2,7.7,1.8,7.7,7.2c0,2.9-2.2,5.3-6,5.3
		c-4,0-6.3-2.4-6.3-2.4L154.7,97.6z"/>
	<path fill="#FFFFFF" d="M167.8,94h-1.6v-3.2h1.7v-3.6h4v3.6h2.6V94h-2.6v3.8c0,1.4,1.4,1.6,2.2,1.6c0.3,0,0.6,0,0.6,0v3.6
		c0,0-0.5,0.1-1.1,0.1c-2,0-5.8-0.5-5.8-4.7V94z"/>
	<path fill="#FFFFFF" d="M177,90.6h4.2v7.2c0,1.2,0.5,1.6,1.3,1.6c1.8,0,2.6-1.6,2.6-3.4v-5.5h4.2v12.4h-4v-1.1c0-0.4,0-0.8,0-0.8h0
		c-0.7,1.3-2.2,2.1-3.9,2.1c-2.4,0-4.4-1.2-4.4-4.6V90.6z"/>
	<path fill="#FFFFFF" d="M197.1,90.3c2.5,0,3.2,1,3.2,1h0c0,0,0-0.2,0-0.6v-4.9h4.2v17.2h-3.9v-0.8c0-0.4,0-0.7,0-0.7h0
		c0,0-1,1.8-3.6,1.8c-3.4,0-5.6-2.6-5.6-6.5C191.4,92.8,193.8,90.3,197.1,90.3z M198,99.8c1.2,0,2.4-0.9,2.4-3c0-1.5-0.8-3-2.4-3
		c-1.3,0-2.4,1.1-2.4,3C195.6,98.6,196.6,99.8,198,99.8z"/>
	<path fill="#FFFFFF" d="M213.1,90.3c3.6,0,5.7,2.5,5.7,6c0,0.4-0.1,1.3-0.1,1.3h-7.8c0.3,1.5,1.6,2.2,2.9,2.2
		c1.8,0,3.4-1.2,3.4-1.2l1.5,2.9c0,0-2,1.8-5.3,1.8c-4.4,0-6.8-3.2-6.8-6.5C206.7,93.1,209.1,90.3,213.1,90.3z M214.6,95.2
		c0-0.9-0.6-1.8-1.6-1.8c-1.2,0-1.8,0.9-2,1.8H214.6z"/>
	<path fill="#FFFFFF" d="M221.1,90.6h4v1.1c0,0.4,0,0.8,0,0.8h0c0.6-1,1.8-2.1,3.9-2.1c2.5,0,4.4,1.2,4.4,4.6v8h-4.2v-7.2
		c0-1.2-0.5-1.6-1.4-1.6c-1.3,0-2.1,0.7-2.4,1.8c-0.2,0.5-0.2,1-0.2,1.6v5.5h-4.2V90.6z"/>
	<path fill="#FFFFFF" d="M237,94h-1.6v-3.2h1.7v-3.6h4v3.6h2.6V94h-2.6v3.8c0,1.4,1.4,1.6,2.2,1.6c0.3,0,0.6,0,0.6,0v3.6
		c0,0-0.5,0.1-1.1,0.1c-2,0-5.8-0.5-5.8-4.7V94z"/>
	<path fill="#FFFFFF" d="M247.1,98.6c0,0,1.4,1.2,3.1,1.2c0.6,0,1.2-0.2,1.2-0.6c0-1.1-5.8-1.2-5.8-5.2c0-2.3,2.2-3.8,5.1-3.8
		c2.9,0,4.3,1.4,4.3,1.4l-1.4,3c0,0-1.2-1-2.9-1c-0.6,0-1.2,0.2-1.2,0.6c0,0.9,5.8,1.1,5.8,5.1c0,2.1-1.9,3.9-5.1,3.9
		c-3.1,0-4.9-1.8-4.9-1.8L247.1,98.6z"/>
	<path fill="#FFFFFF" d="M263.6,85.8h6c1.8,0,2.6,0.1,3.3,0.4c1.9,0.7,3.2,2.5,3.2,5c0,1.8-0.9,3.8-2.6,4.7v0c0,0,0.2,0.3,0.6,1
		l3.3,6h-4.7l-3-5.8h-2v5.8h-4.2V85.8z M269.6,93.6c1.3,0,2.2-0.7,2.2-2.1c0-1.3-0.5-2.1-2.6-2.1h-1.4v4.2H269.6z"/>
	<path fill="#FFFFFF" d="M285,90.3c3.6,0,5.7,2.5,5.7,6c0,0.4-0.1,1.3-0.1,1.3h-7.8c0.3,1.5,1.6,2.2,2.9,2.2c1.8,0,3.4-1.2,3.4-1.2
		l1.5,2.9c0,0-2,1.8-5.3,1.8c-4.4,0-6.8-3.2-6.8-6.5C278.5,93.1,281,90.3,285,90.3z M286.5,95.2c0-0.9-0.6-1.8-1.6-1.8
		c-1.2,0-1.8,0.9-2,1.8H286.5z"/>
	<path fill="#FFFFFF" d="M293.7,98.6c0,0,1.4,1.2,3.1,1.2c0.6,0,1.2-0.2,1.2-0.6c0-1.1-5.8-1.2-5.8-5.2c0-2.3,2.2-3.8,5.1-3.8
		c2.9,0,4.3,1.4,4.3,1.4l-1.4,3c0,0-1.2-1-2.9-1c-0.6,0-1.2,0.2-1.2,0.6c0,0.9,5.8,1.1,5.8,5.1c0,2.1-1.9,3.9-5.1,3.9
		c-3.1,0-4.9-1.8-4.9-1.8L293.7,98.6z"/>
	<path fill="#FFFFFF" d="M304.2,90.6h3.7v0.6c0,0.4,0,0.8,0,0.8h0c0,0,1.1-1.7,3.7-1.7c3.4,0,5.6,2.6,5.6,6.5c0,3.9-2.5,6.5-5.8,6.5
		c-2,0-3.1-1.2-3.1-1.2h0c0,0,0,0.4,0,1.1v4.6h-4.2V90.6z M310.7,99.8c1.3,0,2.4-1.1,2.4-3c0-1.8-1-3-2.4-3c-1.2,0-2.4,0.9-2.4,3
		C308.3,98.3,309,99.8,310.7,99.8z"/>
	<path fill="#FFFFFF" d="M325.6,90.3c3.9,0,7,2.6,7,6.5c0,3.9-3.1,6.4-7,6.4s-7-2.6-7-6.4C318.6,92.9,321.7,90.3,325.6,90.3z
		 M325.6,99.8c1.5,0,2.8-1.1,2.8-3c0-1.9-1.3-3-2.8-3c-1.5,0-2.8,1.2-2.8,3C322.8,98.6,324.1,99.8,325.6,99.8z"/>
	<path fill="#FFFFFF" d="M334.8,90.6h4v1.1c0,0.4,0,0.8,0,0.8h0c0.6-1,1.8-2.1,3.9-2.1c2.5,0,4.4,1.2,4.4,4.6v8H343v-7.2
		c0-1.2-0.5-1.6-1.4-1.6c-1.3,0-2.1,0.7-2.4,1.8c-0.2,0.5-0.2,1-0.2,1.6v5.5h-4.2V90.6z"/>
	<path fill="#FFFFFF" d="M354.8,90.3c2.5,0,3.2,1,3.2,1h0c0,0,0-0.2,0-0.6v-4.9h4.2v17.2h-3.9v-0.8c0-0.4,0-0.7,0-0.7h0
		c0,0-1,1.8-3.6,1.8c-3.4,0-5.6-2.6-5.6-6.5C349.2,92.8,351.6,90.3,354.8,90.3z M355.8,99.8c1.2,0,2.4-0.9,2.4-3c0-1.5-0.8-3-2.4-3
		c-1.3,0-2.4,1.1-2.4,3C353.4,98.6,354.4,99.8,355.8,99.8z"/>
	<path fill="#FFFFFF" d="M371.4,94h-1.6v-3.2h1.7v-3.6h4v3.6h2.6V94h-2.6v3.8c0,1.4,1.4,1.6,2.2,1.6c0.3,0,0.6,0,0.6,0v3.6
		c0,0-0.5,0.1-1.1,0.1c-2,0-5.8-0.5-5.8-4.7V94z"/>
	<path fill="#FFFFFF" d="M386.9,90.3c3.9,0,7,2.6,7,6.5c0,3.9-3.1,6.4-7,6.4s-7-2.6-7-6.4C379.9,92.9,383,90.3,386.9,90.3z
		 M386.9,99.8c1.5,0,2.8-1.1,2.8-3c0-1.9-1.3-3-2.8-3c-1.5,0-2.8,1.2-2.8,3C384.1,98.6,385.4,99.8,386.9,99.8z"/>
	<path fill="#FFFFFF" d="M402,85.8h6c1.8,0,2.6,0.1,3.3,0.4c1.9,0.7,3.2,2.5,3.2,5c0,1.8-0.9,3.8-2.6,4.7v0c0,0,0.2,0.3,0.6,1l3.3,6
		h-4.7l-3-5.8h-2v5.8H402V85.8z M408,93.6c1.3,0,2.2-0.7,2.2-2.1c0-1.3-0.5-2.1-2.6-2.1h-1.4v4.2H408z"/>
	<path fill="#FFFFFF" d="M424.2,95.2h0.2V95c0-1-0.8-1.4-1.8-1.4c-1.6,0-3.3,1.2-3.3,1.2l-1.4-2.9c0,0,2.1-1.6,5.2-1.6
		c3.5,0,5.6,1.9,5.6,5v7.6h-3.8v-0.7c0-0.4,0-0.8,0-0.8h0c0,0-0.9,1.8-3.5,1.8c-2.3,0-4.2-1.5-4.2-4C417,95.6,422.3,95.2,424.2,95.2
		z M422.4,100.1c1.1,0,2-1.2,2-2.2v-0.3h-0.4c-1.3,0-2.8,0.4-2.8,1.4C421.2,99.6,421.6,100.1,422.4,100.1z"/>
	<path fill="#FFFFFF" d="M436.2,90.3c2.5,0,3.2,1,3.2,1h0c0,0,0-0.2,0-0.6v-4.9h4.2v17.2h-3.9v-0.8c0-0.4,0-0.7,0-0.7h0
		c0,0-1,1.8-3.6,1.8c-3.4,0-5.6-2.6-5.6-6.5C430.6,92.8,432.9,90.3,436.2,90.3z M437.2,99.8c1.2,0,2.4-0.9,2.4-3c0-1.5-0.8-3-2.4-3
		c-1.3,0-2.4,1.1-2.4,3C434.8,98.6,435.7,99.8,437.2,99.8z"/>
	<path fill="#FFFFFF" d="M446.7,90.6h4.2v12.4h-4.2V90.6z M446.8,85.8h4.1V89h-4.1V85.8z"/>
	<path fill="#FFFFFF" d="M459.9,90.3c3.4,0,4.9,1.9,4.9,1.9l-1.8,2.8c0,0-1.2-1.2-2.9-1.2c-2,0-3,1.5-3,3c0,1.5,1,3.1,3.1,3.1
		c1.7,0,3.4-1.5,3.4-1.5l1.5,2.9c0,0-1.8,2-5.3,2c-4.4,0-6.9-3.1-6.9-6.5C453,93.4,455.5,90.3,459.9,90.3z"/>
	<path fill="#FFFFFF" d="M473.4,95.2h0.2V95c0-1-0.8-1.4-1.8-1.4c-1.6,0-3.3,1.2-3.3,1.2l-1.4-2.9c0,0,2.1-1.6,5.2-1.6
		c3.5,0,5.6,1.9,5.6,5v7.6h-3.8v-0.7c0-0.4,0-0.8,0-0.8h0c0,0-0.9,1.8-3.5,1.8c-2.3,0-4.2-1.5-4.2-4
		C466.2,95.6,471.5,95.2,473.4,95.2z M471.6,100.1c1.1,0,2-1.2,2-2.2v-0.3h-0.4c-1.3,0-2.8,0.4-2.8,1.4
		C470.4,99.6,470.8,100.1,471.6,100.1z"/>
	<path fill="#FFFFFF" d="M480.4,85.8h4.2v12c0,1.2,0.2,1.6,1.2,1.6c0.3,0,0.5,0,0.5,0v3.6c0,0-0.6,0.1-1.2,0.1
		c-2.2,0-4.6-0.5-4.6-4.7V85.8z"/>
	<path fill="#FFFFFF" d="M29,122.8h4.2l4.8,8c0.7,1.1,1.4,2.9,1.4,2.9h0c0,0-0.2-1.8-0.2-2.9v-8h4.2v17.2h-4.2l-4.8-8
		c-0.7-1.1-1.4-2.9-1.4-2.9h0c0,0,0.2,1.8,0.2,2.9v8H29V122.8z"/>
	<path fill="#FFFFFF" d="M52.6,127.3c3.6,0,5.7,2.5,5.7,6c0,0.4-0.1,1.3-0.1,1.3h-7.8c0.3,1.5,1.6,2.2,2.9,2.2
		c1.8,0,3.4-1.2,3.4-1.2l1.5,2.9c0,0-2,1.8-5.3,1.8c-4.4,0-6.8-3.2-6.8-6.5C46.2,130.1,48.6,127.3,52.6,127.3z M54.1,132.2
		c0-0.9-0.6-1.8-1.6-1.8c-1.2,0-1.8,0.9-2,1.8H54.1z"/>
	<path fill="#FFFFFF" d="M59.3,127.6h4.4l1.5,7.3c0.1,0.7,0.1,1.3,0.1,1.3h0c0,0,0-0.6,0.2-1.3l1.7-7.3h3.6l1.7,7.3
		c0.2,0.7,0.2,1.3,0.2,1.3h0c0,0,0-0.6,0.2-1.3l1.5-7.3h4.3l-3.5,12.4h-4.6l-1.4-5.7c-0.2-0.7-0.2-1.3-0.2-1.3h0
		c0,0-0.1,0.6-0.2,1.3l-1.4,5.7h-4.7L59.3,127.6z"/>
	<path fill="#FFFFFF" d="M90,126.4h-5.2v-3.6h14.6v3.6h-5.2v13.6H90V126.4z"/>
	<path fill="#FFFFFF" d="M100,127.6h4.2v7.2c0,1.2,0.5,1.6,1.3,1.6c1.8,0,2.6-1.6,2.6-3.4v-5.5h4.2v12.4h-4v-1.1c0-0.4,0-0.8,0-0.8
		h0c-0.7,1.3-2.2,2.1-3.9,2.1c-2.4,0-4.4-1.2-4.4-4.6V127.6z"/>
	<path fill="#FFFFFF" d="M115.3,127.6h4.2v12.4h-4.2V127.6z M115.4,122.8h4.1v3.2h-4.1V122.8z"/>
	<path fill="#FFFFFF" d="M123.2,131h-1.6v-3.2h1.7v-3.6h4v3.6h2.6v3.2h-2.6v3.8c0,1.4,1.4,1.6,2.2,1.6c0.3,0,0.6,0,0.6,0v3.6
		c0,0-0.5,0.1-1.1,0.1c-2,0-5.8-0.5-5.8-4.7V131z"/>
	<path fill="#FFFFFF" d="M132.5,127.6h4.2v12.4h-4.2V127.6z M132.6,122.8h4.1v3.2h-4.1V122.8z"/>
	<path fill="#FFFFFF" d="M145.8,127.3c3.9,0,7,2.6,7,6.5c0,3.9-3.1,6.4-7,6.4s-7-2.6-7-6.4C138.8,129.9,142,127.3,145.8,127.3z
		 M145.9,136.8c1.5,0,2.8-1.1,2.8-3c0-1.9-1.3-3-2.8-3c-1.5,0-2.8,1.2-2.8,3C143,135.6,144.3,136.8,145.9,136.8z"/>
	<path fill="#FFFFFF" d="M155,127.6h4v1.1c0,0.4,0,0.8,0,0.8h0c0.6-1,1.8-2.1,3.9-2.1c2.5,0,4.4,1.2,4.4,4.6v8h-4.2v-7.2
		c0-1.2-0.5-1.6-1.4-1.6c-1.3,0-2.1,0.7-2.4,1.8c-0.2,0.5-0.2,1-0.2,1.6v5.5H155V127.6z"/>
	<path fill="#FFFFFF" d="M176.3,122.8h7.1c3.3,0,5.6,2.4,5.6,5.9c0,3.5-2.3,6-5.6,6h-2.9v5.3h-4.2V122.8z M182.5,131
		c1.5,0,2.2-1,2.2-2.4c0-1.4-0.7-2.3-2.1-2.3h-2.1v4.7H182.5z"/>
	<path fill="#FFFFFF" d="M197.1,127.3c3.9,0,7,2.6,7,6.5c0,3.9-3.1,6.4-7,6.4s-7-2.6-7-6.4C190.1,129.9,193.2,127.3,197.1,127.3z
		 M197.1,136.8c1.5,0,2.8-1.1,2.8-3c0-1.9-1.3-3-2.8-3c-1.5,0-2.8,1.2-2.8,3C194.3,135.6,195.6,136.8,197.1,136.8z"/>
	<path fill="#FFFFFF" d="M206.1,122.8h4.2v12c0,1.2,0.2,1.6,1.2,1.6c0.3,0,0.5,0,0.5,0v3.6c0,0-0.6,0.1-1.2,0.1
		c-2.2,0-4.6-0.5-4.6-4.7V122.8z"/>
	<path fill="#FFFFFF" d="M214,127.6h4.2v12.4H214V127.6z M214.1,122.8h4.1v3.2h-4.1V122.8z"/>
	<path fill="#FFFFFF" d="M227.2,127.3c3.4,0,4.9,1.9,4.9,1.9l-1.8,2.8c0,0-1.2-1.2-2.9-1.2c-2,0-3,1.5-3,3c0,1.5,1,3.1,3.1,3.1
		c1.7,0,3.4-1.5,3.4-1.5l1.5,2.9c0,0-1.8,2-5.3,2c-4.4,0-6.9-3.1-6.9-6.5C220.3,130.4,222.8,127.3,227.2,127.3z"/>
	<path fill="#FFFFFF" d="M234.3,141.1c0,0,0.7,0.5,1.3,0.5c0.7,0,1.6-0.2,2-1.2l0.2-0.6l-5.3-12.1h4.7l1.8,5.7
		c0.2,0.7,0.5,1.9,0.5,1.9h0c0,0,0.2-1.2,0.4-1.8l1.6-5.8h4.5l-5.1,13.7c-1,2.8-3.2,3.7-5.2,3.7c-1.6,0-2.9-0.9-2.9-0.9L234.3,141.1
		z"/>
	<path fill="#FFFFFF" d="M253.5,131.9h13.3v2.4h-13.3V131.9z"/>
	<path fill="#FFFFFF" d="M275.1,138.1h2.1l2.6-13.2h-2.1l0.4-1.8h6.4l-0.4,1.8h-1.9l-1,5.3h2.1l4.7-5.3h-1.4l0.4-1.8h5.7l-0.4,1.8
		h-1.6l-5.6,6.2v0c0,0,0.4,0.2,0.7,1l1.9,4.9c0.2,0.7,0.5,1.1,1.4,1.1c0.3,0,0.7,0,0.7,0l-0.4,1.9c-0.2,0-0.8,0-1.2,0
		c-1.9,0-2.5-1-3-2.3l-1.8-4.8c-0.2-0.6-0.5-0.8-1.2-0.8h-1.4l-1.2,5.9h2.1l-0.4,1.9h-6.6L275.1,138.1z"/>
	<path fill="#FFFFFF" d="M295.1,124.8h-1.9l0.3-1.8h4.3l-1.2,6.3c-0.1,0.6-0.3,1.1-0.3,1.1h0c0.4-0.7,2.2-2.8,5-2.8
		c2.1,0,3.4,1.1,3.4,3.2c0,1.5-1.1,5.5-1.1,6.4c0,0.9,0.5,1.1,1.1,1.1c0.3,0,0.6,0,0.6,0l-0.4,1.8c0,0-0.5,0-1,0
		c-1.1,0-2.7-0.2-2.7-2.3c0-1.2,1-5.1,1-6.3c0-1.2-0.6-1.8-1.8-1.8c-2.4,0-4.4,2.3-4.9,4.8l-1.1,5.4h-2.3L295.1,124.8z"/>
	<path fill="#FFFFFF" d="M315,132.5h0.6c0,0,0.2-0.8,0.2-1.2c0-1.1-0.6-1.8-2.2-1.8c-1.9,0-3.6,1.2-3.6,1.2l-0.6-1.8
		c0,0,2.1-1.3,4.6-1.3c2.3,0,4.1,1,4.1,3.5c0,1.4-1.1,5.1-1.1,6.1c0,0.9,0.5,1.1,1.1,1.1c0.3,0,0.6,0,0.6,0l-0.3,1.8
		c0,0-0.4,0-1.1,0c-1.4,0-2.5-0.6-2.5-2.2h0c0,0-1.6,2.4-4.3,2.4c-1.9,0-3.5-1.1-3.5-3.1C306.9,133.3,311.7,132.5,315,132.5z
		 M311.1,138.4c2,0,3.7-2.2,4.1-4l0.1-0.5h-0.6c-1.7,0-5.5,0.2-5.5,2.8C309.2,137.7,309.8,138.4,311.1,138.4z"/>
	<path fill="#FFFFFF" d="M321.4,136.5l2.3-11.7h-2l0.4-1.8h4.3l-2.5,13.3c-0.1,0.3-0.1,0.6-0.1,0.8c0,0.9,0.5,1,1.1,1
		c0.4,0,0.6,0,0.6,0L325,140c0,0-0.5,0-1,0c-1.2,0-2.7-0.3-2.7-2.4C321.3,137.3,321.3,136.9,321.4,136.5z"/>
	<path fill="#FFFFFF" d="M328.9,136.6l1.4-7h-2l0.4-1.8h4.3l-1.7,8.6c0,0.3-0.1,0.5-0.1,0.7c0,0.9,0.5,1.1,1.1,1.1
		c0.3,0,0.6,0,0.6,0l-0.3,1.8c0,0-0.6,0-1,0c-1.2,0-2.8-0.2-2.8-2.3C328.8,137.4,328.8,137,328.9,136.6z M331.5,123h2.4l-0.5,2.4
		H331L331.5,123z"/>
	<path fill="#FFFFFF" d="M335.8,136.5l2.3-11.7h-2l0.4-1.8h4.3l-2.5,13.3c-0.1,0.3-0.1,0.6-0.1,0.8c0,0.9,0.5,1,1.1,1
		c0.4,0,0.6,0,0.6,0l-0.4,1.9c0,0-0.5,0-1,0c-1.2,0-2.7-0.3-2.7-2.4C335.6,137.3,335.7,136.9,335.8,136.5z"/>
	<path fill="#FFFFFF" d="M351.1,124.8h-1.6l0.4-1.8h6l-0.4,1.8h-2l0.5,11.1c0,0.6-0.1,1.3-0.1,1.3h0.1c0,0,0.2-0.7,0.5-1.3l6.1-13h2
		l1,13c0,0.6,0,1.3,0,1.3h0.1c0,0,0.2-0.7,0.4-1.3l4.8-11.1h-2l0.4-1.8h6.1l-0.4,1.8h-1.6l-6.7,15.1h-2.7l-1-12c0-0.6,0-1.3,0-1.3
		h-0.1c0,0-0.2,0.7-0.5,1.3l-5.6,12h-2.7L351.1,124.8z"/>
	<path fill="#FFFFFF" d="M373.4,136.6l1.4-7h-2l0.4-1.8h4.3l-1.7,8.6c0,0.3-0.1,0.5-0.1,0.7c0,0.9,0.5,1.1,1.1,1.1
		c0.3,0,0.6,0,0.6,0l-0.3,1.8c0,0-0.6,0-1,0c-1.2,0-2.8-0.2-2.8-2.3C373.3,137.4,373.3,137,373.4,136.6z M376,123h2.4l-0.5,2.4h-2.4
		L376,123z"/>
	<path fill="#FFFFFF" d="M380.3,136.5l2.3-11.7h-2l0.4-1.8h4.3l-2.5,13.3c-0.1,0.3-0.1,0.6-0.1,0.8c0,0.9,0.5,1,1.1,1
		c0.4,0,0.6,0,0.6,0l-0.4,1.9c0,0-0.5,0-1,0c-1.2,0-2.7-0.3-2.7-2.4C380.1,137.3,380.2,136.9,380.3,136.5z"/>
	<path fill="#FFFFFF" d="M387.1,136.5l2.3-11.7h-2l0.4-1.8h4.3l-2.5,13.3c-0.1,0.3-0.1,0.6-0.1,0.8c0,0.9,0.5,1,1.1,1
		c0.4,0,0.6,0,0.6,0l-0.4,1.9c0,0-0.5,0-1,0c-1.2,0-2.7-0.3-2.7-2.4C387,137.3,387.1,136.9,387.1,136.5z"/>
	<path fill="#FFFFFF" d="M394.6,136.6l1.4-7h-2l0.4-1.8h4.3l-1.7,8.6c0,0.3-0.1,0.5-0.1,0.7c0,0.9,0.5,1.1,1.1,1.1
		c0.3,0,0.6,0,0.6,0l-0.3,1.8c0,0-0.6,0-1,0c-1.2,0-2.8-0.2-2.8-2.3C394.5,137.4,394.6,137,394.6,136.6z M397.2,123h2.4l-0.5,2.4
		h-2.4L397.2,123z"/>
	<path fill="#FFFFFF" d="M408.6,132.5h0.6c0,0,0.2-0.8,0.2-1.2c0-1.1-0.6-1.8-2.2-1.8c-1.9,0-3.6,1.2-3.6,1.2l-0.6-1.8
		c0,0,2.1-1.3,4.6-1.3c2.3,0,4.1,1,4.1,3.5c0,1.4-1.1,5.1-1.1,6.1c0,0.9,0.5,1.1,1.1,1.1c0.3,0,0.6,0,0.6,0l-0.3,1.8
		c0,0-0.4,0-1.1,0c-1.4,0-2.5-0.6-2.5-2.2h0c0,0-1.6,2.4-4.3,2.4c-1.9,0-3.5-1.1-3.5-3.1C400.4,133.3,405.3,132.5,408.6,132.5z
		 M404.6,138.4c2,0,3.7-2.2,4.1-4l0.1-0.5h-0.6c-1.7,0-5.5,0.2-5.5,2.8C402.7,137.7,403.3,138.4,404.6,138.4z"/>
	<path fill="#FFFFFF" d="M416.9,130.1c0-0.3,0-0.5-0.4-0.5H415l0.4-1.8h2.7c1,0,1.3,0.4,1.3,1c0,0.3-0.2,1.2-0.4,1.7h0
		c0.6-1.1,2.5-3,4.8-3c1.9,0,2.9,1,3,3h0c0.9-1.7,2.8-3,4.8-3c2.1,0,3.3,1.2,3.3,3.2c0,1.4-1.1,5.4-1.1,6.4c0,0.9,0.5,1.1,1.1,1.1
		c0.3,0,0.6,0,0.6,0l-0.4,1.8c0,0-0.5,0-1,0c-1.1,0-2.7-0.2-2.7-2.3c0-1.1,1-5.2,1-6.3c0-1.1-0.4-1.8-1.8-1.8c-2.3,0-4,2.4-4.4,4.8
		l-1.1,5.5h-2.3l1.4-7.3c0.1-0.5,0.2-1,0.2-1.4c0-1-0.4-1.7-1.7-1.7c-2.3,0-4.1,2.5-4.6,4.9l-1.1,5.4H415L416.9,130.1z"/>
	<path fill="#FFFFFF" d="M437.6,136h2l-0.1,0.8c-0.3,1.3,1.7,1.5,2.6,1.5c1.5,0,2.8-0.7,2.8-1.8c0-2.3-5.8-1.6-5.8-5.3
		c0-2.5,2.6-3.7,5.2-3.7c2,0,4.1,0.8,3.8,2.6l-0.3,1.3h-2l0.2-0.9c0.2-1-1.1-1.2-2-1.2c-1.3,0-2.5,0.6-2.5,1.7
		c0,2.3,5.8,1.6,5.8,5.2c0,2.4-2.2,4-5.4,4c-2.1,0-4.8-0.8-4.4-3L437.6,136z"/>
</g>
<g>
	<g>
		<path fill="#FFFFFF" d="M55.4,194.4H54v-3h1.4v-0.5c0-3.7,3.4-4.2,5.2-4.2c0.7,0,1.1,0.1,1.1,0.1v3.2c0,0-0.3,0-0.6,0
			c-0.7,0-1.9,0.1-1.9,1.1v0.4h2.1v3h-2.1v8.2h-3.8V194.4z"/>
		<path fill="#FFFFFF" d="M63.2,191.2h3.7v1.9c0,0.4,0,0.7,0,0.7h0c0.5-1.5,1.9-2.8,3.6-2.8c0.2,0,0.4,0,0.4,0v3.7
			c0,0-0.3-0.1-0.8-0.1c-0.9,0-2.4,0.3-2.9,2c-0.1,0.4-0.2,0.9-0.2,1.5v4.3h-3.8V191.2z"/>
		<path fill="#FFFFFF" d="M78.2,190.9c3.6,0,6.4,2.4,6.4,6c0,3.5-2.9,5.9-6.4,5.9s-6.4-2.4-6.4-5.9
			C71.8,193.3,74.6,190.9,78.2,190.9z M78.2,199.6c1.4,0,2.6-1,2.6-2.7c0-1.7-1.2-2.8-2.6-2.8c-1.4,0-2.6,1.1-2.6,2.8
			C75.6,198.6,76.8,199.6,78.2,199.6z"/>
		<path fill="#FFFFFF" d="M86.6,191.2h3.7v1c0,0.4,0,0.7,0,0.7h0c0.5-0.8,1.6-2,3.4-2c1.4,0,2.6,0.6,3.2,1.9h0
			c0.6-0.9,1.9-1.9,3.6-1.9c2.1,0,3.7,1.1,3.7,4.2v7.3h-3.8v-6.7c0-0.8-0.2-1.4-0.9-1.4c-1.2,0-1.8,0.9-2.1,2.1
			c-0.1,0.4-0.1,0.9-0.1,1.3v4.7h-3.8v-6.7c0-0.8-0.2-1.4-0.9-1.4c-1.2,0-1.8,0.8-2.1,2c-0.1,0.4-0.1,0.9-0.1,1.4v4.7h-3.8V191.2z"
			/>
		<path fill="#FFFFFF" d="M115.3,190.1h-4.8v-3.3h13.4v3.3h-4.8v12.4h-3.9V190.1z"/>
		<path fill="#FFFFFF" d="M125.4,186.8h3.8v5c0,0.6,0,1,0,1h0c0.6-1.1,2-1.8,3.5-1.8c2.3,0,4.1,1.1,4.1,4.2v7.3h-3.8v-6.6
			c0-1.1-0.4-1.5-1.3-1.5c-1.2,0-1.9,0.7-2.3,1.7c-0.2,0.4-0.2,0.9-0.2,1.5v5h-3.8V186.8z"/>
		<path fill="#FFFFFF" d="M144.5,190.9c3.3,0,5.2,2.3,5.2,5.5c0,0.4-0.1,1.2-0.1,1.2h-7.2c0.3,1.4,1.4,2,2.6,2
			c1.6,0,3.1-1.1,3.1-1.1l1.4,2.7c0,0-1.8,1.7-4.8,1.7c-4,0-6.2-2.9-6.2-5.9C138.6,193.5,140.8,190.9,144.5,190.9z M145.9,195.4
			c0-0.9-0.6-1.6-1.5-1.6c-1.1,0-1.6,0.8-1.8,1.6H145.9z"/>
		<path fill="#FFFFFF" d="M157.3,186.8h5.6c5,0,8.1,2.9,8.1,7.8s-3.2,7.9-8.1,7.9h-5.6V186.8z M162.7,199.2c2.7,0,4.3-1.6,4.3-4.6
			c0-3-1.7-4.5-4.3-4.5h-1.6v9.1H162.7z"/>
		<path fill="#FFFFFF" d="M179,195.5h0.2v-0.2c0-0.9-0.7-1.3-1.7-1.3c-1.4,0-3.1,1.1-3.1,1.1l-1.3-2.7c0,0,2-1.5,4.8-1.5
			c3.2,0,5.1,1.7,5.1,4.6v7h-3.5v-0.7c0-0.4,0-0.7,0-0.7h0c0,0-0.8,1.7-3.2,1.7c-2.1,0-3.9-1.4-3.9-3.7
			C172.4,195.8,177.2,195.5,179,195.5z M177.3,199.9c1,0,1.9-1.1,1.9-2v-0.2h-0.4c-1.2,0-2.6,0.4-2.6,1.3
			C176.2,199.5,176.5,199.9,177.3,199.9z"/>
		<path fill="#FFFFFF" d="M185.6,191.2h3.8v11.3h-3.8V191.2z M185.6,186.8h3.7v3h-3.7V186.8z"/>
		<path fill="#FFFFFF" d="M192,186.8h3.8v11c0,1.1,0.2,1.5,1.1,1.5c0.2,0,0.5,0,0.5,0v3.3c0,0-0.5,0.1-1.1,0.1c-2,0-4.2-0.5-4.2-4.3
			V186.8z"/>
		<path fill="#FFFFFF" d="M199.1,203.6c0,0,0.6,0.4,1.2,0.4c0.6,0,1.4-0.2,1.8-1.1l0.2-0.5l-4.8-11.1h4.3l1.7,5.2
			c0.2,0.6,0.4,1.8,0.4,1.8h0c0,0,0.2-1.1,0.4-1.7l1.4-5.3h4.2l-4.6,12.5c-0.9,2.5-2.9,3.4-4.7,3.4c-1.5,0-2.6-0.8-2.6-0.8
			L199.1,203.6z"/>
		<path fill="#FFFFFF" d="M216.8,186.8h3.9l4.4,7.3c0.6,1,1.3,2.7,1.3,2.7h0c0,0-0.2-1.7-0.2-2.7v-7.3h3.9v15.7h-3.9l-4.4-7.3
			c-0.6-1-1.3-2.7-1.3-2.7h0c0,0,0.2,1.7,0.2,2.7v7.3h-3.9V186.8z"/>
		<path fill="#FFFFFF" d="M238.4,190.9c3.3,0,5.2,2.3,5.2,5.5c0,0.4-0.1,1.2-0.1,1.2h-7.2c0.3,1.4,1.4,2,2.6,2
			c1.6,0,3.1-1.1,3.1-1.1l1.4,2.7c0,0-1.8,1.7-4.8,1.7c-4,0-6.2-2.9-6.2-5.9C232.5,193.5,234.8,190.9,238.4,190.9z M239.8,195.4
			c0-0.9-0.6-1.6-1.5-1.6c-1.1,0-1.6,0.8-1.8,1.6H239.8z"/>
		<path fill="#FFFFFF" d="M244.6,191.2h4l1.4,6.7c0.1,0.6,0.1,1.2,0.1,1.2h0c0,0,0-0.6,0.2-1.2l1.6-6.7h3.3l1.6,6.7
			c0.2,0.6,0.2,1.2,0.2,1.2h0c0,0,0-0.6,0.2-1.2l1.4-6.7h4l-3.2,11.3h-4.2l-1.3-5.2c-0.2-0.6-0.2-1.2-0.2-1.2h0c0,0-0.1,0.6-0.2,1.2
			l-1.3,5.2h-4.3L244.6,191.2z"/>
		<path fill="#FFFFFF" d="M264.9,198.6c0,0,1.3,1.1,2.9,1.1c0.6,0,1.1-0.2,1.1-0.5c0-1-5.3-1.1-5.3-4.8c0-2.1,2-3.5,4.7-3.5
			c2.6,0,4,1.3,4,1.3l-1.3,2.7c0,0-1.1-0.9-2.7-0.9c-0.6,0-1.1,0.2-1.1,0.5c0,0.9,5.3,1,5.3,4.6c0,1.9-1.7,3.6-4.6,3.6
			c-2.8,0-4.5-1.7-4.5-1.7L264.9,198.6z"/>
	</g>
	<g>
		<path fill="#FFFFFF" d="M299.7,225.4h-265c-2.8,0-5-2.2-5-5v-49.8c0-2.8,2.2-5,5-5h265c2.8,0,5,2.2,5,5v49.8
			C304.7,223.1,302.4,225.4,299.7,225.4z M34.7,167.6c-1.7,0-3,1.3-3,3v49.8c0,1.7,1.3,3,3,3h265c1.7,0,3-1.3,3-3v-49.8
			c0-1.7-1.3-3-3-3H34.7z"/>
	</g>
</g>
</svg>
