<!-- Generator: Adobe Illustrator 18.1.1, SVG Export Plug-In  -->
<svg version="1.1"
	 xmlns="http://www.w3.org/2000/svg" xmlns:xlink="http://www.w3.org/1999/xlink" xmlns:a="http://ns.adobe.com/AdobeSVGViewerExtensions/3.0/"
	 x="0px" y="0px" width="600px" height="256.2px" viewBox="0 0 600 256.2" enable-background="new 0 0 600 256.2"
	 xml:space="preserve">
<defs>
</defs>
<rect x="0" y="50.2" fill="#494949" width="600" height="206"/>
<rect x="0" y="0" fill="#C14237" width="600" height="50"/>
<rect x="27" y="85.8" fill="none" width="468" height="58.2"/>
<text transform="matrix(1 0 0 1 26.9813 102.9389)"><tspan x="0" y="0" fill="#FFFFFF" font-family="'MuseoSans-900'" font-size="24">University Students Respond to Radical </tspan><tspan x="0" y="37" fill="#FFFFFF" font-family="'MuseoSans-900'" font-size="24">New Tuition Policy </tspan><tspan x="225.4" y="37" fill="#FFFFFF" font-family="'MuseoSlab-700'" font-size="24">– </tspan><tspan x="248.6" y="37" fill="#FFFFFF" font-family="'MuseoSlab-500Italic'" font-size="24">Khalil Williams</tspan></text>
<g>
	<text transform="matrix(1 0 0 1 53.3078 202.5163)" fill="#FFFFFF" font-family="'MuseoSans-900'" font-size="22">from The Daily News</text>
	<path fill="none" stroke="#FFFFFF" stroke-width="2" stroke-miterlimit="10" d="M299.7,224.4h-265c-2.2,0-4-1.8-4-4v-49.8
		c0-2.2,1.8-4,4-4h265c2.2,0,4,1.8,4,4v49.8C303.7,222.6,301.9,224.4,299.7,224.4z"/>
</g>
</svg>
