<!-- Generator: Adobe Illustrator 18.1.1, SVG Export Plug-In  -->
<svg version="1.1"
	 xmlns="http://www.w3.org/2000/svg" xmlns:xlink="http://www.w3.org/1999/xlink" xmlns:a="http://ns.adobe.com/AdobeSVGViewerExtensions/3.0/"
	 x="0px" y="0px" width="600px" height="830.2px" viewBox="0 0 600 830.2" enable-background="new 0 0 600 830.2"
	 xml:space="preserve">
<defs>
</defs>
<rect x="0" fill="#FFFFFF" width="600" height="265.8"/>
<g>
	<g>
		<text transform="matrix(1 0 0 1 230.0921 320.0029)" font-family="'MuseoSans-900'" font-size="26">INSIGHTS</text>
	</g>
	<line fill="none" stroke="#000000" stroke-miterlimit="10" x1="27" y1="334.5" x2="558" y2="334.5"/>
</g>
<g>
	<g>
		<text transform="matrix(1 0 0 1 186.0618 638.0029)" font-family="'MuseoSans-900'" font-size="26">TOP QUESTIONS</text>
	</g>
	<line fill="none" stroke="#000000" stroke-miterlimit="10" x1="27" y1="652.5" x2="558" y2="652.5"/>
</g>
<g>
	<path fill="none" stroke="#000000" stroke-width="2" stroke-miterlimit="10" d="M548.3,401h-512c-2.2,0-4-1.8-4-4v-40
		c0-2.2,1.8-4,4-4h512c2.2,0,4,1.8,4,4v40C552.3,399.2,550.5,401,548.3,401z"/>
	<path fill="#494949" d="M546.1,398.2h-34.8c-1.5,0-2.7-1.2-2.7-2.7v-36.2c0-1.5,1.2-2.7,2.7-2.7h34.8c1.5,0,2.7,1.2,2.7,2.7v36.2
		C548.8,397,547.6,398.2,546.1,398.2z"/>
	<text transform="matrix(1 0 0 1 41.3005 385.5574)" font-family="'MuseoSans-300'" font-size="26">Trusted Article</text>
	<text transform="matrix(1 0 0 1 517.9815 381.6893)" fill="#FFFFFF" font-family="'MuseoSans-300'" font-size="15.5627">12k</text>
</g>
<g>
	<path fill="none" stroke="#000000" stroke-width="2" stroke-miterlimit="10" d="M548.3,457.4h-512c-2.2,0-4-1.8-4-4v-40
		c0-2.2,1.8-4,4-4h512c2.2,0,4,1.8,4,4v40C552.3,455.6,550.5,457.4,548.3,457.4z"/>
	<path fill="#494949" d="M546.1,454.5h-34.8c-1.5,0-2.7-1.2-2.7-2.7v-36.2c0-1.5,1.2-2.7,2.7-2.7h34.8c1.5,0,2.7,1.2,2.7,2.7v36.2
		C548.8,453.3,547.6,454.5,546.1,454.5z"/>
	<text transform="matrix(1 0 0 1 41.3005 441.9124)" font-family="'MuseoSans-300'" font-size="26">Favors Students</text>
	<text transform="matrix(1 0 0 1 516.9808 438.0442)" fill="#FFFFFF" font-family="'MuseoSans-300'" font-size="15.5627">22k</text>
</g>
<g>
	<path fill="none" stroke="#000000" stroke-width="2" stroke-miterlimit="10" d="M548.3,513.7h-512c-2.2,0-4-1.8-4-4v-40
		c0-2.2,1.8-4,4-4h512c2.2,0,4,1.8,4,4v40C552.3,511.9,550.5,513.7,548.3,513.7z"/>
	<path fill="#494949" d="M546.1,510.9h-34.8c-1.5,0-2.7-1.2-2.7-2.7V472c0-1.5,1.2-2.7,2.7-2.7h34.8c1.5,0,2.7,1.2,2.7,2.7v36.2
		C548.8,509.7,547.6,510.9,546.1,510.9z"/>
	<text transform="matrix(1 0 0 1 41.3005 498.2673)" font-family="'MuseoSans-300'" font-size="26">Right Leaning</text>
	<text transform="matrix(1 0 0 1 516.9808 494.3992)" fill="#FFFFFF" font-family="'MuseoSans-300'" font-size="15.5627">42k</text>
</g>
<g>
	<path fill="none" stroke="#000000" stroke-width="2" stroke-miterlimit="10" d="M548.3,570.1h-512c-2.2,0-4-1.8-4-4v-40
		c0-2.2,1.8-4,4-4h512c2.2,0,4,1.8,4,4v40C552.3,568.3,550.5,570.1,548.3,570.1z"/>
	<path fill="#494949" d="M546.1,567.3h-34.8c-1.5,0-2.7-1.2-2.7-2.7v-36.2c0-1.5,1.2-2.7,2.7-2.7h34.8c1.5,0,2.7,1.2,2.7,2.7v36.2
		C548.8,566.1,547.6,567.3,546.1,567.3z"/>
	<text transform="matrix(1 0 0 1 41.3005 554.6223)" font-family="'MuseoSans-300'" font-size="26">Good Read</text>
	<text transform="matrix(1 0 0 1 516.9808 550.7542)" fill="#FFFFFF" font-family="'MuseoSans-300'" font-size="15.5627">10k</text>
</g>
<g>
	<path fill="none" stroke="#000000" stroke-width="2" stroke-miterlimit="10" d="M546.8,829.2h-512c-2.2,0-4-1.8-4-4V683.6
		c0-2.2,1.8-4,4-4h512c2.2,0,4,1.8,4,4v141.6C550.8,827.4,549,829.2,546.8,829.2z"/>
	<line fill="none" stroke="#000000" stroke-miterlimit="10" x1="31" y1="770.5" x2="551" y2="770.5"/>
	<text transform="matrix(1 0 0 1 222.5132 807.1489)" font-family="'MuseoSans-700'" font-size="22">Ask Question</text>
</g>
</svg>
