<!-- Generator: Adobe Illustrator 18.1.1, SVG Export Plug-In  -->
<svg version="1.1"
	 xmlns="http://www.w3.org/2000/svg" xmlns:xlink="http://www.w3.org/1999/xlink" xmlns:a="http://ns.adobe.com/AdobeSVGViewerExtensions/3.0/"
	 x="0px" y="0px" width="614.2px" height="1199.9px" viewBox="0 0 614.2 1199.9" enable-background="new 0 0 614.2 1199.9"
	 xml:space="preserve">
<defs>
</defs>
<g>
	<g>
		<g>
			<path fill="#FFFFFF" d="M614.2,1195.9c0,2.2-1.8,4-4,4H4c-2.2,0-4-1.8-4-4V17c0-2.2,1.8-4,4-4h606.2c2.2,0,4,1.8,4,4V1195.9z"/>
		</g>
		<g>
			<path fill="#FFFFFF" d="M582.5,27.1c-1.2,1.2-3.1,1.2-4.2,0l-11-11c-1.2-1.2-1.2-3.1,0-4.2l11-11c1.2-1.2,3.1-1.2,4.2,0l11,11
				c1.2,1.2,1.2,3.1,0,4.2L582.5,27.1z"/>
		</g>
	</g>
	<g>
		<rect x="7.1" y="74.5" fill="#494949" width="600" height="206"/>
		<rect x="7.1" y="24.3" fill="#C14237" width="600" height="50"/>
		<rect x="34.1" y="110.1" fill="none" width="468" height="58.2"/>
		<text transform="matrix(1 0 0 1 34.1108 127.2192)"><tspan x="0" y="0" fill="#FFFFFF" font-family="'MuseoSans-900'" font-size="24">Obama Warns GOP He Plans to Use Veto </tspan><tspan x="0" y="37" fill="#FFFFFF" font-family="'MuseoSans-900'" font-size="24">Pen In 2015</tspan><tspan x="135.6" y="37" fill="#FFFFFF" font-family="'MuseoSlab-700'" font-size="24"> – </tspan><tspan x="164.9" y="37" fill="#FFFFFF" font-family="'MuseoSlab-500Italic'" font-size="24">Jane Whitefield</tspan></text>
		<g>
			<text transform="matrix(1 0 0 1 60.4372 226.7966)" fill="#FFFFFF" font-family="'MuseoSans-900'" font-size="22">from New York Times</text>
			<path fill="none" stroke="#FFFFFF" stroke-width="2" stroke-miterlimit="10" d="M306.8,248.6h-265c-2.2,0-4-1.8-4-4v-49.8
				c0-2.2,1.8-4,4-4h265c2.2,0,4,1.8,4,4v49.8C310.8,246.8,309,248.6,306.8,248.6z"/>
		</g>
		<g>
			<g>
				<text transform="matrix(1 0 0 1 237.2215 334.726)" font-family="'MuseoSans-900'" font-size="26">INSIGHTS</text>
			</g>
			<line fill="none" stroke="#000000" stroke-miterlimit="10" x1="34.2" y1="349.2" x2="565.2" y2="349.2"/>
		</g>
		<g>
			<g>
				<text transform="matrix(1 0 0 1 193.1913 652.726)" font-family="'MuseoSans-900'" font-size="26">TOP QUESTIONS</text>
			</g>
			<line fill="none" stroke="#000000" stroke-miterlimit="10" x1="34.2" y1="667.2" x2="565.2" y2="667.2"/>
		</g>
		<g>
			<path fill="none" stroke="#000000" stroke-width="2" stroke-miterlimit="10" d="M555.4,415.7h-512c-2.2,0-4-1.8-4-4v-40
				c0-2.2,1.8-4,4-4h512c2.2,0,4,1.8,4,4v40C559.4,413.9,557.6,415.7,555.4,415.7z"/>
			<path fill="#494949" d="M553.2,412.9h-34.8c-1.5,0-2.7-1.2-2.7-2.7V374c0-1.5,1.2-2.7,2.7-2.7h34.8c1.5,0,2.7,1.2,2.7,2.7v36.2
				C555.9,411.7,554.7,412.9,553.2,412.9z"/>
			<text transform="matrix(1 0 0 1 48.4299 400.2805)" font-family="'MuseoSans-300'" font-size="26">Trusted Article</text>
			<text transform="matrix(1 0 0 1 525.111 396.4124)" fill="#FFFFFF" font-family="'MuseoSans-300'" font-size="15.5627">12k</text>
		</g>
		<path fill="none" stroke="#000000" stroke-width="2" stroke-miterlimit="10" d="M555.4,914.8h-512c-2.2,0-4-1.8-4-4V700.4
			c0-2.2,1.8-4,4-4h512c2.2,0,4,1.8,4,4v210.4C559.4,913,557.6,914.8,555.4,914.8z"/>
		<g>
			<path fill="none" stroke="#000000" stroke-width="2" stroke-miterlimit="10" d="M555.4,473.3h-512c-2.2,0-4-1.8-4-4v-40
				c0-2.2,1.8-4,4-4h512c2.2,0,4,1.8,4,4v40C559.4,471.5,557.6,473.3,555.4,473.3z"/>
			<path fill="#494949" d="M553.2,470.4h-34.8c-1.5,0-2.7-1.2-2.7-2.7v-36.2c0-1.5,1.2-2.7,2.7-2.7h34.8c1.5,0,2.7,1.2,2.7,2.7v36.2
				C555.9,469.2,554.7,470.4,553.2,470.4z"/>
			<text transform="matrix(1 0 0 1 48.4299 457.8106)" font-family="'MuseoSans-300'" font-size="26">Helpful Article</text>
			<text transform="matrix(1 0 0 1 524.1103 453.9424)" fill="#FFFFFF" font-family="'MuseoSans-300'" font-size="15.5627">22k</text>
		</g>
		<g>
			<path fill="none" stroke="#000000" stroke-width="2" stroke-miterlimit="10" d="M555.4,530h-512c-2.2,0-4-1.8-4-4v-40
				c0-2.2,1.8-4,4-4h512c2.2,0,4,1.8,4,4v40C559.4,528.2,557.6,530,555.4,530z"/>
			<path fill="#494949" d="M553.2,527.2h-34.8c-1.5,0-2.7-1.2-2.7-2.7v-36.2c0-1.5,1.2-2.7,2.7-2.7h34.8c1.5,0,2.7,1.2,2.7,2.7v36.2
				C555.9,526,554.7,527.2,553.2,527.2z"/>
			<text transform="matrix(1 0 0 1 48.4299 514.5282)" font-family="'MuseoSans-300'" font-size="26">Right Leaning</text>
			<text transform="matrix(1 0 0 1 524.1103 510.66)" fill="#FFFFFF" font-family="'MuseoSans-300'" font-size="15.5627">42k</text>
		</g>
		<g>
			<path fill="none" stroke="#000000" stroke-width="2" stroke-miterlimit="10" d="M555.4,584.8h-512c-2.2,0-4-1.8-4-4v-40
				c0-2.2,1.8-4,4-4h512c2.2,0,4,1.8,4,4v40C559.4,583,557.6,584.8,555.4,584.8z"/>
			<path fill="#494949" d="M553.2,582h-34.8c-1.5,0-2.7-1.2-2.7-2.7v-36.2c0-1.5,1.2-2.7,2.7-2.7h34.8c1.5,0,2.7,1.2,2.7,2.7v36.2
				C555.9,580.8,554.7,582,553.2,582z"/>
			<text transform="matrix(1 0 0 1 48.4299 569.3454)" font-family="'MuseoSans-300'" font-size="26">Good Read</text>
			<text transform="matrix(1 0 0 1 524.1103 565.4772)" fill="#FFFFFF" font-family="'MuseoSans-300'" font-size="15.5627">10k</text>
		</g>
		<line fill="none" stroke="#000000" stroke-width="2" stroke-miterlimit="10" x1="39.2" y1="854.7" x2="559.2" y2="854.7"/>
		<line fill="none" stroke="#000000" stroke-width="2" stroke-miterlimit="10" x1="313.2" y1="854.7" x2="313.2" y2="915.7"/>
		<text transform="matrix(1 0 0 1 107.216 892.2806)" font-family="'MuseoSans-300'" font-size="22">2.3k Upvotes</text>
		<text transform="matrix(1 0 0 1 401.6039 892.2806)" font-family="'MuseoSans-300'" font-size="22">Follow</text>
		<rect x="71.1" y="725.9" fill="none" width="456" height="96"/>
		<text transform="matrix(1 0 0 1 71.1222 741.3306)"><tspan x="0" y="0" font-family="'MuseoSans-300'" font-size="22">Other supporters of Indiana’s “Religious Free</tspan><tspan x="445.1" y="0" font-family="'MuseoSans-300'" font-size="22">-</tspan><tspan x="0" y="37" font-family="'MuseoSans-300'" font-size="22">dom Restoration Act” have made a simple </tspan><tspan x="0" y="74" font-family="'MuseoSans-300'" font-size="22">point?</tspan></text>
		<path fill="none" stroke="#000000" stroke-width="2" stroke-miterlimit="10" d="M555.4,1168.8h-512c-2.2,0-4-1.8-4-4V954.4
			c0-2.2,1.8-4,4-4h512c2.2,0,4,1.8,4,4v210.4C559.4,1167,557.6,1168.8,555.4,1168.8z"/>
		<line fill="none" stroke="#000000" stroke-width="2" stroke-miterlimit="10" x1="39.2" y1="1108.7" x2="559.2" y2="1108.7"/>
		<line fill="none" stroke="#000000" stroke-width="2" stroke-miterlimit="10" x1="313.2" y1="1108.7" x2="313.2" y2="1169.7"/>
		<text transform="matrix(1 0 0 1 107.216 1146.2806)" font-family="'MuseoSans-300'" font-size="22">2.3k Upvotes</text>
		<text transform="matrix(1 0 0 1 401.6039 1146.2806)" font-family="'MuseoSans-300'" font-size="22">Follow</text>
		<rect x="71.1" y="979.9" fill="none" width="456" height="96"/>
		<text transform="matrix(1 0 0 1 71.1222 995.3306)"><tspan x="0" y="0" font-family="'MuseoSans-300'" font-size="22">Other supporters of Indiana’s “Religious Free</tspan><tspan x="445.1" y="0" font-family="'MuseoSans-300'" font-size="22">-</tspan><tspan x="0" y="37" font-family="'MuseoSans-300'" font-size="22">dom Restoration Act” have made a simple </tspan><tspan x="0" y="74" font-family="'MuseoSans-300'" font-size="22">point?</tspan></text>
	</g>
</g>
</svg>
