<!-- Generator: Adobe Illustrator 18.1.1, SVG Export Plug-In  -->
<svg version="1.1"
	 xmlns="http://www.w3.org/2000/svg" xmlns:xlink="http://www.w3.org/1999/xlink" xmlns:a="http://ns.adobe.com/AdobeSVGViewerExtensions/3.0/"
	 x="0px" y="0px" width="1064.8px" height="51px" viewBox="0 0 1064.8 51" enable-background="new 0 0 1064.8 51"
	 xml:space="preserve">
<defs>
</defs>
<rect x="1" y="1" fill="#FFFFFF" width="1062.8" height="49"/>
<g>
	<path fill="#FFFFFF" stroke="#000000" stroke-width="2" stroke-miterlimit="10" d="M517,49H5c-2.2,0-4-1.8-4-4V5c0-2.2,1.8-4,4-4
		h512c2.2,0,4,1.8,4,4v40C521,47.2,519.2,49,517,49z"/>
	<path fill="#494949" d="M514.8,46.2H480c-1.5,0-2.7-1.2-2.7-2.7V7.3c0-1.5,1.2-2.7,2.7-2.7h34.8c1.5,0,2.7,1.2,2.7,2.7v36.2
		C517.5,45,516.3,46.2,514.8,46.2z"/>
	<text transform="matrix(1 0 0 1 10.0306 33.5576)" font-family="'MuseoSans-300'" font-size="26">Right Leaning</text>
	<text transform="matrix(1 0 0 1 484.7105 29.6895)" fill="#FFFFFF" font-family="'MuseoSans-300'" font-size="15.5627">42k</text>
</g>
<g>
	<g>
		<rect x="737.8" y="1" fill="#FFFFFF" stroke="#000000" stroke-width="2" stroke-miterlimit="10" width="170" height="49"/>
		<text transform="matrix(1 0 0 1 763.7556 31.9277)" fill="#494949" font-family="'MuseoSans-300'" font-size="20.5433">Neutral - 9k</text>
	</g>
	<g>
		<path fill="#FFFFFF" stroke="#000000" stroke-width="2" stroke-miterlimit="10" d="M1058.9,1H898.8v49h160.1
			c3.1,0,4.9-3.1,4.9-6.4V5.8C1063.8,2.6,1062,1,1058.9,1z"/>
		<g>
			<text transform="matrix(1 0 0 1 928.0108 32.5321)" fill="#494949" font-family="'MuseoSans-300'" font-size="20.5433">Right - 42k</text>
		</g>
	</g>
	<g>
		<path fill="#494949" stroke="#000000" stroke-width="2" stroke-miterlimit="10" d="M582.8,1c-3.3,0-6,1.6-6,4.8v37.8
			c0,3.3,2.7,6.4,6,6.4h155V1H582.8z"/>
		<g>
			<text transform="matrix(1 0 0 1 597.9604 31.3876)" fill="#FFFFFF" font-family="'MuseoSans-300'" font-size="20.5433">Left - 12k </text>
		</g>
		<g>
			<circle fill="#C14237" cx="705.6" cy="23.6" r="10.1"/>
			<g>
				
					<line fill="none" stroke="#FFFFFF" stroke-width="2" stroke-linecap="round" stroke-miterlimit="10" x1="708.3" y1="20.9" x2="702.8" y2="26.4"/>
				
					<line fill="none" stroke="#FFFFFF" stroke-width="2" stroke-linecap="round" stroke-miterlimit="10" x1="702.8" y1="20.9" x2="708.3" y2="26.4"/>
			</g>
		</g>
	</g>
</g>
<g>
	<polygon points="553,34.9 542,23.9 553,12.9 559,18.8 553.9,23.9 559,29 	"/>
</g>
</svg>
