<!-- Generator: Adobe Illustrator 18.1.1, SVG Export Plug-In  -->
<svg version="1.1"
	 xmlns="http://www.w3.org/2000/svg" xmlns:xlink="http://www.w3.org/1999/xlink" xmlns:a="http://ns.adobe.com/AdobeSVGViewerExtensions/3.0/"
	 x="0px" y="0px" width="1064.8px" height="51px" viewBox="0 0 1064.8 51" enable-background="new 0 0 1064.8 51"
	 xml:space="preserve">
<defs>
</defs>
<g>
	<g>
		<path fill="#FFFFFF" d="M517,49H5c-2.2,0-4-1.8-4-4V5c0-2.2,1.8-4,4-4h512c2.2,0,4,1.8,4,4v40C521,47.2,519.2,49,517,49z"/>
		<path d="M517,50H5c-2.8,0-5-2.2-5-5V5c0-2.8,2.2-5,5-5h512c2.8,0,5,2.2,5,5v40C522,47.8,519.8,50,517,50z M5,2C3.3,2,2,3.3,2,5v40
			c0,1.7,1.3,3,3,3h512c1.7,0,3-1.3,3-3V5c0-1.7-1.3-3-3-3H5z"/>
	</g>
	<g>
		<path fill="#494949" d="M514.8,46.2H480c-1.5,0-2.7-1.2-2.7-2.7V7.3c0-1.5,1.2-2.7,2.7-2.7h34.8c1.5,0,2.7,1.2,2.7,2.7v36.2
			C517.5,45,516.3,46.2,514.8,46.2z"/>
	</g>
	<g>
		<path d="M20.7,15c4.2,0,6.5,2.1,6.5,2.1l-1,1.4c0,0-2.1-1.8-5.5-1.8c-4.4,0-7.4,3.4-7.4,7.7c0,4.5,3.1,7.8,7.3,7.8
			c3.6,0,5.7-2.7,5.7-2.7v-3.1h-3.1v-1.6H28v8.7h-1.7v-1.4c0-0.4,0-0.8,0-0.8h-0.1c0,0-2.1,2.5-6,2.5c-5,0-8.9-4-8.9-9.5
			C11.5,19.1,15.4,15,20.7,15z"/>
		<path d="M37.8,20.2c3.8,0,6.9,2.9,6.9,6.8c0,4-3.1,6.9-6.9,6.9c-3.8,0-6.9-3-6.9-6.9C30.9,23.1,34,20.2,37.8,20.2z M37.8,32.3
			c2.8,0,5.1-2.3,5.1-5.3c0-3-2.3-5.2-5.1-5.2c-2.8,0-5.1,2.2-5.1,5.2C32.7,30,35,32.3,37.8,32.3z"/>
		<path d="M54,20.2c3.8,0,6.9,2.9,6.9,6.8c0,4-3.1,6.9-6.9,6.9c-3.8,0-6.9-3-6.9-6.9C47.1,23.1,50.2,20.2,54,20.2z M54,32.3
			c2.8,0,5.1-2.3,5.1-5.3c0-3-2.3-5.2-5.1-5.2c-2.8,0-5.1,2.2-5.1,5.2C48.9,30,51.2,32.3,54,32.3z"/>
		<path d="M69.2,20.2c3.2,0,4.3,2.5,4.3,2.5h0.1c0,0-0.1-0.4-0.1-1v-6.4h1.8v18.3h-1.7v-1.4c0-0.6,0.1-0.9,0.1-0.9h-0.1
			c0,0-1.1,2.6-4.5,2.6c-3.5,0-5.7-2.8-5.7-6.9C63.4,22.9,65.8,20.2,69.2,20.2z M69.3,32.3c2.2,0,4.2-1.6,4.2-5.3
			c0-2.7-1.4-5.3-4.2-5.3c-2.3,0-4.2,2-4.2,5.3C65.2,30.2,66.9,32.3,69.3,32.3z"/>
		<path d="M87,15.3h5.4c1.9,0,2.7,0.2,3.4,0.5c1.7,0.8,2.8,2.5,2.8,4.7c0,2.5-1.4,4.4-3.5,4.9v0.1c0,0,0.2,0.2,0.5,0.7l4,7.4h-2.1
			l-4.1-7.7h-4.6v7.7H87V15.3z M93.2,24.2c2.2,0,3.6-1.4,3.6-3.7c0-1.5-0.6-2.6-1.7-3.2c-0.5-0.3-1.2-0.4-2.6-0.4h-3.7v7.4H93.2z"/>
		<path d="M108.4,20.2c3.6,0,5.5,2.8,5.5,6c0,0.3-0.1,0.9-0.1,0.9h-10c0.1,3.4,2.4,5.2,5.1,5.2c2.4,0,4-1.6,4-1.6l0.8,1.4
			c0,0-1.9,1.8-4.8,1.8c-3.9,0-6.8-2.8-6.8-6.8C101.9,22.7,104.9,20.2,108.4,20.2z M112.1,25.7c-0.1-2.7-1.8-4-3.7-4
			c-2.2,0-4.1,1.4-4.5,4H112.1z"/>
		<path d="M124.2,25.5h0.7v-0.3c0-2.5-1.4-3.4-3.2-3.4c-2.2,0-3.7,1.2-3.7,1.2l-0.8-1.4c0,0,1.7-1.5,4.7-1.5c3.1,0,4.9,1.7,4.9,5
			v8.4H125v-1.4c0-0.6,0.1-1.1,0.1-1.1H125c0,0-1.1,2.8-4.4,2.8c-2.2,0-4.4-1.3-4.4-3.9C116.2,25.6,121.9,25.5,124.2,25.5z
			 M120.9,32.4c2.5,0,4-2.6,4-4.9v-0.6h-0.8c-2.1,0-6.2,0.1-6.2,3C118,31.1,118.9,32.4,120.9,32.4z"/>
		<path d="M135.8,20.2c3.2,0,4.3,2.5,4.3,2.5h0.1c0,0-0.1-0.4-0.1-1v-6.4h1.8v18.3h-1.7v-1.4c0-0.6,0.1-0.9,0.1-0.9h-0.1
			c0,0-1.1,2.6-4.5,2.6c-3.5,0-5.7-2.8-5.7-6.9C129.9,22.9,132.3,20.2,135.8,20.2z M135.8,32.3c2.2,0,4.2-1.6,4.2-5.3
			c0-2.7-1.4-5.3-4.2-5.3c-2.3,0-4.2,2-4.2,5.3C131.7,30.2,133.4,32.3,135.8,32.3z"/>
	</g>
	<g>
		<path fill="#FFFFFF" d="M485.6,28.7h2.5v-8c0-0.3,0-0.6,0-0.6h0c0,0-0.1,0.2-0.5,0.7l-1.2,1.2l-0.7-0.7l2.5-2.5h1v10h2.4v1h-5.9
			V28.7z"/>
		<path fill="#FFFFFF" d="M493.1,24.2c0-3.1,0.9-5.7,3.8-5.7c2.8,0,3.8,2.5,3.8,5.7c0,3.2-0.9,5.7-3.8,5.7
			C494,29.9,493.1,27.4,493.1,24.2z M499.5,24.2c0-2.6-0.6-4.6-2.6-4.6c-2.1,0-2.7,2-2.7,4.6c0,2.6,0.6,4.7,2.7,4.7
			C498.9,28.9,499.5,26.8,499.5,24.2z"/>
		<path fill="#FFFFFF" d="M503,18.7h1.1v6.1h1.2l2.3-3h1.3l-2.7,3.4v0l3,4.4h-1.3l-2.6-3.9H504v3.9H503V18.7z"/>
	</g>
</g>
<g>
	<g>
		<path fill="#FFFFFF" d="M1058,1H820.8v49H1058c3.1,0,5.8-2.9,5.8-6.2V6C1063.8,2.7,1061.1,1,1058,1z"/>
		<path d="M1058,51H819.8V0H1058c4,0,6.8,2.5,6.8,6v37.8C1064.8,47.6,1061.6,51,1058,51z M821.8,49H1058c2.5,0,4.8-2.4,4.8-5.2V6
			c0-2.9-2.6-4-4.8-4H821.8V49z"/>
	</g>
	<g>
		<path fill="#494949" d="M901.5,17.7h4.9c2.3,0,3.9,1.4,3.9,3.6c0,1.5-0.7,2.6-1.8,3.1v0c1.5,0.4,2.4,1.8,2.4,3.6
			c0,2.6-1.9,4-4.3,4h-5.1V17.7z M906.4,23.9c1.5,0,2.4-1,2.4-2.5c0-1.5-0.9-2.5-2.5-2.5h-3.5v5H906.4z M906.6,30.8
			c1.7,0,2.8-1.1,2.8-2.8c0-1.7-1.2-2.9-2.9-2.9h-3.7v5.7H906.6z"/>
		<path fill="#494949" d="M919.4,25.7h0.6v-0.3c0-2-1.1-2.7-2.6-2.7c-1.7,0-2.9,1-2.9,1l-0.7-1.1c0,0,1.4-1.2,3.7-1.2
			c2.5,0,3.9,1.4,3.9,4v6.6h-1.3V31c0-0.5,0-0.9,0-0.9h0c0,0-0.9,2.2-3.5,2.2c-1.7,0-3.5-1-3.5-3.1
			C913.1,25.8,917.6,25.7,919.4,25.7z M916.8,31.1c2,0,3.2-2.1,3.2-3.8v-0.5h-0.6c-1.6,0-4.9,0.1-4.9,2.3
			C914.5,30.2,915.3,31.1,916.8,31.1z"/>
		<path fill="#494949" d="M928.6,21.5c2.5,0,3.4,2,3.4,2h0c0,0,0-0.3,0-0.8v-5h1.4v14.4H932V31c0-0.5,0-0.7,0-0.7h0
			c0,0-0.8,2.1-3.6,2.1c-2.8,0-4.5-2.2-4.5-5.4C923.9,23.7,925.9,21.5,928.6,21.5z M928.6,31.1c1.7,0,3.3-1.2,3.3-4.2
			c0-2.1-1.1-4.1-3.3-4.1c-1.8,0-3.3,1.5-3.3,4.1C925.4,29.5,926.7,31.1,928.6,31.1z"/>
		<path fill="#494949" d="M942.7,25.6h5.8v1.3h-5.8V25.6z"/>
		<path fill="#494949" d="M958.1,31.7l0.5-1.3c0,0,0.9,0.5,2.1,0.5c3,0,4.6-3,4.8-5.8h0c-0.7,1-2.2,1.7-3.7,1.7
			c-2.6,0-4.5-1.9-4.5-4.7c0-3,2-4.8,4.5-4.8c3.1,0,5.2,2.9,5.2,6.8c0,3.6-1.9,8.2-6.3,8.2C959.1,32.3,958.1,31.7,958.1,31.7z
			 M965.5,23.2c0-1.9-1.5-4.4-3.7-4.4c-2,0-3.1,1.5-3.1,3.5c0,2.1,1.3,3.4,3.3,3.4C964,25.6,965.5,24.3,965.5,23.2z"/>
		<path fill="#494949" d="M970.1,17.7h1.4v8.1h1.6l3.1-3.9h1.7l-3.6,4.5v0l3.9,5.8h-1.7l-3.5-5.2h-1.7v5.2h-1.4V17.7z"/>
	</g>
</g>
<g>
	<g>
		<path fill="#FFFFFF" d="M582.2,1c-3.3,0-6.4,1.6-6.4,4.8v37.8c0,3.3,3.2,6.4,6.4,6.4h238.6V1H582.2z"/>
		<path d="M821.8,51H582.2c-3.8,0-7.4-3.6-7.4-7.4V5.8c0-4,3.9-5.8,7.4-5.8h239.6V51z M582.2,2c-2.7,0-5.4,1.2-5.4,3.8v37.8
			c0,2.7,2.7,5.4,5.4,5.4h237.6V2H582.2z"/>
	</g>
	<g>
		<path fill="#494949" d="M647.9,16.7c3.3,0,5.1,1.7,5.1,1.7l-0.8,1.1c0,0-1.7-1.4-4.3-1.4c-3.5,0-5.9,2.7-5.9,6.1
			c0,3.6,2.4,6.2,5.7,6.2c2.8,0,4.5-2.1,4.5-2.1v-2.4h-2.5v-1.3h3.8v6.9h-1.3v-1.1c0-0.3,0-0.6,0-0.6h0c0,0-1.7,2-4.7,2
			c-3.9,0-7.1-3.2-7.1-7.5C640.6,20,643.8,16.7,647.9,16.7z"/>
		<path fill="#494949" d="M661.5,20.8c3,0,5.5,2.3,5.5,5.4c0,3.1-2.4,5.5-5.5,5.5c-3,0-5.5-2.3-5.5-5.5
			C656,23.1,658.4,20.8,661.5,20.8z M661.5,30.4c2.2,0,4-1.8,4-4.2c0-2.3-1.8-4.1-4-4.1c-2.2,0-4,1.7-4,4.1
			C657.4,28.6,659.2,30.4,661.5,30.4z"/>
		<path fill="#494949" d="M674.2,20.8c3,0,5.5,2.3,5.5,5.4c0,3.1-2.4,5.5-5.5,5.5c-3,0-5.5-2.3-5.5-5.5
			C668.8,23.1,671.2,20.8,674.2,20.8z M674.2,30.4c2.2,0,4-1.8,4-4.2c0-2.3-1.8-4.1-4-4.1c-2.2,0-4,1.7-4,4.1
			C670.2,28.6,672,30.4,674.2,30.4z"/>
		<path fill="#494949" d="M686.3,20.8c2.5,0,3.4,2,3.4,2h0c0,0,0-0.3,0-0.8v-5h1.4v14.4h-1.4v-1.1c0-0.5,0-0.7,0-0.7h0
			c0,0-0.8,2.1-3.6,2.1c-2.8,0-4.5-2.2-4.5-5.4C681.6,22.9,683.6,20.8,686.3,20.8z M686.3,30.4c1.7,0,3.3-1.2,3.3-4.2
			c0-2.1-1.1-4.1-3.3-4.1c-1.8,0-3.3,1.5-3.3,4.1C683.1,28.8,684.4,30.4,686.3,30.4z"/>
		<path fill="#494949" d="M700.4,24.9h5.8v1.3h-5.8V24.9z"/>
		<path fill="#494949" d="M715,30.1h3.2V19.5c0-0.4,0-0.8,0-0.8h0c0,0-0.1,0.3-0.7,0.9l-1.5,1.5l-0.9-0.9l3.3-3.2h1.3v13.2h3.2v1.3
			H715V30.1z"/>
		<path fill="#494949" d="M724.9,24.2c0-4.1,1.2-7.5,5-7.5s5,3.3,5,7.5c0,4.2-1.2,7.5-5,7.5S724.9,28.3,724.9,24.2z M733.4,24.2
			c0-3.4-0.8-6.1-3.5-6.1c-2.8,0-3.5,2.7-3.5,6.1c0,3.5,0.8,6.1,3.5,6.1C732.6,30.3,733.4,27.6,733.4,24.2z"/>
		<path fill="#494949" d="M738,16.9h1.4V25h1.6l3.1-3.9h1.7l-3.6,4.5v0l3.9,5.8h-1.7l-3.5-5.2h-1.7v5.2H738V16.9z"/>
	</g>
</g>
<g>
	<g>
		<polygon points="553,34.9 542,23.9 553,12.9 559,18.8 553.9,23.9 559,29 		"/>
	</g>
</g>
</svg>
