<!-- Generator: Adobe Illustrator 18.1.1, SVG Export Plug-In  -->
<svg version="1.1"
	 xmlns="http://www.w3.org/2000/svg" xmlns:xlink="http://www.w3.org/1999/xlink" xmlns:a="http://ns.adobe.com/AdobeSVGViewerExtensions/3.0/"
	 x="0px" y="0px" width="1064.8px" height="51px" viewBox="0 0 1064.8 51" enable-background="new 0 0 1064.8 51"
	 xml:space="preserve">
<defs>
</defs>
<g>
	<path fill="#FFFFFF" stroke="#000000" stroke-width="2" stroke-miterlimit="10" d="M517,49H5c-2.2,0-4-1.8-4-4V5c0-2.2,1.8-4,4-4
		h512c2.2,0,4,1.8,4,4v40C521,47.2,519.2,49,517,49z"/>
	<path fill="#494949" d="M514.8,46.2H480c-1.5,0-2.7-1.2-2.7-2.7V7.3c0-1.5,1.2-2.7,2.7-2.7h34.8c1.5,0,2.7,1.2,2.7,2.7v36.2
		C517.5,45,516.3,46.2,514.8,46.2z"/>
	<text transform="matrix(1 0 0 1 10.0306 33.5576)" font-family="'MuseoSans-300'" font-size="26">Good Read</text>
	<text transform="matrix(1 0 0 1 484.7105 29.6895)" fill="#FFFFFF" font-family="'MuseoSans-300'" font-size="15.5627">10k</text>
</g>
<g>
	<path fill="#FFFFFF" stroke="#000000" stroke-width="2" stroke-miterlimit="10" d="M1058,1H820.8v49H1058c3.1,0,5.8-2.9,5.8-6.2V6
		C1063.8,2.7,1061.1,1,1058,1z"/>
	<g>
		<text transform="matrix(1 0 0 1 899.3969 32.0932)" fill="#494949" font-family="'MuseoSans-300'" font-size="20.5433">Bad - 9k </text>
	</g>
</g>
<g>
	<path fill="#FFFFFF" stroke="#000000" stroke-width="2" stroke-miterlimit="10" d="M582.2,1c-3.3,0-6.4,1.6-6.4,4.8v37.8
		c0,3.3,3.2,6.4,6.4,6.4h238.6V1H582.2z"/>
	<g>
		<text transform="matrix(1 0 0 1 639.5052 31.3876)" fill="#494949" font-family="'MuseoSans-300'" font-size="20.5433">Good - 10k </text>
	</g>
</g>
<g>
	<polygon points="553,34.9 542,23.9 553,12.9 559,18.8 553.9,23.9 559,29 	"/>
</g>
</svg>
