<!-- Generator: Adobe Illustrator 18.1.1, SVG Export Plug-In  -->
<svg version="1.1"
	 xmlns="http://www.w3.org/2000/svg" xmlns:xlink="http://www.w3.org/1999/xlink" xmlns:a="http://ns.adobe.com/AdobeSVGViewerExtensions/3.0/"
	 x="0px" y="0px" width="1064.8px" height="51px" viewBox="0 0 1064.8 51" enable-background="new 0 0 1064.8 51"
	 xml:space="preserve">
<defs>
</defs>
<g>
	<g>
		<path fill="#FFFFFF" d="M517,49H5c-2.2,0-4-1.8-4-4V5c0-2.2,1.8-4,4-4h512c2.2,0,4,1.8,4,4v40C521,47.2,519.2,49,517,49z"/>
		<path d="M517,50H5c-2.8,0-5-2.2-5-5V5c0-2.8,2.2-5,5-5h512c2.8,0,5,2.2,5,5v40C522,47.8,519.8,50,517,50z M5,2C3.3,2,2,3.3,2,5v40
			c0,1.7,1.3,3,3,3h512c1.7,0,3-1.3,3-3V5c0-1.7-1.3-3-3-3H5z"/>
	</g>
	<g>
		<path fill="#494949" d="M514.8,46.2H480c-1.5,0-2.7-1.2-2.7-2.7V7.3c0-1.5,1.2-2.7,2.7-2.7h34.8c1.5,0,2.7,1.2,2.7,2.7v36.2
			C517.5,45,516.3,46.2,514.8,46.2z"/>
	</g>
	<g>
		<path d="M12.7,15.3h5.4c1.9,0,2.7,0.2,3.4,0.5c1.7,0.8,2.8,2.5,2.8,4.7c0,2.5-1.4,4.4-3.5,4.9v0.1c0,0,0.2,0.2,0.5,0.7l4,7.4h-2.1
			l-4.1-7.7h-4.6v7.7h-1.8V15.3z M18.8,24.2c2.2,0,3.6-1.4,3.6-3.7c0-1.5-0.6-2.6-1.7-3.2c-0.5-0.3-1.2-0.4-2.6-0.4h-3.7v7.4H18.8z"
			/>
		<path d="M28.4,15.3h1.8v2.2h-1.8V15.3z M28.5,20.5h1.8v13.1h-1.8V20.5z"/>
		<path d="M39,37.4c2.5,0,4.6-1.2,4.6-4.1v-1.2c0-0.5,0.1-0.9,0.1-0.9h-0.1c-0.8,1.5-2.1,2.3-4.1,2.3c-3.5,0-5.8-2.8-5.8-6.7
			s2.2-6.6,5.7-6.6c3.5,0,4.3,2.2,4.3,2.2h0.1c0,0,0-0.2,0-0.4v-1.4h1.7v12.8c0,4.2-3.1,5.8-6.3,5.8c-1.5,0-3-0.4-4.3-1l0.7-1.5
			C35.5,36.5,37.1,37.4,39,37.4z M43.6,26.8c0-3.8-1.8-5-4.1-5c-2.5,0-4,1.8-4,5s1.7,5.1,4.3,5.1C41.8,31.9,43.6,30.6,43.6,26.8z"/>
		<path d="M49.7,15.3h1.8v7.1c0,0.6-0.1,1.1-0.1,1.1h0.1c0.5-1.2,2.2-3.2,5.2-3.2c3.2,0,4.4,1.8,4.4,5.1v8.3h-1.8v-7.9
			c0-2.1-0.3-3.9-2.8-3.9c-2.2,0-4.2,1.5-4.8,3.7c-0.2,0.5-0.2,1.1-0.2,1.7v6.3h-1.8V15.3z"/>
		<path d="M65.6,22.1h-1.7v-1.5h1.7v-3.8h1.7v3.8h3.3v1.5h-3.3v6.5c0,3.1,2,3.5,2.9,3.5c0.4,0,0.6-0.1,0.6-0.1v1.6
			c0,0-0.3,0.1-0.8,0.1c-1.5,0-4.6-0.5-4.6-4.9V22.1z"/>
		<path d="M81.3,15.3h1.8v16.7h8.5v1.6H81.3V15.3z"/>
		<path d="M99.8,20.2c3.6,0,5.5,2.8,5.5,6c0,0.3-0.1,0.9-0.1,0.9h-10c0.1,3.4,2.4,5.2,5.1,5.2c2.4,0,4-1.6,4-1.6L105,32
			c0,0-1.9,1.8-4.8,1.8c-3.9,0-6.8-2.8-6.8-6.8C93.3,22.7,96.2,20.2,99.8,20.2z M103.4,25.7c-0.1-2.7-1.8-4-3.7-4
			c-2.2,0-4.1,1.4-4.5,4H103.4z"/>
		<path d="M115.6,25.5h0.7v-0.3c0-2.5-1.4-3.4-3.3-3.4c-2.2,0-3.7,1.2-3.7,1.2l-0.8-1.4c0,0,1.7-1.5,4.7-1.5c3.1,0,4.9,1.7,4.9,5
			v8.4h-1.7v-1.4c0-0.6,0.1-1.1,0.1-1.1h-0.1c0,0-1.1,2.8-4.4,2.8c-2.2,0-4.4-1.3-4.4-3.9C107.6,25.6,113.3,25.5,115.6,25.5z
			 M112.3,32.4c2.5,0,4-2.6,4-4.9v-0.6h-0.8c-2.1,0-6.2,0.1-6.2,3C109.4,31.1,110.3,32.4,112.3,32.4z"/>
		<path d="M122.1,20.5h1.7v2c0,0.6-0.1,1-0.1,1h0.1c0.5-1.2,2.1-3.3,5.2-3.3c3.2,0,4.4,1.8,4.4,5.1v8.3h-1.8v-7.9
			c0-2.1-0.3-3.9-2.8-3.9c-2.2,0-4.2,1.5-4.8,3.7c-0.2,0.5-0.2,1.1-0.2,1.8v6.3h-1.8V20.5z"/>
		<path d="M137.5,15.3h1.8v2.2h-1.8V15.3z M137.6,20.5h1.8v13.1h-1.8V20.5z"/>
		<path d="M143.6,20.5h1.7v2c0,0.6-0.1,1-0.1,1h0.1c0.5-1.2,2.1-3.3,5.2-3.3c3.2,0,4.4,1.8,4.4,5.1v8.3h-1.8v-7.9
			c0-2.1-0.3-3.9-2.8-3.9c-2.2,0-4.2,1.5-4.8,3.7c-0.2,0.5-0.2,1.1-0.2,1.8v6.3h-1.8V20.5z"/>
		<path d="M163.5,37.4c2.5,0,4.6-1.2,4.6-4.1v-1.2c0-0.5,0.1-0.9,0.1-0.9h-0.1c-0.8,1.5-2.1,2.3-4.1,2.3c-3.5,0-5.8-2.8-5.8-6.7
			s2.2-6.6,5.7-6.6c3.5,0,4.3,2.2,4.3,2.2h0.1c0,0,0-0.2,0-0.4v-1.4h1.7v12.8c0,4.2-3.1,5.8-6.3,5.8c-1.5,0-3-0.4-4.3-1l0.7-1.5
			C160,36.5,161.6,37.4,163.5,37.4z M168.1,26.8c0-3.8-1.8-5-4.1-5c-2.5,0-4,1.8-4,5s1.7,5.1,4.3,5.1
			C166.3,31.9,168.1,30.6,168.1,26.8z"/>
	</g>
	<g>
		<path fill="#FFFFFF" d="M485.2,26l5.4-7.2h1.2v7h1.6v0.9h-1.6v3h-1.1v-3h-5.5V26z M490.7,25.7v-4.6c0-0.5,0-1,0-1h0
			c0,0-0.2,0.4-0.5,0.8l-3.6,4.7v0H490.7z"/>
		<path fill="#FFFFFF" d="M494.9,29c0-3.8,5.6-4.3,5.6-7.3c0-1.2-0.9-2.1-2.3-2.1c-1.6,0-2.4,1.5-2.4,1.5l-0.8-0.5c0,0,1-2,3.3-2
			c2.1,0,3.3,1.4,3.3,3.1c0,3.7-5.5,4.2-5.5,7.1h5.7v1H495C495,29.4,494.9,29.2,494.9,29z"/>
		<path fill="#FFFFFF" d="M504.1,18.7h1.1v6.1h1.2l2.3-3h1.3l-2.7,3.4v0l3,4.4H509l-2.6-3.9h-1.3v3.9h-1.1V18.7z"/>
	</g>
</g>
<g>
	<g>
		<g>
			<rect x="737.8" y="1" fill="#FFFFFF" width="170" height="49"/>
			<path d="M908.8,51h-172V0h172V51z M738.8,49h168V2h-168V49z"/>
		</g>
		<g>
			<path fill="#494949" d="M765.9,17.5h1.4l7.4,10.4c0.5,0.7,1.2,2,1.2,2h0c0,0-0.1-1.2-0.1-2V17.5h1.4v14.4h-1.4l-7.4-10.4
				c-0.5-0.7-1.2-2-1.2-2h0c0,0,0.1,1.2,0.1,2v10.4h-1.4V17.5z"/>
			<path fill="#494949" d="M785.3,21.4c2.9,0,4.3,2.2,4.3,4.8c0,0.2,0,0.7,0,0.7h-7.9c0.1,2.6,1.9,4.1,4,4.1c1.9,0,3.1-1.3,3.1-1.3
				l0.6,1.1c0,0-1.5,1.4-3.8,1.4c-3.1,0-5.4-2.2-5.4-5.4C780.2,23.4,782.5,21.4,785.3,21.4z M788.2,25.7c-0.1-2.2-1.4-3.2-2.9-3.2
				c-1.7,0-3.2,1.1-3.6,3.2H788.2z"/>
			<path fill="#494949" d="M792.1,21.6h1.4v6.2c0,1.6,0.2,3.1,2.2,3.1c2.4,0,3.8-2.1,3.8-4.3v-5h1.4v10.3h-1.4v-1.5
				c0-0.5,0-0.8,0-0.8h0c-0.4,1-1.8,2.6-4,2.6c-2.4,0-3.5-1.3-3.5-4V21.6z"/>
			<path fill="#494949" d="M804.7,22.9h-1.4v-1.2h1.4v-3h1.4v3h2.6v1.2h-2.6V28c0,2.4,1.5,2.7,2.3,2.7c0.3,0,0.5,0,0.5,0V32
				c0,0-0.2,0-0.6,0c-1.2,0-3.6-0.4-3.6-3.8V22.9z"/>
			<path fill="#494949" d="M811.2,21.6h1.4v1.8c0,0.5,0,0.8,0,0.8h0c0.5-1.6,1.6-2.8,3.3-2.8c0.3,0,0.6,0.1,0.6,0.1v1.4
				c0,0-0.2,0-0.5,0c-1.5,0-2.5,1.2-3,2.7c-0.2,0.7-0.3,1.4-0.3,2v4.4h-1.4V21.6z"/>
			<path fill="#494949" d="M824,25.5h0.6v-0.3c0-2-1.1-2.7-2.6-2.7c-1.7,0-2.9,1-2.9,1l-0.7-1.1c0,0,1.4-1.2,3.7-1.2
				c2.5,0,3.9,1.4,3.9,4v6.6h-1.3v-1.1c0-0.5,0-0.9,0-0.9h0c0,0-0.9,2.2-3.5,2.2c-1.7,0-3.5-1-3.5-3.1
				C817.7,25.6,822.2,25.5,824,25.5z M821.4,31c2,0,3.2-2.1,3.2-3.8v-0.5H824c-1.6,0-4.9,0.1-4.9,2.3C819.1,30,819.9,31,821.4,31z"
				/>
			<path fill="#494949" d="M829.1,17.5h1.4v11.7c0,1.4,0.6,1.6,1.1,1.6c0.2,0,0.3,0,0.3,0V32c0,0-0.2,0-0.5,0
				c-0.9,0-2.4-0.3-2.4-2.5V17.5z"/>
			<path fill="#494949" d="M840.3,25.5h5.8v1.3h-5.8V25.5z"/>
			<path fill="#494949" d="M855.6,31.6l0.5-1.3c0,0,0.9,0.5,2.1,0.5c3,0,4.6-3,4.8-5.8h0c-0.7,1-2.2,1.7-3.7,1.7
				c-2.6,0-4.5-1.9-4.5-4.7c0-3,2-4.8,4.5-4.8c3.1,0,5.2,2.9,5.2,6.8c0,3.6-1.9,8.2-6.3,8.2C856.7,32.2,855.6,31.6,855.6,31.6z
				 M863.1,23c0-1.9-1.5-4.4-3.7-4.4c-2,0-3.1,1.5-3.1,3.5c0,2.1,1.3,3.4,3.3,3.4C861.6,25.5,863.1,24.2,863.1,23z"/>
			<path fill="#494949" d="M867.7,17.5h1.4v8.1h1.6l3.1-3.9h1.7l-3.6,4.5v0l3.9,5.8h-1.7l-3.5-5.2h-1.7v5.2h-1.4V17.5z"/>
		</g>
	</g>
	<g>
		<g>
			<path fill="#FFFFFF" d="M1058.9,1H898.8v49h160.1c3.1,0,4.9-3.1,4.9-6.4V5.8C1063.8,2.6,1062,1,1058.9,1z"/>
			<path d="M1058.9,51H897.8V0h161.1c3.7,0,5.9,2.1,5.9,5.8v37.8C1064.8,47.3,1062.7,51,1058.9,51z M899.8,49h159.1
				c2.6,0,3.9-2.7,3.9-5.4V5.8c0-2.6-1.2-3.8-3.9-3.8H899.8V49z"/>
		</g>
		<g>
			<path fill="#494949" d="M930.1,18.1h4.3c1.5,0,2.1,0.1,2.7,0.4c1.4,0.6,2.2,2,2.2,3.7c0,2-1.1,3.5-2.7,3.9v0c0,0,0.1,0.2,0.4,0.6
				l3.1,5.8h-1.6l-3.3-6.1h-3.6v6.1h-1.4V18.1z M935,25.2c1.7,0,2.9-1.1,2.9-2.9c0-1.2-0.5-2.1-1.3-2.5c-0.4-0.2-0.9-0.3-2.1-0.3
				h-2.9v5.8H935z"/>
			<path fill="#494949" d="M942.6,18.1h1.5v1.7h-1.5V18.1z M942.6,22.2h1.4v10.3h-1.4V22.2z"/>
			<path fill="#494949" d="M950.9,35.6c2,0,3.6-0.9,3.6-3.2v-0.9c0-0.4,0-0.7,0-0.7h0c-0.6,1.2-1.7,1.8-3.3,1.8
				c-2.8,0-4.6-2.2-4.6-5.3s1.7-5.2,4.5-5.2c2.7,0,3.4,1.7,3.4,1.7h0c0,0,0-0.1,0-0.3v-1.1h1.4v10.1c0,3.3-2.4,4.6-4.9,4.6
				c-1.2,0-2.4-0.3-3.4-0.8l0.5-1.1C948.1,34.9,949.4,35.6,950.9,35.6z M954.6,27.2c0-3-1.4-3.9-3.3-3.9c-2,0-3.2,1.5-3.2,3.9
				s1.3,4.1,3.4,4.1C953.1,31.2,954.6,30.2,954.6,27.2z"/>
			<path fill="#494949" d="M959.3,18.1h1.4v5.6c0,0.5,0,0.8,0,0.8h0c0.4-1,1.8-2.6,4.1-2.6c2.5,0,3.5,1.5,3.5,4v6.6h-1.4v-6.2
				c0-1.6-0.2-3.1-2.2-3.1c-1.8,0-3.3,1.2-3.8,2.9c-0.1,0.4-0.2,0.9-0.2,1.4v5h-1.4V18.1z"/>
			<path fill="#494949" d="M971.9,23.5h-1.4v-1.2h1.4v-3h1.4v3h2.6v1.2h-2.6v5.1c0,2.4,1.5,2.7,2.3,2.7c0.3,0,0.5,0,0.5,0v1.3
				c0,0-0.2,0-0.6,0c-1.2,0-3.6-0.4-3.6-3.8V23.5z"/>
			<path fill="#494949" d="M984.4,26.1h5.8v1.3h-5.8V26.1z"/>
			<path fill="#494949" d="M998.6,27.6l7.1-9.5h1.5v9.2h2.1v1.3h-2.1v4h-1.4v-4h-7.2V27.6z M1005.8,27.3v-6c0-0.6,0.1-1.4,0.1-1.4h0
				c0,0-0.3,0.6-0.7,1.1l-4.8,6.3v0H1005.8z"/>
			<path fill="#494949" d="M1011.4,31.6c0-5.1,7.4-5.7,7.4-9.6c0-1.6-1.2-2.8-3-2.8c-2.1,0-3.2,2-3.2,2l-1.1-0.7
				c0,0,1.3-2.6,4.4-2.6c2.8,0,4.4,1.8,4.4,4c0,4.8-7.3,5.5-7.3,9.4h7.5v1.3h-9C1011.4,32.2,1011.4,31.9,1011.4,31.6z"/>
			<path fill="#494949" d="M1023.4,18.1h1.4v8.1h1.6l3.1-3.9h1.7l-3.6,4.5v0l3.9,5.8h-1.7l-3.4-5.2h-1.7v5.2h-1.4V18.1z"/>
		</g>
	</g>
	<g>
		<g>
			<path fill="#494949" d="M582.8,1c-3.3,0-6,1.6-6,4.8v37.8c0,3.3,2.7,6.4,6,6.4h155V1H582.8z"/>
			<path d="M738.8,51h-156c-3.7,0-7-3.4-7-7.4V5.8c0-3.5,2.7-5.8,7-5.8h156V51z M582.8,2c-1.2,0-5,0.3-5,3.8v37.8
				c0,2.8,2.4,5.4,5,5.4h154V2H582.8z"/>
		</g>
		<g>
			<path fill="#FFFFFF" d="M600.1,16.9h1.4v13.2h6.7v1.3h-8.1V16.9z"/>
			<path fill="#FFFFFF" d="M614.7,20.8c2.9,0,4.3,2.2,4.3,4.8c0,0.2,0,0.7,0,0.7H611c0.1,2.6,1.9,4.1,4,4.1c1.9,0,3.1-1.3,3.1-1.3
				l0.6,1.1c0,0-1.5,1.4-3.8,1.4c-3.1,0-5.4-2.2-5.4-5.4C609.6,22.8,611.9,20.8,614.7,20.8z M617.6,25.1c-0.1-2.2-1.4-3.2-2.9-3.2
				c-1.7,0-3.2,1.1-3.6,3.2H617.6z"/>
			<path fill="#FFFFFF" d="M622.1,22.4h-1.3v-1.2h1.3v-0.5c0-3.4,2.4-3.8,3.6-3.8c0.4,0,0.6,0,0.6,0v1.3c0,0-0.2,0-0.5,0
				c-0.8,0-2.3,0.3-2.3,2.6v0.5h2.6v1.2h-2.6v9h-1.4V22.4z"/>
			<path fill="#FFFFFF" d="M628.6,22.4h-1.4v-1.2h1.4v-3h1.4v3h2.6v1.2H630v5.1c0,2.4,1.5,2.7,2.3,2.7c0.3,0,0.5,0,0.5,0v1.3
				c0,0-0.2,0-0.6,0c-1.2,0-3.6-0.4-3.6-3.8V22.4z"/>
			<path fill="#FFFFFF" d="M641.1,24.9h5.8v1.3h-5.8V24.9z"/>
			<path fill="#FFFFFF" d="M655.7,30.1h3.2V19.5c0-0.4,0-0.8,0-0.8h0c0,0-0.1,0.3-0.7,0.9l-1.5,1.5l-0.9-0.9l3.3-3.2h1.3v13.2h3.2
				v1.3h-7.8V30.1z"/>
			<path fill="#FFFFFF" d="M665.4,30.5c0-5.1,7.4-5.7,7.4-9.6c0-1.6-1.2-2.8-3-2.8c-2.1,0-3.2,2-3.2,2l-1.1-0.7c0,0,1.3-2.6,4.4-2.6
				c2.8,0,4.4,1.8,4.4,4c0,4.8-7.3,5.5-7.3,9.4h7.5v1.3h-9C665.4,31.1,665.4,30.8,665.4,30.5z"/>
			<path fill="#FFFFFF" d="M677.4,16.9h1.4V25h1.6l3.1-3.9h1.7l-3.6,4.5v0l3.9,5.8H684l-3.5-5.2h-1.7v5.2h-1.4V16.9z"/>
		</g>
		<g>
			<g>
				<circle fill="#C14237" cx="705.6" cy="23.6" r="10.1"/>
			</g>
			<g>
				<g>
					<path fill="#FFFFFF" d="M702.8,27.4c-0.3,0-0.5-0.1-0.7-0.3c-0.4-0.4-0.4-1,0-1.4l5.5-5.5c0.4-0.4,1-0.4,1.4,0s0.4,1,0,1.4
						l-5.5,5.5C703.3,27.3,703.1,27.4,702.8,27.4z"/>
				</g>
				<g>
					<path fill="#FFFFFF" d="M708.3,27.4c-0.3,0-0.5-0.1-0.7-0.3l-5.5-5.5c-0.4-0.4-0.4-1,0-1.4s1-0.4,1.4,0l5.5,5.5
						c0.4,0.4,0.4,1,0,1.4C708.8,27.3,708.6,27.4,708.3,27.4z"/>
				</g>
			</g>
		</g>
	</g>
</g>
<g>
	<g>
		<polygon points="553,34.9 542,23.9 553,12.9 559,18.8 553.9,23.9 559,29 		"/>
	</g>
</g>
</svg>
