<!-- Generator: Adobe Illustrator 18.1.1, SVG Export Plug-In  -->
<svg version="1.1"
	 xmlns="http://www.w3.org/2000/svg" xmlns:xlink="http://www.w3.org/1999/xlink" xmlns:a="http://ns.adobe.com/AdobeSVGViewerExtensions/3.0/"
	 x="0px" y="0px" width="1066.8px" height="51px" viewBox="0 0 1066.8 51" enable-background="new 0 0 1066.8 51"
	 xml:space="preserve">
<defs>
</defs>
<g>
	<g>
		<path fill="#FFFFFF" d="M517,50H5c-2.2,0-4-1.8-4-4V6c0-2.2,1.8-4,4-4h512c2.2,0,4,1.8,4,4v40C521,48.2,519.2,50,517,50z"/>
		<path d="M517,51H5c-2.8,0-5-2.2-5-5V6c0-2.8,2.2-5,5-5h512c2.8,0,5,2.2,5,5v40C522,48.8,519.8,51,517,51z M5,3C3.3,3,2,4.3,2,6v40
			c0,1.7,1.3,3,3,3h512c1.7,0,3-1.3,3-3V6c0-1.7-1.3-3-3-3H5z"/>
	</g>
	<g>
		<path fill="#494949" d="M514.8,47.2H480c-1.5,0-2.7-1.2-2.7-2.7V8.3c0-1.5,1.2-2.7,2.7-2.7h34.8c1.5,0,2.7,1.2,2.7,2.7v36.2
			C517.5,46,516.3,47.2,514.8,47.2z"/>
	</g>
	<g>
		<path d="M20.7,16c4.2,0,6.5,2.1,6.5,2.1l-1,1.4c0,0-2.1-1.8-5.5-1.8c-4.4,0-7.4,3.4-7.4,7.7c0,4.5,3.1,7.8,7.3,7.8
			c3.6,0,5.7-2.7,5.7-2.7v-3.1h-3.1v-1.6H28v8.7h-1.7v-1.4c0-0.4,0-0.8,0-0.8h-0.1c0,0-2.1,2.5-6,2.5c-5,0-8.9-4-8.9-9.5
			C11.5,20.1,15.4,16,20.7,16z"/>
		<path d="M37.8,21.2c3.8,0,6.9,2.9,6.9,6.8c0,4-3.1,6.9-6.9,6.9c-3.8,0-6.9-3-6.9-6.9C30.9,24.1,34,21.2,37.8,21.2z M37.8,33.3
			c2.8,0,5.1-2.3,5.1-5.3c0-3-2.3-5.2-5.1-5.2c-2.8,0-5.1,2.2-5.1,5.2C32.7,31,35,33.3,37.8,33.3z"/>
		<path d="M54,21.2c3.8,0,6.9,2.9,6.9,6.8c0,4-3.1,6.9-6.9,6.9c-3.8,0-6.9-3-6.9-6.9C47.1,24.1,50.2,21.2,54,21.2z M54,33.3
			c2.8,0,5.1-2.3,5.1-5.3c0-3-2.3-5.2-5.1-5.2c-2.8,0-5.1,2.2-5.1,5.2C48.9,31,51.2,33.3,54,33.3z"/>
		<path d="M69.2,21.2c3.2,0,4.3,2.5,4.3,2.5h0.1c0,0-0.1-0.4-0.1-1v-6.4h1.8v18.3h-1.7v-1.4c0-0.6,0.1-0.9,0.1-0.9h-0.1
			c0,0-1.1,2.6-4.5,2.6c-3.5,0-5.7-2.8-5.7-6.9C63.4,23.9,65.8,21.2,69.2,21.2z M69.3,33.3c2.2,0,4.2-1.6,4.2-5.3
			c0-2.7-1.4-5.3-4.2-5.3c-2.3,0-4.2,2-4.2,5.3C65.2,31.2,66.9,33.3,69.3,33.3z"/>
		<path d="M87,16.3h5.4c1.9,0,2.7,0.2,3.4,0.5c1.7,0.8,2.8,2.5,2.8,4.7c0,2.5-1.4,4.4-3.5,4.9v0.1c0,0,0.2,0.2,0.5,0.7l4,7.4h-2.1
			l-4.1-7.7h-4.6v7.7H87V16.3z M93.2,25.2c2.2,0,3.6-1.4,3.6-3.7c0-1.5-0.6-2.6-1.7-3.2c-0.5-0.3-1.2-0.4-2.6-0.4h-3.7v7.4H93.2z"/>
		<path d="M108.4,21.2c3.6,0,5.5,2.8,5.5,6c0,0.3-0.1,0.9-0.1,0.9h-10c0.1,3.4,2.4,5.2,5.1,5.2c2.4,0,4-1.6,4-1.6l0.8,1.4
			c0,0-1.9,1.8-4.8,1.8c-3.9,0-6.8-2.8-6.8-6.8C101.9,23.7,104.9,21.2,108.4,21.2z M112.1,26.7c-0.1-2.7-1.8-4-3.7-4
			c-2.2,0-4.1,1.4-4.5,4H112.1z"/>
		<path d="M124.2,26.5h0.7v-0.3c0-2.5-1.4-3.4-3.2-3.4c-2.2,0-3.7,1.2-3.7,1.2l-0.8-1.4c0,0,1.7-1.5,4.7-1.5c3.1,0,4.9,1.7,4.9,5
			v8.4H125v-1.4c0-0.6,0.1-1.1,0.1-1.1H125c0,0-1.1,2.8-4.4,2.8c-2.2,0-4.4-1.3-4.4-3.9C116.2,26.6,121.9,26.5,124.2,26.5z
			 M120.9,33.4c2.5,0,4-2.6,4-4.9v-0.6h-0.8c-2.1,0-6.2,0.1-6.2,3C118,32.1,118.9,33.4,120.9,33.4z"/>
		<path d="M135.8,21.2c3.2,0,4.3,2.5,4.3,2.5h0.1c0,0-0.1-0.4-0.1-1v-6.4h1.8v18.3h-1.7v-1.4c0-0.6,0.1-0.9,0.1-0.9h-0.1
			c0,0-1.1,2.6-4.5,2.6c-3.5,0-5.7-2.8-5.7-6.9C129.9,23.9,132.3,21.2,135.8,21.2z M135.8,33.3c2.2,0,4.2-1.6,4.2-5.3
			c0-2.7-1.4-5.3-4.2-5.3c-2.3,0-4.2,2-4.2,5.3C131.7,31.2,133.4,33.3,135.8,33.3z"/>
	</g>
	<g>
		<path fill="#FFFFFF" d="M485.6,29.7h2.5v-8c0-0.3,0-0.6,0-0.6h0c0,0-0.1,0.2-0.5,0.7l-1.2,1.2l-0.7-0.7l2.5-2.5h1v10h2.4v1h-5.9
			V29.7z"/>
		<path fill="#FFFFFF" d="M493.1,25.2c0-3.1,0.9-5.7,3.8-5.7c2.8,0,3.8,2.5,3.8,5.7c0,3.2-0.9,5.7-3.8,5.7
			C494,30.9,493.1,28.4,493.1,25.2z M499.5,25.2c0-2.6-0.6-4.6-2.6-4.6c-2.1,0-2.7,2-2.7,4.6c0,2.6,0.6,4.7,2.7,4.7
			C498.9,29.9,499.5,27.8,499.5,25.2z"/>
		<path fill="#FFFFFF" d="M503,19.7h1.1v6.1h1.2l2.3-3h1.3l-2.7,3.4v0l3,4.4h-1.3l-2.6-3.9H504v3.9H503V19.7z"/>
	</g>
</g>
<g>
	<g>
		<path fill="#FFFFFF" d="M1060,1H822.8v49H1060c3.1,0,5.8-2.9,5.8-6.2V6C1065.8,2.7,1063.1,1,1060,1z"/>
		<path d="M1060,51H821.8V0H1060c4,0,6.8,2.5,6.8,6v37.8C1066.8,47.6,1063.6,51,1060,51z M823.8,49H1060c2.5,0,4.8-2.4,4.8-5.2V6
			c0-2.9-2.6-4-4.8-4H823.8V49z"/>
	</g>
	<g>
		<path fill="#494949" d="M906.5,17.2h4.9c2.3,0,3.9,1.4,3.9,3.6c0,1.5-0.7,2.6-1.8,3.1v0c1.5,0.4,2.4,1.8,2.4,3.6
			c0,2.6-1.9,4-4.3,4h-5.1V17.2z M911.4,23.4c1.5,0,2.4-1,2.4-2.5c0-1.5-0.9-2.5-2.5-2.5h-3.5v5H911.4z M911.6,30.3
			c1.7,0,2.8-1.1,2.8-2.8c0-1.7-1.2-2.9-2.9-2.9h-3.7v5.7H911.6z"/>
		<path fill="#494949" d="M924.4,25.2h0.6v-0.3c0-2-1.1-2.7-2.6-2.7c-1.7,0-2.9,1-2.9,1l-0.7-1.1c0,0,1.4-1.2,3.7-1.2
			c2.5,0,3.9,1.4,3.9,4v6.6h-1.3v-1.1c0-0.5,0-0.9,0-0.9h0c0,0-0.9,2.2-3.5,2.2c-1.7,0-3.5-1-3.5-3.1
			C918.1,25.3,922.6,25.2,924.4,25.2z M921.8,30.7c2,0,3.2-2.1,3.2-3.8v-0.5h-0.6c-1.6,0-4.9,0.1-4.9,2.3
			C919.5,29.7,920.3,30.7,921.8,30.7z"/>
		<path fill="#494949" d="M933.6,21c2.5,0,3.4,2,3.4,2h0c0,0,0-0.3,0-0.8v-5h1.4v14.4H937v-1.1c0-0.5,0-0.7,0-0.7h0
			c0,0-0.8,2.1-3.6,2.1c-2.8,0-4.5-2.2-4.5-5.4C928.9,23.2,930.9,21,933.6,21z M933.7,30.6c1.7,0,3.3-1.2,3.3-4.2
			c0-2.1-1.1-4.1-3.3-4.1c-1.8,0-3.3,1.5-3.3,4.1C930.4,29,931.7,30.6,933.7,30.6z"/>
		<path fill="#494949" d="M947.7,25.1h5.8v1.3h-5.8V25.1z"/>
		<path fill="#494949" d="M963.1,31.2l0.5-1.3c0,0,0.9,0.5,2.1,0.5c3,0,4.6-3,4.8-5.8h0c-0.7,1-2.2,1.7-3.7,1.7
			c-2.6,0-4.5-1.9-4.5-4.7c0-3,2-4.8,4.5-4.8c3.1,0,5.2,2.9,5.2,6.8c0,3.6-1.9,8.2-6.3,8.2C964.1,31.8,963.1,31.2,963.1,31.2z
			 M970.5,22.7c0-1.9-1.5-4.4-3.7-4.4c-2,0-3.1,1.5-3.1,3.5c0,2.1,1.3,3.4,3.3,3.4C969,25.1,970.5,23.8,970.5,22.7z"/>
		<path fill="#494949" d="M975.1,17.2h1.4v8.1h1.6l3.1-3.9h1.7l-3.6,4.5v0l3.9,5.8h-1.7l-3.5-5.2h-1.7v5.2h-1.4V17.2z"/>
	</g>
</g>
<g>
	<g>
		<path fill="#494949" d="M584.2,1c-3.3,0-6.4,1.5-6.4,4.8v37.8c0,3.3,3.2,6.4,6.4,6.4h238.6V1H584.2z"/>
		<path d="M823.8,51H584.2c-3.8,0-7.4-3.6-7.4-7.4V5.8c0-3.4,3.1-5.8,7.4-5.8h239.6V51z M584.2,2c-2.7,0-5.4,1.2-5.4,3.8v37.8
			c0,2.7,2.7,5.4,5.4,5.4h237.6V2H584.2z"/>
	</g>
	<g>
		<path fill="#FFFFFF" d="M639.9,16.9c3.3,0,5.1,1.7,5.1,1.7l-0.8,1.1c0,0-1.7-1.4-4.3-1.4c-3.5,0-5.9,2.7-5.9,6.1
			c0,3.6,2.4,6.2,5.7,6.2c2.8,0,4.5-2.1,4.5-2.1v-2.4h-2.5v-1.3h3.8v6.9h-1.3v-1.1c0-0.3,0-0.6,0-0.6h0c0,0-1.7,2-4.7,2
			c-3.9,0-7.1-3.2-7.1-7.5C632.6,20.2,635.8,16.9,639.9,16.9z"/>
		<path fill="#FFFFFF" d="M653.5,21c3,0,5.5,2.3,5.5,5.4c0,3.1-2.4,5.5-5.5,5.5s-5.5-2.3-5.5-5.5C648,23.3,650.5,21,653.5,21z
			 M653.5,30.6c2.2,0,4-1.8,4-4.2c0-2.3-1.8-4.1-4-4.1s-4,1.7-4,4.1C649.4,28.8,651.3,30.6,653.5,30.6z"/>
		<path fill="#FFFFFF" d="M666.2,21c3,0,5.5,2.3,5.5,5.4c0,3.1-2.4,5.5-5.5,5.5c-3,0-5.5-2.3-5.5-5.5C660.8,23.3,663.2,21,666.2,21z
			 M666.2,30.6c2.2,0,4-1.8,4-4.2c0-2.3-1.8-4.1-4-4.1c-2.2,0-4,1.7-4,4.1C662.2,28.8,664,30.6,666.2,30.6z"/>
		<path fill="#FFFFFF" d="M678.3,21c2.5,0,3.4,2,3.4,2h0c0,0,0-0.3,0-0.8v-5h1.4v14.4h-1.4v-1.1c0-0.5,0-0.7,0-0.7h0
			c0,0-0.8,2.1-3.6,2.1c-2.8,0-4.5-2.2-4.5-5.4C673.6,23.1,675.6,21,678.3,21z M678.3,30.6c1.7,0,3.3-1.2,3.3-4.2
			c0-2.1-1.1-4.1-3.3-4.1c-1.8,0-3.3,1.5-3.3,4.1C675.1,28.9,676.4,30.6,678.3,30.6z"/>
		<path fill="#FFFFFF" d="M692.4,25.1h5.8v1.3h-5.8V25.1z"/>
		<path fill="#FFFFFF" d="M707,30.3h3.2V19.7c0-0.4,0-0.8,0-0.8h0c0,0-0.1,0.3-0.7,0.9l-1.5,1.5l-0.9-0.9l3.3-3.2h1.3v13.2h3.2v1.3
			H707V30.3z"/>
		<path fill="#FFFFFF" d="M716.9,24.3c0-4.1,1.2-7.5,5-7.5c3.8,0,5,3.3,5,7.5c0,4.2-1.2,7.5-5,7.5C718.1,31.8,716.9,28.5,716.9,24.3
			z M725.4,24.3c0-3.4-0.8-6.1-3.5-6.1c-2.8,0-3.5,2.7-3.5,6.1c0,3.5,0.8,6.1,3.5,6.1C724.6,30.5,725.4,27.8,725.4,24.3z"/>
		<path fill="#FFFFFF" d="M730,17.1h1.4v8.1h1.6l3.1-3.9h1.7l-3.6,4.5v0l3.9,5.8h-1.7l-3.5-5.2h-1.7v5.2H730V17.1z"/>
	</g>
	<g>
		<g>
			<circle fill="#C14237" cx="758.6" cy="25" r="10.1"/>
		</g>
		<g>
			<g>
				<path fill="#FFFFFF" d="M755.8,28.7c-0.3,0-0.5-0.1-0.7-0.3c-0.4-0.4-0.4-1,0-1.4l5.5-5.5c0.4-0.4,1-0.4,1.4,0s0.4,1,0,1.4
					l-5.5,5.5C756.3,28.6,756.1,28.7,755.8,28.7z"/>
			</g>
			<g>
				<path fill="#FFFFFF" d="M761.3,28.7c-0.3,0-0.5-0.1-0.7-0.3l-5.5-5.5c-0.4-0.4-0.4-1,0-1.4s1-0.4,1.4,0L762,27
					c0.4,0.4,0.4,1,0,1.4C761.8,28.6,761.6,28.7,761.3,28.7z"/>
			</g>
		</g>
	</g>
</g>
<g>
	<g>
		<polygon points="553,35.9 542,24.9 553,13.9 559,19.8 553.9,24.9 559,30 		"/>
	</g>
</g>
</svg>
