<!-- Generator: Adobe Illustrator 18.1.1, SVG Export Plug-In  -->
<svg version="1.1"
	 xmlns="http://www.w3.org/2000/svg" xmlns:xlink="http://www.w3.org/1999/xlink" xmlns:a="http://ns.adobe.com/AdobeSVGViewerExtensions/3.0/"
	 x="0px" y="0px" width="1066.8px" height="51px" viewBox="0 0 1066.8 51" enable-background="new 0 0 1066.8 51"
	 xml:space="preserve">
<defs>
</defs>
<g>
	<path fill="#FFFFFF" stroke="#000000" stroke-width="2" stroke-miterlimit="10" d="M517,50H5c-2.2,0-4-1.8-4-4V6c0-2.2,1.8-4,4-4
		h512c2.2,0,4,1.8,4,4v40C521,48.2,519.2,50,517,50z"/>
	<path fill="#494949" d="M514.8,47.2H480c-1.5,0-2.7-1.2-2.7-2.7V8.3c0-1.5,1.2-2.7,2.7-2.7h34.8c1.5,0,2.7,1.2,2.7,2.7v36.2
		C517.5,46,516.3,47.2,514.8,47.2z"/>
	<text transform="matrix(1 0 0 1 10.0306 34.5576)" font-family="'MuseoSans-300'" font-size="26">Good Read</text>
	<text transform="matrix(1 0 0 1 484.7105 30.6895)" fill="#FFFFFF" font-family="'MuseoSans-300'" font-size="15.5627">10k</text>
</g>
<g>
	<path fill="#FFFFFF" stroke="#000000" stroke-width="2" stroke-miterlimit="10" d="M1060,1H822.8v49H1060c3.1,0,5.8-2.9,5.8-6.2V6
		C1065.8,2.7,1063.1,1,1060,1z"/>
	<g>
		<text transform="matrix(1 0 0 1 904.3987 31.5944)" fill="#494949" font-family="'MuseoSans-300'" font-size="20.5433">Bad - 9k </text>
	</g>
</g>
<g>
	<path fill="#494949" stroke="#000000" stroke-width="2" stroke-miterlimit="10" d="M584.2,1c-3.3,0-6.4,1.5-6.4,4.8v37.8
		c0,3.3,3.2,6.4,6.4,6.4h238.6V1H584.2z"/>
	<g>
		<text transform="matrix(1 0 0 1 631.5119 31.5667)" fill="#FFFFFF" font-family="'MuseoSans-300'" font-size="20.5433">Good - 10k </text>
	</g>
	<g>
		<circle fill="#C14237" cx="758.6" cy="25" r="10.1"/>
		<g>
			
				<line fill="none" stroke="#FFFFFF" stroke-width="2" stroke-linecap="round" stroke-miterlimit="10" x1="761.3" y1="22.3" x2="755.8" y2="27.7"/>
			
				<line fill="none" stroke="#FFFFFF" stroke-width="2" stroke-linecap="round" stroke-miterlimit="10" x1="755.8" y1="22.3" x2="761.3" y2="27.7"/>
		</g>
	</g>
</g>
<g>
	<polygon points="553,35.9 542,24.9 553,13.9 559,19.8 553.9,24.9 559,30 	"/>
</g>
</svg>
