<!-- Generator: Adobe Illustrator 18.1.1, SVG Export Plug-In  -->
<svg version="1.1"
	 xmlns="http://www.w3.org/2000/svg" xmlns:xlink="http://www.w3.org/1999/xlink" xmlns:a="http://ns.adobe.com/AdobeSVGViewerExtensions/3.0/"
	 x="0px" y="0px" width="151.9px" height="122.2px" viewBox="0 0 151.9 122.2" enable-background="new 0 0 151.9 122.2"
	 xml:space="preserve">
<defs>
</defs>
<g>
	<path fill="#FFFFFF" stroke="#A6A8AB" stroke-width="8" stroke-miterlimit="10" d="M131.7,118.2H20.2C11.3,118.2,4,111,4,102V20.2
		C4,11.3,11.3,4,20.2,4h111.4c9,0,16.2,7.3,16.2,16.2V102C147.9,111,140.6,118.2,131.7,118.2z"/>
	<g>
		<path fill="#C14237" d="M68.4,84.3c-5.1,3-13.4,4.5-20.8,4.5c-17.1,0-24.4-10.3-24.4-25.6c0-20.9,11.7-35.8,34.3-35.8
			c6.6,0,14,1.7,18,4.7l-2.1,16.1l-8.8-0.7l-0.2-7.6c0-1.1-0.3-1.6-1.1-1.8c-1.6-0.7-3.9-1.1-6.9-1.1c-11.9,0-20.1,8.7-20.1,25.4
			c0,11.2,4.8,17.1,13.6,17.1c3.3,0,6.4-0.2,8.4-1.1c0.7-0.3,1-0.7,1.2-1.6l2.4-7.8h8.6L68.4,84.3z"/>
	</g>
	<g>
		<path fill="#C14237" d="M109.2,87.9l-0.5-0.4l-4.5-20.2c-0.5-2.4-1.3-3.7-4.2-3.7h-3.9l-2.2,15.8c-0.2,1.3-0.1,1.5,1,1.6l4.8,0.7
			L99,87.9H74.1l0.7-6.2l5.2-0.6c1.1-0.1,1.3-0.3,1.5-1.6l6.1-42.7c0.2-1.1,0-1.5-1.1-1.6l-4.9-0.6l0.7-6.1h26.9
			c12.6,0,17.1,6.8,17.1,14.5c0,9.3-5.2,14.5-13,17.6c2.2,1.1,3,3.1,3.8,6.6l2.7,12.1c0.2,1.2,0.8,1.6,2.1,1.7l5,0.7l-0.8,6.2H109.2
			z M101.1,55.1c6.5,0,12.3-2.1,12.3-10.5c0-5.2-3-7.1-9.6-7.1h-4l-2.4,17.6H101.1z"/>
	</g>
</g>
</svg>
