<!-- Generator: Adobe Illustrator 18.1.1, SVG Export Plug-In  -->
<svg version="1.1"
	 xmlns="http://www.w3.org/2000/svg" xmlns:xlink="http://www.w3.org/1999/xlink" xmlns:a="http://ns.adobe.com/AdobeSVGViewerExtensions/3.0/"
	 x="0px" y="0px" width="502.4px" height="196.2px" viewBox="0 0 502.4 196.2" enable-background="new 0 0 502.4 196.2"
	 xml:space="preserve">
<defs>
</defs>
<path fill="#494949" d="M497.4,195H264.9v-57.9h236.5V191C501.4,193.2,499.6,195,497.4,195z"/>
<path fill="none" stroke="#000000" stroke-width="2" stroke-miterlimit="10" d="M497.4,195H5c-2.2,0-4-1.8-4-4V5c0-2.2,1.8-4,4-4
	h492.4c2.2,0,4,1.8,4,4v186C501.4,193.2,499.6,195,497.4,195z"/>
<line fill="none" stroke="#000000" stroke-width="2" stroke-miterlimit="10" x1="0.9" y1="137.2" x2="500.9" y2="137.2"/>
<line fill="none" stroke="#000000" stroke-width="2" stroke-miterlimit="10" x1="264.9" y1="137.2" x2="264.9" y2="196.2"/>
<text transform="matrix(1 0 0 1 66.2613 173.3529)" font-family="'MuseoSans-300'" font-size="21.171">2.3k Upvotes</text>
<text transform="matrix(1 0 0 1 349.5562 173.3529)" fill="#FFFFFF" font-family="'MuseoSans-300'" font-size="21.171">Follow</text>
<path fill="#00B233" d="M479.2,41.2H22.5c-2.2,0-4-1.8-4-4v-19c0-2.2,1.8-4,4-4h456.7c2.2,0,4,1.8,4,4v19
	C483.2,39.4,481.4,41.2,479.2,41.2z"/>
<text transform="matrix(1 0 0 1 28.2443 31.8441)" fill="#FFFFFF" font-family="'MuseoSans-700'" font-size="12">Answered by Rob Simon, The Daily News</text>
</svg>
