<!-- Generator: Adobe Illustrator 18.1.1, SVG Export Plug-In  -->
<svg version="1.1"
	 xmlns="http://www.w3.org/2000/svg" xmlns:xlink="http://www.w3.org/1999/xlink" xmlns:a="http://ns.adobe.com/AdobeSVGViewerExtensions/3.0/"
	 x="0px" y="0px" width="502.4px" height="158.5px" viewBox="0 0 502.4 158.5" enable-background="new 0 0 502.4 158.5"
	 xml:space="preserve">
<defs>
</defs>
<g>
	<path d="M497.4,158.4H5c-2.8,0-5-2.2-5-5V5c0-2.8,2.2-5,5-5h492.4c2.8,0,5,2.2,5,5v148.4C502.4,156.1,500.2,158.4,497.4,158.4z
		 M5,2C3.3,2,2,3.3,2,5v148.4c0,1.7,1.3,3,3,3h492.4c1.7,0,3-1.3,3-3V5c0-1.7-1.3-3-3-3H5z"/>
</g>
<g>
	<rect x="0.9" y="98.5" width="500" height="2"/>
</g>
<g>
	<rect x="263.9" y="99.5" width="2" height="59"/>
</g>
<g>
	<path d="M67.5,134.7c0-5.2,7.6-5.9,7.6-9.9c0-1.6-1.2-2.9-3.1-2.9c-2.2,0-3.3,2-3.3,2l-1.1-0.7c0,0,1.4-2.7,4.5-2.7
		c2.8,0,4.5,1.8,4.5,4.2c0,5-7.5,5.7-7.5,9.7h7.8v1.3h-9.3C67.6,135.3,67.5,135,67.5,134.7z"/>
	<path d="M80,134h1.7v1.7H80V134z"/>
	<path d="M85.3,132.8c0,0,1.5,1.8,3.8,1.8c1.8,0,3.4-1.3,3.4-3.2c0-2.1-1.8-3.2-3.7-3.2h-1l-0.4-0.9l3.7-4.4
		c0.4-0.5,0.8-0.8,0.8-0.8v0c0,0-0.4,0.1-1.2,0.1h-5.6v-1.3h8.7v1l-4.4,5.1c1.9,0.1,4.7,1.2,4.7,4.4c0,2.5-2.1,4.7-4.9,4.7
		c-2.9,0-4.7-2-4.7-2L85.3,132.8z"/>
	<path d="M97.1,120.8h1.4v8.3h1.7l3.2-4.1h1.7l-3.7,4.6v0l4.1,6h-1.7l-3.6-5.3h-1.7v5.3h-1.4V120.8z"/>
	<path d="M113.6,120.8h1.5v9.7c0,2.6,1.7,4.1,4.2,4.1s4.2-1.5,4.2-4.1v-9.6h1.5v9.7c0,3.3-2.3,5.4-5.7,5.4c-3.4,0-5.7-2.1-5.7-5.4
		V120.8z"/>
	<path d="M128.7,125h1.4v1c0,0.5,0,0.8,0,0.8h0c0,0,0.9-2.1,3.7-2.1c2.9,0,4.6,2.3,4.6,5.6c0,3.4-2,5.6-4.8,5.6c-2.6,0-3.5-2-3.5-2
		h0c0,0,0,0.4,0,0.9v5.1h-1.4V125z M133.5,134.7c1.9,0,3.4-1.6,3.4-4.3c0-2.6-1.4-4.3-3.4-4.3c-1.8,0-3.4,1.3-3.4,4.3
		C130.1,132.5,131.3,134.7,133.5,134.7z"/>
	<path d="M139.7,125h1.5l3,7.8c0.2,0.5,0.4,1.3,0.4,1.3h0c0,0,0.2-0.7,0.4-1.3l2.9-7.8h1.5l-4.1,10.6h-1.6L139.7,125z"/>
	<path d="M156.3,124.8c3.1,0,5.6,2.4,5.6,5.5c0,3.2-2.5,5.6-5.6,5.6s-5.6-2.4-5.6-5.6C150.7,127.1,153.2,124.8,156.3,124.8z
		 M156.3,134.6c2.3,0,4.1-1.9,4.1-4.3c0-2.4-1.9-4.2-4.1-4.2c-2.3,0-4.1,1.8-4.1,4.2C152.2,132.8,154,134.6,156.3,134.6z"/>
	<path d="M165,126.4h-1.4v-1.2h1.4v-3.1h1.4v3.1h2.7v1.2h-2.7v5.3c0,2.5,1.6,2.8,2.4,2.8c0.3,0,0.5,0,0.5,0v1.3c0,0-0.2,0-0.6,0
		c-1.2,0-3.7-0.4-3.7-4V126.4z"/>
	<path d="M176.2,124.8c2.9,0,4.4,2.3,4.4,4.9c0,0.3,0,0.7,0,0.7h-8.2c0.1,2.7,1.9,4.2,4.1,4.2c1.9,0,3.2-1.3,3.2-1.3l0.7,1.1
		c0,0-1.5,1.5-3.9,1.5c-3.2,0-5.6-2.3-5.6-5.6C171,126.9,173.4,124.8,176.2,124.8z M179.2,129.2c-0.1-2.2-1.4-3.3-3-3.3
		c-1.8,0-3.3,1.1-3.7,3.3H179.2z"/>
	<path d="M183.4,133.4c0,0,1.2,1.3,3.2,1.3c1.1,0,2.1-0.6,2.1-1.7c0-2.3-5.7-1.8-5.7-5.2c0-1.9,1.7-2.9,3.6-2.9
		c2.2,0,3.3,1.2,3.3,1.2l-0.7,1.1c0,0-0.9-1-2.7-1c-1.1,0-2.1,0.5-2.1,1.7c0,2.3,5.7,1.7,5.7,5.2c0,1.7-1.5,3-3.6,3
		c-2.6,0-3.9-1.5-3.9-1.5L183.4,133.4z"/>
</g>
<g>
	<path d="M351.7,120.8h7.8v1.3h-6.4v5.6h5.5v1.3h-5.5v6.7h-1.5V120.8z"/>
	<path d="M367,124.8c3.1,0,5.6,2.4,5.6,5.5c0,3.2-2.5,5.6-5.6,5.6s-5.6-2.4-5.6-5.6C361.4,127.1,363.9,124.8,367,124.8z M367,134.6
		c2.3,0,4.1-1.9,4.1-4.3c0-2.4-1.9-4.2-4.1-4.2s-4.1,1.8-4.1,4.2C362.9,132.8,364.7,134.6,367,134.6z"/>
	<path d="M375.2,120.8h1.4v12c0,1.4,0.6,1.6,1.2,1.6c0.2,0,0.4,0,0.4,0v1.3c0,0-0.3,0-0.5,0c-0.9,0-2.5-0.3-2.5-2.6V120.8z"/>
	<path d="M380.5,120.8h1.4v12c0,1.4,0.6,1.6,1.2,1.6c0.2,0,0.4,0,0.4,0v1.3c0,0-0.3,0-0.5,0c-0.9,0-2.5-0.3-2.5-2.6V120.8z"/>
	<path d="M390.6,124.8c3.1,0,5.6,2.4,5.6,5.5c0,3.2-2.5,5.6-5.6,5.6s-5.6-2.4-5.6-5.6C385,127.1,387.5,124.8,390.6,124.8z
		 M390.6,134.6c2.3,0,4.1-1.9,4.1-4.3c0-2.4-1.9-4.2-4.1-4.2s-4.1,1.8-4.1,4.2C386.5,132.8,388.4,134.6,390.6,134.6z"/>
	<path d="M397.6,125h1.5l2.6,7.9c0.2,0.5,0.3,1.1,0.3,1.1h0c0,0,0.1-0.6,0.3-1.1l2.6-7.9h1.4l2.6,7.9c0.2,0.5,0.3,1.1,0.3,1.1h0
		c0,0,0.1-0.6,0.3-1.1l2.6-7.9h1.5l-3.6,10.6h-1.6l-2.6-7.6c-0.2-0.5-0.3-1.1-0.3-1.1h0c0,0-0.1,0.6-0.3,1.1l-2.6,7.6h-1.6
		L397.6,125z"/>
</g>
</svg>
