<!-- Generator: Adobe Illustrator 18.1.1, SVG Export Plug-In  -->
<svg version="1.1"
	 xmlns="http://www.w3.org/2000/svg" xmlns:xlink="http://www.w3.org/1999/xlink" xmlns:a="http://ns.adobe.com/AdobeSVGViewerExtensions/3.0/"
	 x="0px" y="0px" width="522px" height="151.6px" viewBox="0 0 522 151.6" enable-background="new 0 0 522 151.6"
	 xml:space="preserve">
<defs>
</defs>
<rect x="1" y="1" fill="none" width="520" height="149.6"/>
<g>
	<path fill="#494949" d="M517,150.6H5c-2.2,0-4-1.8-4-4V91.9h520v54.7C521,148.8,519.2,150.6,517,150.6z"/>
	<text transform="matrix(1 0 0 1 187.7517 128.2492)" opacity="0.84" fill="#FFFFFF" font-family="'MuseoSans-700'" font-size="22">Ask Questions</text>
</g>
<path fill="none" stroke="#000000" stroke-width="2" stroke-miterlimit="10" d="M517,150.6H5c-2.2,0-4-1.8-4-4V5c0-2.2,1.8-4,4-4
	h512c2.2,0,4,1.8,4,4v141.6C521,148.8,519.2,150.6,517,150.6z"/>
</svg>
