<!-- Generator: Adobe Illustrator 18.1.1, SVG Export Plug-In  -->
<svg version="1.1"
	 xmlns="http://www.w3.org/2000/svg" xmlns:xlink="http://www.w3.org/1999/xlink" xmlns:a="http://ns.adobe.com/AdobeSVGViewerExtensions/3.0/"
	 x="0px" y="0px" width="502.4px" height="196.2px" viewBox="0 0 502.4 196.2" enable-background="new 0 0 502.4 196.2"
	 xml:space="preserve">
<defs>
</defs>
<g>
	<path fill="#494949" d="M497.4,195H264.9v-57.9h236.5V191C501.4,193.2,499.6,195,497.4,195z"/>
</g>
<g>
	<path d="M497.4,196H5c-2.8,0-5-2.2-5-5V5c0-2.8,2.2-5,5-5h492.4c2.8,0,5,2.2,5,5v186C502.4,193.8,500.2,196,497.4,196z M5,2
		C3.3,2,2,3.3,2,5v186c0,1.7,1.3,3,3,3h492.4c1.7,0,3-1.3,3-3V5c0-1.7-1.3-3-3-3H5z"/>
</g>
<g>
	<rect x="0.9" y="136.2" width="500" height="2"/>
</g>
<g>
	<rect x="263.9" y="137.2" width="2" height="59"/>
</g>
<g>
	<path d="M67.5,172.4c0-5.2,7.6-5.9,7.6-9.9c0-1.6-1.2-2.9-3.1-2.9c-2.2,0-3.3,2-3.3,2l-1.1-0.7c0,0,1.4-2.7,4.5-2.7
		c2.8,0,4.5,1.8,4.5,4.2c0,5-7.5,5.7-7.5,9.7h7.8v1.3h-9.3C67.6,173,67.5,172.7,67.5,172.4z"/>
	<path d="M80,171.7h1.7v1.7H80V171.7z"/>
	<path d="M85.3,170.5c0,0,1.5,1.8,3.8,1.8c1.8,0,3.4-1.3,3.4-3.2c0-2.1-1.8-3.2-3.7-3.2h-1l-0.4-0.9l3.7-4.4
		c0.4-0.5,0.8-0.8,0.8-0.8v0c0,0-0.4,0.1-1.2,0.1h-5.6v-1.3h8.7v1l-4.4,5.1c1.9,0.1,4.7,1.2,4.7,4.4c0,2.5-2.1,4.7-4.9,4.7
		c-2.9,0-4.7-2-4.7-2L85.3,170.5z"/>
	<path d="M97.1,158.5h1.4v8.3h1.7l3.2-4.1h1.7l-3.7,4.6v0l4.1,6h-1.7l-3.6-5.3h-1.7v5.3h-1.4V158.5z"/>
	<path d="M113.6,158.5h1.5v9.7c0,2.6,1.7,4.1,4.2,4.1c2.6,0,4.2-1.5,4.2-4.1v-9.6h1.5v9.7c0,3.3-2.3,5.4-5.7,5.4
		c-3.4,0-5.7-2.1-5.7-5.4V158.5z"/>
	<path d="M128.7,162.7h1.4v1c0,0.5,0,0.8,0,0.8h0c0,0,0.9-2.1,3.7-2.1c2.9,0,4.6,2.3,4.6,5.6c0,3.4-2,5.6-4.8,5.6
		c-2.6,0-3.5-2-3.5-2h0c0,0,0,0.4,0,0.9v5.1h-1.4V162.7z M133.5,172.3c1.9,0,3.4-1.6,3.4-4.3c0-2.6-1.4-4.3-3.4-4.3
		c-1.8,0-3.5,1.3-3.5,4.3C130.1,170.2,131.3,172.3,133.5,172.3z"/>
	<path d="M139.7,162.7h1.5l3,7.8c0.2,0.5,0.4,1.3,0.4,1.3h0c0,0,0.2-0.7,0.4-1.3l2.9-7.8h1.5l-4.1,10.6h-1.6L139.7,162.7z"/>
	<path d="M156.3,162.5c3.1,0,5.6,2.4,5.6,5.5c0,3.2-2.5,5.6-5.6,5.6s-5.6-2.4-5.6-5.6C150.7,164.8,153.2,162.5,156.3,162.5z
		 M156.3,172.3c2.3,0,4.1-1.9,4.1-4.3c0-2.4-1.9-4.2-4.1-4.2s-4.1,1.8-4.1,4.2C152.2,170.5,154,172.3,156.3,172.3z"/>
	<path d="M165,164h-1.4v-1.2h1.4v-3.1h1.4v3.1h2.7v1.2h-2.7v5.3c0,2.5,1.6,2.8,2.4,2.8c0.3,0,0.5,0,0.5,0v1.3c0,0-0.2,0-0.6,0
		c-1.2,0-3.7-0.4-3.7-4V164z"/>
	<path d="M176.2,162.5c2.9,0,4.4,2.3,4.4,4.9c0,0.3,0,0.7,0,0.7h-8.2c0.1,2.7,1.9,4.2,4.1,4.2c1.9,0,3.2-1.3,3.2-1.3l0.7,1.1
		c0,0-1.5,1.5-3.9,1.5c-3.2,0-5.6-2.3-5.6-5.6C171,164.5,173.4,162.5,176.2,162.5z M179.2,166.9c-0.1-2.2-1.4-3.3-3-3.3
		c-1.8,0-3.3,1.1-3.7,3.3H179.2z"/>
	<path d="M183.4,171c0,0,1.2,1.3,3.2,1.3c1.1,0,2.1-0.6,2.1-1.7c0-2.3-5.7-1.8-5.7-5.2c0-1.9,1.7-2.9,3.6-2.9c2.2,0,3.3,1.2,3.3,1.2
		l-0.7,1.1c0,0-0.9-1-2.7-1c-1.1,0-2.1,0.5-2.1,1.7c0,2.3,5.7,1.7,5.7,5.2c0,1.7-1.5,3-3.6,3c-2.6,0-3.9-1.5-3.9-1.5L183.4,171z"/>
</g>
<g>
	<path fill="#FFFFFF" d="M336.7,158.5h7.8v1.3h-6.4v5.6h5.5v1.3h-5.5v6.7h-1.5V158.5z"/>
	<path fill="#FFFFFF" d="M352,162.5c3.1,0,5.6,2.4,5.6,5.5c0,3.2-2.5,5.6-5.6,5.6s-5.6-2.4-5.6-5.6
		C346.4,164.8,348.9,162.5,352,162.5z M352,172.3c2.3,0,4.1-1.9,4.1-4.3c0-2.4-1.9-4.2-4.1-4.2s-4.1,1.8-4.1,4.2
		C347.9,170.5,349.7,172.3,352,172.3z"/>
	<path fill="#FFFFFF" d="M360.2,158.5h1.4v12c0,1.4,0.6,1.6,1.2,1.6c0.2,0,0.4,0,0.4,0v1.3c0,0-0.3,0-0.5,0c-0.9,0-2.5-0.3-2.5-2.6
		V158.5z"/>
	<path fill="#FFFFFF" d="M365.5,158.5h1.4v12c0,1.4,0.6,1.6,1.2,1.6c0.2,0,0.4,0,0.4,0v1.3c0,0-0.3,0-0.5,0c-0.9,0-2.5-0.3-2.5-2.6
		V158.5z"/>
	<path fill="#FFFFFF" d="M375.6,162.5c3.1,0,5.6,2.4,5.6,5.5c0,3.2-2.5,5.6-5.6,5.6s-5.6-2.4-5.6-5.6
		C370,164.8,372.5,162.5,375.6,162.5z M375.6,172.3c2.3,0,4.1-1.9,4.1-4.3c0-2.4-1.9-4.2-4.1-4.2s-4.1,1.8-4.1,4.2
		C371.5,170.5,373.4,172.3,375.6,172.3z"/>
	<path fill="#FFFFFF" d="M382.6,162.7h1.5l2.6,7.9c0.2,0.5,0.3,1.1,0.3,1.1h0c0,0,0.1-0.6,0.3-1.1l2.6-7.9h1.4l2.6,7.9
		c0.2,0.5,0.3,1.1,0.3,1.1h0c0,0,0.1-0.6,0.3-1.1l2.6-7.9h1.5l-3.6,10.6h-1.6l-2.6-7.6c-0.2-0.5-0.3-1.1-0.3-1.1h0
		c0,0-0.1,0.6-0.3,1.1l-2.6,7.6h-1.6L382.6,162.7z"/>
	<path fill="#FFFFFF" d="M400.9,158.5h1.5v1.8h-1.5V158.5z M400.9,162.7h1.4v10.6h-1.4V162.7z"/>
	<path fill="#FFFFFF" d="M405.8,162.7h1.4v1.6c0,0.5,0,0.8,0,0.8h0c0.4-1,1.7-2.7,4.3-2.7c2.6,0,3.6,1.5,3.6,4.1v6.8h-1.4V167
		c0-1.7-0.3-3.2-2.3-3.2c-1.8,0-3.4,1.2-3.9,3c-0.1,0.4-0.2,0.9-0.2,1.4v5.1h-1.4V162.7z"/>
	<path fill="#FFFFFF" d="M422.1,176.5c2.1,0,3.7-1,3.7-3.3v-1c0-0.4,0-0.8,0-0.8h0c-0.6,1.2-1.7,1.9-3.4,1.9c-2.9,0-4.7-2.3-4.7-5.5
		c0-3.2,1.8-5.4,4.6-5.4c2.8,0,3.5,1.8,3.5,1.8h0c0,0,0-0.1,0-0.4v-1.2h1.4v10.4c0,3.4-2.5,4.7-5.1,4.7c-1.2,0-2.5-0.3-3.5-0.8
		l0.6-1.2C419.2,175.8,420.5,176.5,422.1,176.5z M425.8,167.8c0-3.1-1.5-4.1-3.4-4.1c-2.1,0-3.3,1.5-3.3,4s1.4,4.2,3.5,4.2
		C424.3,172,425.8,171,425.8,167.8z"/>
</g>
<g>
	<path fill="#00B233" d="M479.2,41.2H22.5c-2.2,0-4-1.8-4-4v-19c0-2.2,1.8-4,4-4h456.7c2.2,0,4,1.8,4,4v19
		C483.2,39.4,481.4,41.2,479.2,41.2z"/>
</g>
<g>
	<path fill="#FFFFFF" d="M33.6,29.7h-3l-0.7,2.2h-1.6l3-8.5h1.6l3,8.5h-1.6L33.6,29.7z M32.1,24.8c0,0-0.2,0.8-0.4,1.3l-0.8,2.3h2.2
		l-0.8-2.3C32.3,25.6,32.1,24.8,32.1,24.8L32.1,24.8z"/>
	<path fill="#FFFFFF" d="M36.7,25.7h1.5v0.7c0,0.2,0,0.4,0,0.4h0c0.3-0.5,0.9-1.3,2.2-1.3c1.4,0,2.1,0.7,2.1,2.3v3.9H41v-3.6
		c0-0.7-0.2-1.2-1-1.2c-0.8,0-1.4,0.5-1.6,1.2c-0.1,0.3-0.1,0.5-0.1,0.8v2.8h-1.5V25.7z"/>
	<path fill="#FFFFFF" d="M44.3,30c0,0,0.7,0.7,1.7,0.7c0.4,0,0.8-0.2,0.8-0.6c0-0.9-3-0.8-3-2.8c0-1.1,1-1.8,2.3-1.8
		c1.4,0,2.1,0.7,2.1,0.7l-0.6,1.1c0,0-0.6-0.5-1.5-0.5c-0.4,0-0.8,0.2-0.8,0.6c0,0.9,3,0.8,3,2.7c0,1-0.9,1.8-2.3,1.8
		c-1.5,0-2.4-0.9-2.4-0.9L44.3,30z"/>
	<path fill="#FFFFFF" d="M48.8,25.7h1.6l1.1,4c0.1,0.3,0.1,0.6,0.1,0.6h0c0,0,0.1-0.3,0.1-0.6l1.1-4h1.4l1.1,4
		c0.1,0.3,0.1,0.6,0.1,0.6h0c0,0,0-0.3,0.1-0.6l1.1-4h1.6l-1.9,6.1h-1.7l-1-3.5c-0.1-0.3-0.2-0.7-0.2-0.7h0c0,0,0,0.3-0.1,0.7
		l-1,3.5h-1.7L48.8,25.7z"/>
	<path fill="#FFFFFF" d="M62,25.6c1.8,0,2.7,1.3,2.7,2.9c0,0.2,0,0.6,0,0.6h-4.2c0.1,1.1,0.9,1.6,1.8,1.6c1,0,1.8-0.7,1.8-0.7
		l0.6,1.1c0,0-0.9,0.9-2.5,0.9c-2,0-3.3-1.5-3.3-3.2C58.9,26.9,60.2,25.6,62,25.6z M63.2,28c0-0.8-0.5-1.3-1.2-1.3
		c-0.8,0-1.3,0.5-1.5,1.3H63.2z"/>
	<path fill="#FFFFFF" d="M66,25.7h1.5v1.1c0,0.2,0,0.4,0,0.4h0c0.3-0.9,1-1.6,1.9-1.6c0.1,0,0.3,0,0.3,0v1.5c0,0-0.2,0-0.4,0
		c-0.6,0-1.4,0.4-1.7,1.3c-0.1,0.3-0.1,0.6-0.1,1v2.4H66V25.7z"/>
	<path fill="#FFFFFF" d="M73.4,25.6c1.8,0,2.7,1.3,2.7,2.9c0,0.2,0,0.6,0,0.6h-4.2c0.1,1.1,0.9,1.6,1.8,1.6c1,0,1.8-0.7,1.8-0.7
		l0.6,1.1c0,0-0.9,0.9-2.5,0.9c-2,0-3.3-1.5-3.3-3.2C70.3,26.9,71.6,25.6,73.4,25.6z M74.6,28c0-0.8-0.5-1.3-1.2-1.3
		c-0.8,0-1.3,0.5-1.5,1.3H74.6z"/>
	<path fill="#FFFFFF" d="M79.7,25.6c1.3,0,1.8,0.8,1.8,0.8h0c0,0,0-0.2,0-0.3v-2.7H83v8.5h-1.4v-0.5c0-0.2,0-0.4,0-0.4h0
		c0,0-0.5,1-1.9,1C78,32,77,30.7,77,28.8C77,26.8,78.1,25.6,79.7,25.6z M80,30.7c0.8,0,1.5-0.6,1.5-1.9c0-0.9-0.5-1.9-1.5-1.9
		c-0.8,0-1.5,0.7-1.5,1.9C78.5,29.9,79.1,30.7,80,30.7z"/>
	<path fill="#FFFFFF" d="M87.6,23.3h1.5V26c0,0.3,0,0.5,0,0.5h0c0,0,0.5-0.9,1.8-0.9c1.7,0,2.7,1.3,2.7,3.2c0,1.9-1.2,3.2-2.8,3.2
		c-1.3,0-1.8-0.9-1.8-0.9h0c0,0,0,0.2,0,0.4v0.3h-1.4V23.3z M90.6,30.7c0.8,0,1.5-0.7,1.5-1.9c0-1.2-0.6-1.9-1.5-1.9
		c-0.8,0-1.5,0.6-1.5,1.9C89.1,29.8,89.6,30.7,90.6,30.7z"/>
	<path fill="#FFFFFF" d="M94.6,32.8c0,0,0.3,0.3,0.7,0.3c0.4,0,0.8-0.3,1.1-0.8l0.2-0.5l-2.6-6h1.7l1.3,3.5c0.1,0.3,0.2,0.8,0.2,0.8
		h0c0,0,0.1-0.5,0.2-0.8l1.2-3.5h1.7l-2.7,7c-0.4,1.1-1.3,1.6-2.2,1.6c-0.7,0-1.3-0.4-1.3-0.4L94.6,32.8z"/>
	<path fill="#FFFFFF" d="M104.4,23.3h2.7c0.9,0,1.3,0.1,1.7,0.2c0.9,0.4,1.4,1.2,1.4,2.3c0,1-0.5,2-1.4,2.3v0c0,0,0.1,0.1,0.3,0.4
		l1.8,3.2h-1.7l-1.7-3.2h-1.5v3.2h-1.5V23.3z M107.3,27.3c0.8,0,1.3-0.5,1.3-1.3c0-0.8-0.3-1.3-1.6-1.3h-1.2v2.7H107.3z"/>
	<path fill="#FFFFFF" d="M114.9,25.6c1.9,0,3.4,1.3,3.4,3.2c0,1.9-1.5,3.2-3.4,3.2c-1.9,0-3.4-1.3-3.4-3.2
		C111.5,26.9,113,25.6,114.9,25.6z M114.9,30.7c1,0,1.8-0.8,1.8-1.9c0-1.1-0.8-1.9-1.8-1.9c-1,0-1.8,0.8-1.8,1.9
		C113,29.9,113.9,30.7,114.9,30.7z"/>
	<path fill="#FFFFFF" d="M119.5,23.3h1.5V26c0,0.3,0,0.5,0,0.5h0c0,0,0.5-0.9,1.8-0.9c1.7,0,2.7,1.3,2.7,3.2c0,1.9-1.2,3.2-2.8,3.2
		c-1.3,0-1.8-0.9-1.8-0.9h0c0,0,0,0.2,0,0.4v0.3h-1.4V23.3z M122.5,30.7c0.8,0,1.5-0.7,1.5-1.9c0-1.2-0.6-1.9-1.5-1.9
		c-0.8,0-1.5,0.6-1.5,1.9C120.9,29.8,121.4,30.7,122.5,30.7z"/>
	<path fill="#FFFFFF" d="M130.1,29.7c0,0,0.9,0.9,2.1,0.9c0.6,0,1.2-0.3,1.2-1c0-1.5-4-1.3-4-3.9c0-1.4,1.2-2.5,2.9-2.5
		c1.7,0,2.5,0.9,2.5,0.9l-0.7,1.3c0,0-0.8-0.7-1.9-0.7c-0.7,0-1.3,0.4-1.3,1c0,1.5,4,1.1,4,3.9c0,1.4-1,2.5-2.8,2.5
		c-1.9,0-2.9-1.2-2.9-1.2L130.1,29.7z"/>
	<path fill="#FFFFFF" d="M136.4,23.3h1.5v1.4h-1.5V23.3z M136.4,25.7h1.5v6.1h-1.5V25.7z"/>
	<path fill="#FFFFFF" d="M139.6,25.7h1.5v0.7c0,0.2,0,0.4,0,0.4h0c0.3-0.6,1-1.3,2-1.3c0.9,0,1.5,0.4,1.8,1.3h0
		c0.3-0.7,1.1-1.3,2.1-1.3c1.3,0,2,0.7,2,2.3v3.9h-1.5v-3.6c0-0.7-0.1-1.2-0.8-1.2c-0.8,0-1.3,0.6-1.5,1.4c-0.1,0.2-0.1,0.5-0.1,0.8
		v2.7h-1.5v-3.6c0-0.7-0.1-1.2-0.8-1.2c-0.8,0-1.3,0.6-1.5,1.4c-0.1,0.2-0.1,0.5-0.1,0.8v2.7h-1.5V25.7z"/>
	<path fill="#FFFFFF" d="M153.4,25.6c1.9,0,3.4,1.3,3.4,3.2c0,1.9-1.5,3.2-3.4,3.2c-1.9,0-3.4-1.3-3.4-3.2
		C150.1,26.9,151.6,25.6,153.4,25.6z M153.4,30.7c1,0,1.8-0.8,1.8-1.9c0-1.1-0.8-1.9-1.8-1.9c-1,0-1.8,0.8-1.8,1.9
		C151.6,29.9,152.4,30.7,153.4,30.7z"/>
	<path fill="#FFFFFF" d="M158,25.7h1.5v0.7c0,0.2,0,0.4,0,0.4h0c0.3-0.5,0.9-1.3,2.2-1.3c1.4,0,2.1,0.7,2.1,2.3v3.9h-1.5v-3.6
		c0-0.7-0.2-1.2-1-1.2c-0.8,0-1.4,0.5-1.6,1.2c-0.1,0.3-0.1,0.5-0.1,0.8v2.8H158V25.7z"/>
	<path fill="#FFFFFF" d="M165.5,30.3h1.5l-1.2,2.8h-1.2L165.5,30.3z"/>
	<path fill="#FFFFFF" d="M173.5,24.7h-2.8v-1.3h7.1v1.3H175v7.2h-1.5V24.7z"/>
	<path fill="#FFFFFF" d="M178.7,23.3h1.5v3c0,0.3,0,0.5,0,0.5h0c0.3-0.6,1-1.2,2.1-1.2c1.4,0,2.1,0.7,2.1,2.3v3.9h-1.5v-3.6
		c0-0.7-0.2-1.2-1-1.2c-0.8,0-1.4,0.5-1.7,1.3c-0.1,0.2-0.1,0.5-0.1,0.8v2.8h-1.5V23.3z"/>
	<path fill="#FFFFFF" d="M188.7,25.6c1.8,0,2.7,1.3,2.7,2.9c0,0.2,0,0.6,0,0.6h-4.2c0.1,1.1,0.9,1.6,1.8,1.6c1,0,1.8-0.7,1.8-0.7
		l0.6,1.1c0,0-0.9,0.9-2.5,0.9c-2,0-3.3-1.5-3.3-3.2C185.6,26.9,186.9,25.6,188.7,25.6z M189.9,28c0-0.8-0.5-1.3-1.2-1.3
		c-0.8,0-1.3,0.5-1.5,1.3H189.9z"/>
	<path fill="#FFFFFF" d="M195.9,23.3h2.9c2.6,0,4.3,1.6,4.3,4.2s-1.7,4.3-4.3,4.3h-2.9V23.3z M198.7,30.5c1.7,0,2.8-1,2.8-2.9
		c0-1.9-1.1-2.9-2.8-2.9h-1.3v5.9H198.7z"/>
	<path fill="#FFFFFF" d="M207.6,28h0.2v-0.1c0-0.8-0.5-1.1-1.2-1.1c-0.9,0-1.7,0.6-1.7,0.6l-0.6-1.1c0,0,0.9-0.8,2.4-0.8
		c1.6,0,2.5,0.9,2.5,2.4v3.8h-1.4v-0.5c0-0.2,0-0.4,0-0.4h0c0,0-0.5,1.1-1.9,1.1c-1.1,0-2.1-0.7-2.1-1.9C204,28.1,206.6,28,207.6,28
		z M206.4,30.8c0.8,0,1.4-0.9,1.4-1.6V29h-0.3c-0.8,0-2,0.1-2,1C205.5,30.4,205.8,30.8,206.4,30.8z"/>
	<path fill="#FFFFFF" d="M210.9,23.3h1.5v1.4h-1.5V23.3z M210.9,25.7h1.5v6.1h-1.5V25.7z"/>
	<path fill="#FFFFFF" d="M214,23.3h1.5v6.4c0,0.7,0.2,0.8,0.6,0.8c0.1,0,0.2,0,0.2,0v1.3c0,0-0.2,0-0.5,0c-0.8,0-1.9-0.2-1.9-2V23.3
		z"/>
	<path fill="#FFFFFF" d="M217.2,32.8c0,0,0.3,0.3,0.7,0.3c0.4,0,0.8-0.3,1.1-0.8l0.2-0.5l-2.6-6h1.7l1.3,3.5
		c0.1,0.3,0.2,0.8,0.2,0.8h0c0,0,0.1-0.5,0.2-0.8l1.2-3.5h1.7l-2.7,7c-0.4,1.1-1.3,1.6-2.2,1.6c-0.7,0-1.3-0.4-1.3-0.4L217.2,32.8z"
		/>
	<path fill="#FFFFFF" d="M226.9,23.3h1.5l3.2,4.9c0.3,0.5,0.7,1.3,0.7,1.3h0c0,0-0.1-0.8-0.1-1.3v-4.9h1.5v8.5h-1.5l-3.2-4.9
		c-0.3-0.5-0.7-1.3-0.7-1.3h0c0,0,0.1,0.8,0.1,1.3v4.9h-1.5V23.3z"/>
	<path fill="#FFFFFF" d="M238.5,25.6c1.8,0,2.7,1.3,2.7,2.9c0,0.2,0,0.6,0,0.6h-4.2c0.1,1.1,0.9,1.6,1.8,1.6c1,0,1.8-0.7,1.8-0.7
		l0.6,1.1c0,0-0.9,0.9-2.5,0.9c-2,0-3.3-1.5-3.3-3.2C235.4,26.9,236.6,25.6,238.5,25.6z M239.6,28c0-0.8-0.5-1.3-1.2-1.3
		c-0.8,0-1.3,0.5-1.5,1.3H239.6z"/>
	<path fill="#FFFFFF" d="M241.8,25.7h1.6l1.1,4c0.1,0.3,0.1,0.6,0.1,0.6h0c0,0,0.1-0.3,0.1-0.6l1.1-4h1.4l1.1,4
		c0.1,0.3,0.1,0.6,0.1,0.6h0c0,0,0-0.3,0.1-0.6l1.1-4h1.6l-1.9,6.1h-1.7l-1-3.5c-0.1-0.3-0.2-0.7-0.2-0.7h0c0,0,0,0.3-0.1,0.7
		l-1,3.5h-1.7L241.8,25.7z"/>
	<path fill="#FFFFFF" d="M252.5,30c0,0,0.7,0.7,1.7,0.7c0.4,0,0.8-0.2,0.8-0.6c0-0.9-3-0.8-3-2.8c0-1.1,1-1.8,2.3-1.8
		c1.4,0,2.1,0.7,2.1,0.7l-0.6,1.1c0,0-0.6-0.5-1.5-0.5c-0.4,0-0.8,0.2-0.8,0.6c0,0.9,3,0.8,3,2.7c0,1-0.9,1.8-2.3,1.8
		c-1.5,0-2.4-0.9-2.4-0.9L252.5,30z"/>
</g>
<g>
	<g>
		<defs>
			<rect id="SVGID_1_" x="461.1" y="21.5" width="15.8" height="12.3"/>
		</defs>
		<clipPath id="SVGID_2_">
			<use xlink:href="#SVGID_1_"  overflow="visible"/>
		</clipPath>
		<g clip-path="url(#SVGID_2_)">
			<path fill="#FFFFFF" d="M474.7,33.6h-13.4c-0.2,0-0.3-0.1-0.3-0.3v-9.6c0-0.1,0.1-0.3,0.3-0.3h6c0.1,0,0.2,0.1,0.3,0.2
				c0,0.1,0,0.2-0.2,0.3l0,0c-0.1,0-0.1,0.1-0.2,0.1c-1,0.5-1.8,1-2.5,1.7c-0.1,0.1-0.1,0.1-0.2,0.1h-1v5.2h9v-1.3
				c0-0.1,0-0.2,0.1-0.2l1.9-1.3c0.1-0.1,0.2-0.1,0.3,0c0.1,0,0.1,0.1,0.1,0.2v4.8C475,33.4,474.9,33.6,474.7,33.6L474.7,33.6z
				 M474.7,33.6"/>
		</g>
		<g clip-path="url(#SVGID_2_)">
			<path fill="#FFFFFF" d="M470.9,29.8c0,0-0.1,0-0.1,0c-0.1,0-0.1-0.1-0.1-0.2v-2.2c-0.9,0-1.7,0-2.3,0.1c-3,0.4-3.8,2.2-3.8,2.2
				c-0.1,0.1-0.2,0.2-0.3,0.2c-0.1,0-0.2-0.1-0.2-0.3c0-4.5,5.4-5.5,6.6-5.6v-2.1c0-0.1,0.1-0.2,0.1-0.2c0.1,0,0.2,0,0.3,0l5.7,3.9
				c0.1,0.1,0.1,0.1,0.1,0.2c0,0.1,0,0.2-0.1,0.2l-5.7,3.9C471,29.8,471,29.8,470.9,29.8L470.9,29.8z M470.9,29.8"/>
		</g>
	</g>
</g>
</svg>
