<!-- Generator: Adobe Illustrator 18.1.1, SVG Export Plug-In  -->
<svg version="1.1"
	 xmlns="http://www.w3.org/2000/svg" xmlns:xlink="http://www.w3.org/1999/xlink" xmlns:a="http://ns.adobe.com/AdobeSVGViewerExtensions/3.0/"
	 x="0px" y="0px" width="522.2px" height="151.6px" viewBox="0 0 522.2 151.6" enable-background="new 0 0 522.2 151.6"
	 xml:space="preserve">
<defs>
</defs>
<g>
	<rect x="2.2" y="1" fill="none" width="520" height="149.6"/>
</g>
<g>
	<g>
		<path fill="#494949" d="M517,150.6H5c-2.2,0-4-1.8-4-4V91.9h520v54.7C521,148.8,519.2,150.6,517,150.6z"/>
	</g>
	<g opacity="0.84">
		<path fill="#FFFFFF" d="M202.5,124.2H197l-1.3,4h-2.9l5.5-15.6h3l5.5,15.6h-2.9L202.5,124.2z M199.7,115.3c0,0-0.4,1.5-0.7,2.4
			l-1.4,4.2h4.1l-1.4-4.2C200.1,116.9,199.8,115.3,199.7,115.3L199.7,115.3z"/>
		<path fill="#FFFFFF" d="M208.6,124.9c0,0,1.2,1.2,3.1,1.2c0.8,0,1.5-0.4,1.5-1c0-1.7-5.5-1.5-5.5-5.1c0-2.1,1.9-3.3,4.3-3.3
			c2.5,0,3.8,1.3,3.8,1.3l-1,2.1c0,0-1-1-2.8-1c-0.7,0-1.4,0.3-1.4,1c0,1.6,5.5,1.4,5.5,5c0,1.9-1.6,3.4-4.3,3.4
			c-2.8,0-4.4-1.6-4.4-1.6L208.6,124.9z"/>
		<path fill="#FFFFFF" d="M218.2,112.6h2.8v8.4h1.4l2.7-4h3.1l-3.5,5v0l4,6.2h-3.2l-3-4.9H221v4.9h-2.8V112.6z"/>
		<path fill="#FFFFFF" d="M243.1,112.4c4.6,0,8.1,3.5,8.1,8c0,1.9-0.7,3.6-1.7,5l1.8,1.6l-1.6,1.8l-1.7-1.7c-1.3,1-2.9,1.5-4.8,1.5
			c-4.6,0-8.1-3.6-8.1-8.2C235.1,115.9,238.5,112.4,243.1,112.4z M243.1,125.9c0.9,0,2-0.3,2.7-0.8l-1.7-1.7l1.6-1.8l1.7,1.7
			c0.5-0.9,0.9-1.9,0.9-3c0-3.1-2.3-5.4-5.2-5.4c-2.9,0-5.1,2.3-5.1,5.4C238,123.5,240.3,125.9,243.1,125.9z"/>
		<path fill="#FFFFFF" d="M253.7,117h2.8v6.6c0,1.4,0.4,2.3,1.7,2.3c2,0,3.1-1.8,3.1-3.8V117h2.8v11.2h-2.7V127c0-0.4,0-0.8,0-0.8h0
			c-0.6,1.2-2,2.3-3.9,2.3c-2.4,0-3.9-1.2-3.9-4.3V117z"/>
		<path fill="#FFFFFF" d="M272.2,116.8c3.2,0,5,2.4,5,5.3c0,0.3-0.1,1.1-0.1,1.1h-7.7c0.2,2,1.7,3,3.4,3c1.8,0,3.2-1.2,3.2-1.2
			l1.1,2c0,0-1.7,1.6-4.5,1.6c-3.7,0-6-2.7-6-5.9C266.5,119.2,268.8,116.8,272.2,116.8z M274.3,121.3c0-1.5-1-2.3-2.2-2.3
			c-1.4,0-2.4,0.9-2.7,2.3H274.3z"/>
		<path fill="#FFFFFF" d="M279.8,124.9c0,0,1.2,1.2,3.1,1.2c0.8,0,1.5-0.4,1.5-1c0-1.7-5.5-1.5-5.5-5.1c0-2.1,1.9-3.3,4.3-3.3
			c2.5,0,3.8,1.3,3.8,1.3l-1,2.1c0,0-1-1-2.8-1c-0.7,0-1.4,0.3-1.4,1c0,1.6,5.5,1.4,5.5,5c0,1.9-1.6,3.4-4.3,3.4
			c-2.8,0-4.4-1.6-4.4-1.6L279.8,124.9z"/>
		<path fill="#FFFFFF" d="M289.9,119.4h-1.5v-2.2h1.5V114h2.7v3.2h2.6v2.2h-2.6v4.4c0,1.8,1.5,2.1,2.2,2.1c0.3,0,0.5,0,0.5,0v2.4
			c0,0-0.3,0.1-0.9,0.1c-1.6,0-4.7-0.5-4.7-4.2V119.4z"/>
		<path fill="#FFFFFF" d="M297.7,112.6h2.8v2.5h-2.8V112.6z M297.7,117h2.8v11.2h-2.8V117z"/>
		<path fill="#FFFFFF" d="M308.9,116.8c3.4,0,6.2,2.4,6.2,5.9c0,3.5-2.8,5.9-6.2,5.9c-3.4,0-6.2-2.4-6.2-5.9
			C302.7,119.2,305.5,116.8,308.9,116.8z M308.9,126.1c1.8,0,3.3-1.4,3.3-3.5c0-2.1-1.5-3.5-3.3-3.5c-1.8,0-3.3,1.4-3.3,3.5
			C305.6,124.7,307.1,126.1,308.9,126.1z"/>
		<path fill="#FFFFFF" d="M317.3,117h2.7v1.3c0,0.4,0,0.8,0,0.8h0c0.5-0.9,1.7-2.3,4-2.3c2.5,0,3.9,1.3,3.9,4.3v7.2h-2.8v-6.6
			c0-1.4-0.4-2.3-1.8-2.3c-1.5,0-2.6,0.9-3,2.3c-0.2,0.5-0.2,1-0.2,1.5v5.1h-2.8V117z"/>
	</g>
</g>
<g>
	<path d="M517,151.6H5c-2.8,0-5-2.2-5-5V5c0-2.8,2.2-5,5-5h512c2.8,0,5,2.2,5,5v141.6C522,149.3,519.8,151.6,517,151.6z M5,2
		C3.3,2,2,3.3,2,5v141.6c0,1.7,1.3,3,3,3h512c1.7,0,3-1.3,3-3V5c0-1.7-1.3-3-3-3H5z"/>
</g>
</svg>
