<!-- Generator: Adobe Illustrator 18.1.1, SVG Export Plug-In  -->
<svg version="1.1"
	 xmlns="http://www.w3.org/2000/svg" xmlns:xlink="http://www.w3.org/1999/xlink" xmlns:a="http://ns.adobe.com/AdobeSVGViewerExtensions/3.0/"
	 x="0px" y="0px" width="453.2px" height="37.7px" viewBox="0 0 453.2 37.7" enable-background="new 0 0 453.2 37.7"
	 xml:space="preserve">
<defs>
</defs>
<g>
	<path d="M0.2,10.2h1.4l1.7-8.8H2l0.2-1.2h4.4L6.4,1.4H5l-1.7,8.8h1.4l-0.2,1.2H0L0.2,10.2z"/>
	<path d="M7.3,8.4l0.7-3.8H6.7l0.2-1.2h1.4l0.4-2.2h1.5L9.8,3.4h2l-0.2,1.2h-2L8.9,8.4c0,0.2-0.1,0.5-0.1,0.6c0,1.1,0.7,1.3,1.3,1.3
		c0.3,0,0.4,0,0.4,0l-0.3,1.3c0,0-0.3,0-0.5,0c-1.2,0-2.6-0.4-2.6-2.4C7.2,8.9,7.3,8.7,7.3,8.4z"/>
	<path d="M14.6,0h1.6l-1.8,3.5h-1.2L14.6,0z"/>
	<path d="M15.6,8.9h1.4l-0.1,0.5c-0.2,0.9,1.1,1,1.7,1c1,0,1.8-0.4,1.8-1.2c0-1.5-3.9-1.1-3.9-3.6c0-1.6,1.7-2.5,3.4-2.5
		c1.3,0,2.8,0.5,2.5,1.7l-0.2,0.9h-1.4L21,5.2c0.1-0.6-0.8-0.8-1.3-0.8c-0.9,0-1.7,0.4-1.7,1.1c0,1.6,3.9,1,3.9,3.5
		c0,1.6-1.4,2.7-3.6,2.7c-1.4,0-3.2-0.5-2.9-2L15.6,8.9z"/>
	<path d="M29.5,1.4h-1.4l0.2-1.2h2.9l-0.7,3.7c-0.1,0.4-0.2,0.7-0.2,0.7h0c0.6-0.8,1.6-1.4,2.7-1.4c1.9,0,3,1.3,3,3.3
		c0,3.1-2.2,5.2-4.4,5.2c-1.1,0-2.1-0.5-2.5-1.5h0c0,0,0,0.3-0.1,0.7L29,11.5h-1.5L29.5,1.4z M31.6,10.3c1.4,0,3-1.4,3-3.7
		c0-1.3-0.7-2.1-1.8-2.1c-1.7,0-3,1.8-3,3.7C29.8,9.4,30.3,10.3,31.6,10.3z"/>
	<path d="M42.1,3.2c2.1,0,3.1,1.2,3.1,3c0,0.7-0.3,1.4-0.3,1.4H39c0,0-0.1,0.3-0.1,0.6c0,1.2,0.8,2.2,2.3,2.2c1.4,0,2.6-0.9,2.6-0.9
		l0.4,1.2c0,0-1.4,1.1-3.1,1.1c-2.4,0-3.8-1.4-3.8-3.5C37.4,5.5,39.4,3.2,42.1,3.2z M43.6,6.6c0,0,0-0.3,0-0.5
		c0-1.1-0.6-1.6-1.6-1.6c-1.2,0-2.3,0.8-2.8,2.2H43.6z"/>
	<path d="M51,3.2c2.1,0,3.1,1.2,3.1,3c0,0.7-0.3,1.4-0.3,1.4h-5.9c0,0-0.1,0.3-0.1,0.6c0,1.2,0.8,2.2,2.3,2.2c1.4,0,2.6-0.9,2.6-0.9
		l0.4,1.2c0,0-1.4,1.1-3.1,1.1c-2.4,0-3.8-1.4-3.8-3.5C46.3,5.5,48.3,3.2,51,3.2z M52.5,6.6c0,0,0-0.3,0-0.5c0-1.1-0.6-1.6-1.6-1.6
		c-1.2,0-2.3,0.8-2.8,2.2H52.5z"/>
	<path d="M56.9,4.9c0-0.2,0-0.4-0.3-0.4h-1l0.2-1.2h1.8c0.6,0,0.9,0.2,0.9,0.7c0,0.2-0.1,0.8-0.2,1.1h0c0.2-0.5,1.4-2,3.4-2
		c1.4,0,2.2,0.7,2.2,2.1c0,1-0.7,3.6-0.7,4.3c0,0.6,0.3,0.7,0.7,0.7c0.2,0,0.4,0,0.4,0l-0.2,1.2c0,0-0.3,0-0.7,0
		c-0.7,0-1.8-0.1-1.8-1.5c0-0.8,0.7-3.4,0.7-4.2c0-0.8-0.4-1.2-1.2-1.2c-1.6,0-3,1.5-3.3,3.2l-0.7,3.6h-1.6L56.9,4.9z"/>
	<path d="M71.7,4.6h-1.3l0.2-1.2h1.3L72,3c0.5-2.7,2.6-3,3.5-3c0.4,0,0.7,0,0.7,0L76,1.4c0,0-0.2,0-0.5,0c-0.5,0-1.6,0.1-1.9,1.6
		l-0.1,0.4h2l-0.2,1.2h-2l-1.3,6.9h-1.6L71.7,4.6z"/>
	<path d="M80.6,3.2c2.2,0,3.7,1.4,3.7,3.5c0,2.8-2.5,4.9-5.1,4.9c-2.2,0-3.7-1.5-3.7-3.6C75.5,5.3,78,3.2,80.6,3.2z M79.4,10.3
		c1.7,0,3.4-1.5,3.4-3.5c0-1.3-0.9-2.3-2.3-2.3c-1.7,0-3.4,1.5-3.4,3.5C77.1,9.4,78,10.3,79.4,10.3z"/>
	<path d="M86.4,8.5l0.8-3.9h-1.3L86,3.4h2.9L88,8.2c-0.1,0.3-0.1,0.7-0.1,0.9c0,0.7,0.3,1.1,1.2,1.1c1.6,0,2.9-1.7,3.2-3.2l0.5-2.5
		h-1.3l0.2-1.2h2.9l-1.1,5.7c0,0.2,0,0.4,0,0.5c0,0.6,0.3,0.7,0.7,0.7c0.2,0,0.4,0,0.4,0l-0.2,1.2c0,0-0.4,0-0.7,0
		c-1.1,0-1.7-0.6-1.6-1.8h0c-0.5,0.8-1.6,1.9-3.3,1.9c-1.2,0-2.3-0.6-2.3-2.1C86.3,9.2,86.3,8.9,86.4,8.5z"/>
	<path d="M97.8,4.9c0-0.2,0-0.4-0.3-0.4h-1l0.3-1.2h1.8c0.6,0,0.9,0.2,0.9,0.7c0,0.2-0.2,1-0.3,1.4h0c0.5-1.2,1.6-2.2,2.9-2.2
		c0.2,0,0.4,0,0.5,0l-0.3,1.5c-0.1,0-0.2,0-0.4,0c-1.5,0-2.8,1.8-3.2,3.7l-0.6,3h-1.6L97.8,4.9z"/>
	<path d="M108.4,4.9c0-0.2,0-0.3-0.3-0.3h-1l0.2-1.2h1.8c0.6,0,0.9,0.2,0.9,0.7c0,0.2-0.1,0.8-0.2,1.1h0c0.4-0.7,1.7-2,3.2-2
		c1.3,0,2,0.7,2,2h0c0.6-1.1,1.8-2,3.2-2c1.4,0,2.2,0.8,2.2,2.1c0,1-0.7,3.6-0.7,4.3c0,0.6,0.3,0.7,0.7,0.7c0.2,0,0.4,0,0.4,0
		l-0.2,1.2c0,0-0.3,0-0.7,0c-0.7,0-1.8-0.1-1.8-1.5c0-0.8,0.7-3.5,0.7-4.2c0-0.7-0.3-1.2-1.2-1.2c-1.5,0-2.7,1.6-2.9,3.2l-0.7,3.7
		h-1.6l0.9-4.8c0-0.3,0.1-0.6,0.1-0.9c0-0.7-0.3-1.1-1.2-1.1c-1.6,0-2.7,1.7-3,3.3l-0.7,3.6h-1.6L108.4,4.9z"/>
	<path d="M127.5,3.2c2.2,0,3.7,1.4,3.7,3.5c0,2.8-2.5,4.9-5.1,4.9c-2.2,0-3.7-1.5-3.7-3.6C122.4,5.3,124.9,3.2,127.5,3.2z
		 M126.3,10.3c1.7,0,3.4-1.5,3.4-3.5c0-1.3-0.9-2.3-2.3-2.3c-1.7,0-3.4,1.5-3.4,3.5C124,9.4,124.9,10.3,126.3,10.3z"/>
	<path d="M134.1,4.9c0-0.2,0-0.4-0.3-0.4h-1l0.2-1.2h1.8c0.6,0,0.9,0.2,0.9,0.7c0,0.2-0.1,0.8-0.2,1.1h0c0.2-0.5,1.4-2,3.4-2
		c1.4,0,2.2,0.7,2.2,2.1c0,1-0.7,3.6-0.7,4.3c0,0.6,0.3,0.7,0.7,0.7c0.2,0,0.4,0,0.4,0l-0.2,1.2c0,0-0.3,0-0.7,0
		c-0.7,0-1.8-0.1-1.8-1.5c0-0.8,0.7-3.4,0.7-4.2c0-0.8-0.4-1.2-1.2-1.2c-1.6,0-3,1.5-3.3,3.2l-0.7,3.6h-1.6L134.1,4.9z"/>
	<path d="M143.8,8.4l0.7-3.8h-1.4l0.2-1.2h1.4l0.4-2.2h1.5l-0.4,2.2h2L148,4.6h-2l-0.7,3.8c0,0.2-0.1,0.5-0.1,0.6
		c0,1.1,0.7,1.3,1.3,1.3c0.3,0,0.4,0,0.4,0l-0.3,1.3c0,0-0.3,0-0.5,0c-1.2,0-2.6-0.4-2.6-2.4C143.7,8.9,143.7,8.7,143.8,8.4z"/>
	<path d="M150.6,1.4h-1.3l0.2-1.2h2.9l-0.8,4.2c-0.1,0.4-0.2,0.7-0.2,0.7h0c0.2-0.5,1.5-1.9,3.3-1.9c1.4,0,2.3,0.7,2.3,2.1
		c0,1-0.7,3.6-0.7,4.3c0,0.6,0.3,0.7,0.7,0.7c0.2,0,0.4,0,0.4,0l-0.2,1.2c0,0-0.3,0-0.7,0c-0.7,0-1.8-0.1-1.8-1.5
		c0-0.8,0.7-3.4,0.7-4.2c0-0.8-0.4-1.2-1.2-1.2c-1.6,0-3,1.5-3.3,3.2l-0.7,3.6h-1.5L150.6,1.4z"/>
	<path d="M158.7,8.9h1.4L160,9.4c-0.2,0.9,1.1,1,1.7,1c1,0,1.8-0.4,1.8-1.2c0-1.5-3.9-1.1-3.9-3.6c0-1.6,1.7-2.5,3.4-2.5
		c1.3,0,2.8,0.5,2.5,1.7l-0.2,0.9h-1.4l0.1-0.6c0.1-0.6-0.8-0.8-1.3-0.8c-0.9,0-1.7,0.4-1.7,1.1c0,1.6,3.9,1,3.9,3.5
		c0,1.6-1.4,2.7-3.6,2.7c-1.4,0-3.2-0.5-2.9-2L158.7,8.9z"/>
	<path d="M166.9,9.8h1.7l-0.3,1.7h-1.7L166.9,9.8z"/>
	<path d="M176.8,1.4h-1.1l0.2-1.2h4l-0.2,1.2h-1.3l0.3,7.4c0,0.4,0,0.8,0,0.8h0.1c0,0,0.1-0.4,0.3-0.8l4-8.6h1.4l0.7,8.6
		c0,0.4,0,0.8,0,0.8h0c0,0,0.1-0.4,0.3-0.8l3.2-7.4h-1.3l0.2-1.2h4.1l-0.2,1.2h-1.1l-4.5,10.1h-1.8l-0.6-8c0-0.4,0-0.9,0-0.9h-0.1
		c0,0-0.1,0.5-0.3,0.9l-3.8,8h-1.8L176.8,1.4z"/>
	<path d="M193.2,1.4h-1.3l0.2-1.2h2.9l-0.8,4.2c-0.1,0.4-0.2,0.7-0.2,0.7h0c0.2-0.5,1.5-1.9,3.3-1.9c1.4,0,2.3,0.7,2.3,2.1
		c0,1-0.7,3.6-0.7,4.3c0,0.6,0.3,0.7,0.7,0.7c0.2,0,0.4,0,0.4,0l-0.2,1.2c0,0-0.3,0-0.7,0c-0.7,0-1.8-0.1-1.8-1.5
		c0-0.8,0.7-3.4,0.7-4.2c0-0.8-0.4-1.2-1.2-1.2c-1.6,0-3,1.5-3.3,3.2l-0.7,3.6h-1.5L193.2,1.4z"/>
	<path d="M201.6,13.5c0.7,0,1.3-0.5,1.7-1.1l0.5-0.8l-1.5-7h-1l0.2-1.2h3.6l-0.2,1.2h-1.1l0.9,4.8c0.1,0.4,0,0.7,0,0.7h0
		c0,0,0.1-0.4,0.3-0.7l2.7-4.8h-1l0.2-1.2h3.6l-0.2,1.2h-1l-4.8,8.2c-0.8,1.5-1.9,2.1-3.1,2.1c-1.2,0-1.8-0.5-1.8-0.5l0.7-1.1
		C200.5,13.2,200.9,13.5,201.6,13.5z"/>
	<path d="M216.6,1.4h-1.3l0.2-1.2h2.9l-0.8,4.2c-0.1,0.4-0.2,0.7-0.2,0.7h0c0.2-0.5,1.5-1.9,3.3-1.9c1.4,0,2.3,0.7,2.3,2.1
		c0,1-0.7,3.6-0.7,4.3c0,0.6,0.3,0.7,0.7,0.7c0.2,0,0.4,0,0.4,0l-0.2,1.2c0,0-0.3,0-0.7,0c-0.7,0-1.8-0.1-1.8-1.5
		c0-0.8,0.7-3.4,0.7-4.2c0-0.8-0.4-1.2-1.2-1.2c-1.6,0-3,1.5-3.3,3.2l-0.7,3.6h-1.5L216.6,1.4z"/>
	<path d="M229.9,6.5h0.4c0,0,0.1-0.5,0.1-0.8c0-0.8-0.4-1.2-1.5-1.2c-1.3,0-2.4,0.8-2.4,0.8L226.2,4c0,0,1.4-0.8,3.1-0.8
		c1.5,0,2.8,0.6,2.8,2.3c0,0.9-0.7,3.4-0.7,4.1c0,0.6,0.3,0.7,0.7,0.7c0.2,0,0.4,0,0.4,0l-0.2,1.2c0,0-0.3,0-0.7,0
		c-0.9,0-1.6-0.4-1.7-1.5h0c0,0-1,1.6-2.9,1.6c-1.3,0-2.4-0.7-2.4-2C224.5,7.1,227.7,6.5,229.9,6.5z M227.3,10.5
		c1.3,0,2.4-1.5,2.8-2.6l0.1-0.3h-0.4c-1.1,0-3.7,0.2-3.7,1.9C226.1,10,226.4,10.5,227.3,10.5z"/>
	<path d="M233.6,8.9h1.4l-0.1,0.5c-0.2,0.9,1.1,1,1.7,1c1,0,1.8-0.4,1.8-1.2c0-1.5-3.9-1.1-3.9-3.6c0-1.6,1.7-2.5,3.4-2.5
		c1.3,0,2.8,0.5,2.5,1.7l-0.2,0.9H239l0.1-0.6c0.1-0.6-0.8-0.8-1.3-0.8c-0.9,0-1.7,0.4-1.7,1.1c0,1.6,3.9,1,3.9,3.5
		c0,1.6-1.4,2.7-3.6,2.7c-1.4,0-3.2-0.5-2.9-2L233.6,8.9z"/>
	<path d="M243.4,4.9c0-0.2,0-0.4-0.3-0.4h-1l0.2-1.2h1.8c0.6,0,0.9,0.2,0.9,0.7c0,0.2-0.1,0.8-0.2,1.1h0c0.2-0.5,1.4-2,3.4-2
		c1.4,0,2.2,0.7,2.2,2.1c0,1-0.7,3.6-0.7,4.3c0,0.6,0.3,0.7,0.7,0.7c0.2,0,0.4,0,0.4,0l-0.2,1.2c0,0-0.3,0-0.7,0
		c-0.7,0-1.8-0.1-1.8-1.5c0-0.8,0.7-3.4,0.7-4.2c0-0.8-0.4-1.2-1.2-1.2c-1.6,0-3,1.5-3.3,3.2l-0.7,3.6h-1.6L243.4,4.9z"/>
	<path d="M254.6,0h1.6l-1.8,3.5h-1.2L254.6,0z"/>
	<path d="M256.7,8.4l0.7-3.8h-1.4l0.2-1.2h1.4l0.4-2.2h1.5l-0.4,2.2h2L261,4.6h-2l-0.7,3.8c0,0.2-0.1,0.5-0.1,0.6
		c0,1.1,0.7,1.3,1.3,1.3c0.3,0,0.4,0,0.4,0l-0.3,1.3c0,0-0.3,0-0.5,0c-1.2,0-2.6-0.4-2.6-2.4C256.6,8.9,256.7,8.7,256.7,8.4z"/>
	<path d="M266.5,8.4l0.7-3.8h-1.4l0.2-1.2h1.4l0.4-2.2h1.5L269,3.4h2l-0.2,1.2h-2L268,8.4c0,0.2-0.1,0.5-0.1,0.6
		c0,1.1,0.7,1.3,1.3,1.3c0.3,0,0.4,0,0.4,0l-0.3,1.3c0,0-0.3,0-0.5,0c-1.2,0-2.6-0.4-2.6-2.4C266.4,8.9,266.4,8.7,266.5,8.4z"/>
	<path d="M273.3,1.4H272l0.2-1.2h2.9l-0.8,4.2c-0.1,0.4-0.2,0.7-0.2,0.7h0c0.2-0.5,1.5-1.9,3.3-1.9c1.4,0,2.3,0.7,2.3,2.1
		c0,1-0.7,3.6-0.7,4.3c0,0.6,0.3,0.7,0.7,0.7c0.2,0,0.4,0,0.4,0l-0.2,1.2c0,0-0.3,0-0.7,0c-0.7,0-1.8-0.1-1.8-1.5
		c0-0.8,0.7-3.4,0.7-4.2c0-0.8-0.4-1.2-1.2-1.2c-1.6,0-3,1.5-3.3,3.2l-0.7,3.6h-1.5L273.3,1.4z"/>
	<path d="M286.4,3.2c2.1,0,3.1,1.2,3.1,3c0,0.7-0.3,1.4-0.3,1.4h-5.9c0,0-0.1,0.3-0.1,0.6c0,1.2,0.8,2.2,2.3,2.2
		c1.4,0,2.6-0.9,2.6-0.9l0.4,1.2c0,0-1.4,1.1-3.1,1.1c-2.4,0-3.8-1.4-3.8-3.5C281.6,5.5,283.6,3.2,286.4,3.2z M287.8,6.6
		c0,0,0-0.3,0-0.5c0-1.1-0.6-1.6-1.6-1.6c-1.2,0-2.3,0.8-2.8,2.2H287.8z"/>
	<path d="M295.9,7l1.1-5.6h-1.4l0.2-1.2h4.4L300,1.4h-1.4L297.5,7c-0.1,0.4-0.1,0.8-0.1,1.2c0,1.3,0.9,2.1,2.4,2.1
		c0.9,0,1.6-0.2,2.2-0.7c0.6-0.5,1-1.2,1.2-2.1l1.2-6h-1.4l0.2-1.2h4.4l-0.2,1.2h-1.4l-1.2,6.1c-0.3,1.4-1,2.6-2,3.3
		c-0.8,0.5-1.9,0.8-3,0.8c-2.3,0-4-1.2-4-3.3C295.7,7.9,295.8,7.4,295.9,7z"/>
	<path d="M308.9,4.9c0-0.2,0-0.4-0.3-0.4h-1l0.2-1.2h1.8c0.6,0,0.9,0.2,0.9,0.7c0,0.2-0.1,0.8-0.2,1.1h0c0.2-0.5,1.4-2,3.4-2
		c1.4,0,2.2,0.7,2.2,2.1c0,1-0.7,3.6-0.7,4.3c0,0.6,0.3,0.7,0.7,0.7c0.2,0,0.4,0,0.4,0l-0.2,1.2c0,0-0.3,0-0.7,0
		c-0.7,0-1.8-0.1-1.8-1.5c0-0.8,0.7-3.4,0.7-4.2c0-0.8-0.4-1.2-1.2-1.2c-1.6,0-3,1.5-3.3,3.2l-0.7,3.6h-1.6L308.9,4.9z"/>
	<path d="M318.6,9.3l0.9-4.7h-1.4l0.2-1.2h2.9l-1.1,5.7c0,0.2-0.1,0.4-0.1,0.5c0,0.6,0.3,0.7,0.7,0.7c0.2,0,0.4,0,0.4,0l-0.2,1.2
		c0,0-0.4,0-0.6,0c-0.8,0-1.8-0.1-1.8-1.6C318.5,9.8,318.5,9.5,318.6,9.3z M320.3,0.2h1.6l-0.3,1.6H320L320.3,0.2z"/>
	<path d="M323.9,4.6h-1l0.2-1.2h3.6l-0.2,1.2h-1l0.8,4.7c0.1,0.4,0,0.8,0,0.8h0c0,0,0.1-0.4,0.3-0.8l2.6-4.7h-1l0.2-1.2h3.7
		l-0.2,1.2h-1l-4,6.9h-1.7L323.9,4.6z"/>
	<path d="M336.8,3.2c2.1,0,3.1,1.2,3.1,3c0,0.7-0.3,1.4-0.3,1.4h-5.9c0,0-0.1,0.3-0.1,0.6c0,1.2,0.8,2.2,2.3,2.2
		c1.4,0,2.6-0.9,2.6-0.9l0.4,1.2c0,0-1.4,1.1-3.1,1.1c-2.4,0-3.8-1.4-3.8-3.5C332.1,5.5,334.1,3.2,336.8,3.2z M338.3,6.6
		c0,0,0-0.3,0-0.5c0-1.1-0.6-1.6-1.6-1.6c-1.2,0-2.3,0.8-2.8,2.2H338.3z"/>
	<path d="M342.7,4.9c0-0.2,0-0.4-0.3-0.4h-1l0.3-1.2h1.8c0.6,0,0.9,0.2,0.9,0.7c0,0.2-0.2,1-0.3,1.4h0c0.5-1.2,1.6-2.2,2.9-2.2
		c0.2,0,0.4,0,0.5,0l-0.3,1.5c-0.1,0-0.2,0-0.4,0c-1.5,0-2.8,1.8-3.2,3.7l-0.6,3h-1.6L342.7,4.9z"/>
	<path d="M347.3,8.9h1.4l-0.1,0.5c-0.2,0.9,1.1,1,1.7,1c1,0,1.8-0.4,1.8-1.2c0-1.5-3.9-1.1-3.9-3.6c0-1.6,1.7-2.5,3.4-2.5
		c1.3,0,2.8,0.5,2.5,1.7L354,5.8h-1.4l0.1-0.6c0.1-0.6-0.8-0.8-1.3-0.8c-0.9,0-1.7,0.4-1.7,1.1c0,1.6,3.9,1,3.9,3.5
		c0,1.6-1.4,2.7-3.6,2.7c-1.4,0-3.2-0.5-2.9-2L347.3,8.9z"/>
	<path d="M356.1,9.3l0.9-4.7h-1.4l0.2-1.2h2.9l-1.1,5.7c0,0.2-0.1,0.4-0.1,0.5c0,0.6,0.3,0.7,0.7,0.7c0.2,0,0.4,0,0.4,0l-0.2,1.2
		c0,0-0.4,0-0.6,0c-0.8,0-1.8-0.1-1.8-1.6C356,9.8,356,9.5,356.1,9.3z M357.8,0.2h1.6l-0.3,1.6h-1.6L357.8,0.2z"/>
	<path d="M361.1,8.4l0.7-3.8h-1.4l0.2-1.2h1.4l0.4-2.2h1.5l-0.4,2.2h2l-0.2,1.2h-2l-0.7,3.8c0,0.2-0.1,0.5-0.1,0.6
		c0,1.1,0.7,1.3,1.3,1.3c0.3,0,0.4,0,0.4,0l-0.3,1.3c0,0-0.3,0-0.5,0c-1.2,0-2.6-0.4-2.6-2.4C361,8.9,361.1,8.7,361.1,8.4z"/>
	<path d="M366.4,13.5c0.7,0,1.3-0.5,1.7-1.1l0.5-0.8l-1.5-7h-1l0.2-1.2h3.6l-0.2,1.2h-1.1l0.9,4.8c0.1,0.4,0,0.7,0,0.7h0
		c0,0,0.1-0.4,0.3-0.7l2.7-4.8h-1l0.2-1.2h3.6l-0.2,1.2h-1l-4.8,8.2c-0.8,1.5-1.9,2.1-3.1,2.1c-1.2,0-1.8-0.5-1.8-0.5l0.7-1.1
		C365.3,13.2,365.7,13.5,366.4,13.5z"/>
	<path d="M379.2,10.2h1.4l1.7-8.8h-1.4l0.3-1.2h5.1c0.6,0,1.2,0,1.7,0.2c1,0.4,1.7,1.3,1.7,2.7c0,1.6-1,3.2-2.4,3.8
		c-0.6,0.2-1.2,0.3-1.9,0.3h-2.5l-0.6,3h1.4l-0.2,1.2h-4.5L379.2,10.2z M385.3,5.9c0.5,0,0.9-0.1,1.3-0.3c0.9-0.4,1.5-1.3,1.5-2.4
		c0-0.7-0.3-1.2-0.8-1.5c-0.3-0.1-0.7-0.2-1.2-0.2h-2.2L383,5.9H385.3z"/>
	<path d="M391.7,4.9c0-0.2,0-0.4-0.3-0.4h-1l0.3-1.2h1.8c0.6,0,0.9,0.2,0.9,0.7c0,0.2-0.2,1-0.3,1.4h0c0.5-1.2,1.6-2.2,2.9-2.2
		c0.2,0,0.4,0,0.5,0l-0.3,1.5c-0.1,0-0.2,0-0.4,0c-1.5,0-2.8,1.8-3.2,3.7l-0.6,3h-1.6L391.7,4.9z"/>
	<path d="M401.3,3.2c2.1,0,3.1,1.2,3.1,3c0,0.7-0.3,1.4-0.3,1.4h-5.9c0,0-0.1,0.3-0.1,0.6c0,1.2,0.8,2.2,2.3,2.2
		c1.4,0,2.6-0.9,2.6-0.9l0.4,1.2c0,0-1.4,1.1-3.1,1.1c-2.4,0-3.8-1.4-3.8-3.5C396.6,5.5,398.6,3.2,401.3,3.2z M402.8,6.6
		c0,0,0-0.3,0-0.5c0-1.1-0.6-1.6-1.6-1.6c-1.2,0-2.3,0.8-2.8,2.2H402.8z"/>
	<path d="M405.2,8.9h1.4l-0.1,0.5c-0.2,0.9,1.1,1,1.7,1c1,0,1.8-0.4,1.8-1.2c0-1.5-3.9-1.1-3.9-3.6c0-1.6,1.7-2.5,3.4-2.5
		c1.3,0,2.8,0.5,2.5,1.7l-0.2,0.9h-1.4l0.1-0.6c0.1-0.6-0.8-0.8-1.3-0.8c-0.9,0-1.7,0.4-1.7,1.1c0,1.6,3.9,1,3.9,3.5
		c0,1.6-1.4,2.7-3.6,2.7c-1.4,0-3.2-0.5-2.9-2L405.2,8.9z"/>
	<path d="M414,9.3l0.9-4.7h-1.4l0.2-1.2h2.9l-1.1,5.7c0,0.2-0.1,0.4-0.1,0.5c0,0.6,0.3,0.7,0.7,0.7c0.2,0,0.4,0,0.4,0l-0.2,1.2
		c0,0-0.4,0-0.6,0c-0.8,0-1.8-0.1-1.8-1.6C413.9,9.8,414,9.5,414,9.3z M415.7,0.2h1.6l-0.3,1.6h-1.6L415.7,0.2z"/>
	<path d="M422.7,3.2c1,0,2,0.4,2.4,1.4h0c0,0,0-0.3,0.1-0.6l0.5-2.6h-1.3l0.2-1.2h2.9l-1.7,8.9c0,0.2-0.1,0.4-0.1,0.5
		c0,0.6,0.3,0.7,0.7,0.7c0.2,0,0.4,0,0.4,0l-0.2,1.2c0,0-0.4,0-0.7,0c-1,0-1.7-0.4-1.7-1.5h0c-0.5,0.9-1.6,1.6-2.8,1.6
		c-2,0-3-1.3-3-3.3C418.3,5.3,420.4,3.2,422.7,3.2z M421.7,10.3c1.7,0,3-1.9,3-3.7c0-1.1-0.5-2-1.8-2c-1.4,0-3,1.4-3,3.7
		C419.8,9.5,420.5,10.3,421.7,10.3z"/>
	<path d="M433.1,3.2c2.1,0,3.1,1.2,3.1,3c0,0.7-0.3,1.4-0.3,1.4h-5.9c0,0-0.1,0.3-0.1,0.6c0,1.2,0.8,2.2,2.3,2.2
		c1.4,0,2.6-0.9,2.6-0.9l0.4,1.2c0,0-1.4,1.1-3.1,1.1c-2.4,0-3.8-1.4-3.8-3.5C428.4,5.5,430.4,3.2,433.1,3.2z M434.6,6.6
		c0,0,0-0.3,0-0.5c0-1.1-0.6-1.6-1.6-1.6c-1.2,0-2.3,0.8-2.8,2.2H434.6z"/>
	<path d="M439,4.9c0-0.2,0-0.4-0.3-0.4h-1l0.2-1.2h1.8c0.6,0,0.9,0.2,0.9,0.7c0,0.2-0.1,0.8-0.2,1.1h0c0.2-0.5,1.4-2,3.4-2
		c1.4,0,2.2,0.7,2.2,2.1c0,1-0.7,3.6-0.7,4.3c0,0.6,0.3,0.7,0.7,0.7c0.2,0,0.4,0,0.4,0l-0.2,1.2c0,0-0.3,0-0.7,0
		c-0.7,0-1.8-0.1-1.8-1.5c0-0.8,0.7-3.4,0.7-4.2c0-0.8-0.4-1.2-1.2-1.2c-1.6,0-3,1.5-3.3,3.2l-0.7,3.6h-1.6L439,4.9z"/>
	<path d="M448.7,8.4l0.7-3.8h-1.4l0.2-1.2h1.4l0.4-2.2h1.5l-0.4,2.2h2L453,4.6h-2l-0.7,3.8c0,0.2-0.1,0.5-0.1,0.6
		c0,1.1,0.7,1.3,1.3,1.3c0.3,0,0.4,0,0.4,0l-0.3,1.3c0,0-0.3,0-0.5,0c-1.2,0-2.6-0.4-2.6-2.4C448.6,8.9,448.7,8.7,448.7,8.4z"/>
	<path d="M2.2,30.9c0-0.2,0-0.4-0.3-0.4h-1l0.3-1.2H3c0.6,0,0.9,0.2,0.9,0.7c0,0.2-0.2,1-0.3,1.4h0c0.5-1.2,1.6-2.2,2.9-2.2
		c0.2,0,0.4,0,0.5,0l-0.3,1.5c-0.1,0-0.2,0-0.4,0c-1.5,0-2.8,1.8-3.2,3.7l-0.6,3H1L2.2,30.9z"/>
	<path d="M11.8,29.2c2.1,0,3.1,1.2,3.1,3c0,0.7-0.3,1.4-0.3,1.4H8.7c0,0-0.1,0.3-0.1,0.6c0,1.2,0.8,2.2,2.3,2.2
		c1.4,0,2.6-0.9,2.6-0.9l0.4,1.2c0,0-1.4,1.1-3.1,1.1c-2.4,0-3.8-1.4-3.8-3.5C7.1,31.5,9.1,29.2,11.8,29.2z M13.3,32.6
		c0,0,0-0.3,0-0.5c0-1.1-0.6-1.6-1.6-1.6c-1.2,0-2.3,0.8-2.8,2.2H13.3z"/>
	<path d="M16.4,35.2l1.5-7.8h-1.4l0.2-1.2h2.9L18,35c0,0.2-0.1,0.4-0.1,0.5c0,0.6,0.3,0.7,0.7,0.7c0.2,0,0.4,0,0.4,0l-0.3,1.3
		c0,0-0.3,0-0.6,0c-0.8,0-1.8-0.2-1.8-1.6C16.3,35.7,16.3,35.4,16.4,35.2z"/>
	<path d="M25.3,29.2c2.1,0,3.1,1.2,3.1,3c0,0.7-0.3,1.4-0.3,1.4h-5.9c0,0-0.1,0.3-0.1,0.6c0,1.2,0.8,2.2,2.3,2.2
		c1.4,0,2.6-0.9,2.6-0.9l0.4,1.2c0,0-1.4,1.1-3.1,1.1c-2.4,0-3.8-1.4-3.8-3.5C20.6,31.5,22.6,29.2,25.3,29.2z M26.8,32.6
		c0,0,0-0.3,0-0.5c0-1.1-0.6-1.6-1.6-1.6c-1.2,0-2.3,0.8-2.8,2.2H26.8z"/>
	<path d="M34.5,32.5h0.4c0,0,0.1-0.5,0.1-0.8c0-0.8-0.4-1.2-1.5-1.2c-1.3,0-2.4,0.8-2.4,0.8L30.7,30c0,0,1.4-0.8,3.1-0.8
		c1.5,0,2.8,0.6,2.8,2.3c0,0.9-0.7,3.4-0.7,4.1c0,0.6,0.3,0.7,0.7,0.7c0.2,0,0.4,0,0.4,0l-0.2,1.2c0,0-0.3,0-0.7,0
		c-0.9,0-1.6-0.4-1.7-1.5h0c0,0-1,1.6-2.9,1.6c-1.3,0-2.4-0.7-2.4-2C29,33.1,32.3,32.5,34.5,32.5z M31.8,36.5c1.3,0,2.4-1.5,2.8-2.6
		l0.1-0.3h-0.4c-1.1,0-3.7,0.2-3.7,1.9C30.6,36,31,36.5,31.8,36.5z"/>
	<path d="M38.2,34.9h1.4l-0.1,0.5c-0.2,0.9,1.1,1,1.7,1c1,0,1.8-0.4,1.8-1.2c0-1.5-3.9-1.1-3.9-3.6c0-1.6,1.7-2.5,3.4-2.5
		c1.3,0,2.8,0.5,2.5,1.7l-0.2,0.9h-1.4l0.1-0.6c0.1-0.6-0.8-0.8-1.3-0.8c-0.9,0-1.7,0.4-1.7,1.1c0,1.6,3.9,1,3.9,3.5
		c0,1.6-1.4,2.7-3.6,2.7c-1.4,0-3.2-0.5-2.9-2L38.2,34.9z"/>
	<path d="M50.9,29.2c2.1,0,3.1,1.2,3.1,3c0,0.7-0.3,1.4-0.3,1.4h-5.9c0,0-0.1,0.3-0.1,0.6c0,1.2,0.8,2.2,2.3,2.2
		c1.4,0,2.6-0.9,2.6-0.9l0.4,1.2c0,0-1.4,1.1-3.1,1.1c-2.4,0-3.8-1.4-3.8-3.5C46.2,31.5,48.2,29.2,50.9,29.2z M52.4,32.6
		c0,0,0-0.3,0-0.5c0-1.1-0.6-1.6-1.6-1.6c-1.2,0-2.3,0.8-2.8,2.2H52.4z"/>
	<path d="M59.6,29.2c1,0,2,0.4,2.4,1.4h0c0,0,0-0.3,0.1-0.6l0.5-2.6h-1.3l0.2-1.2h2.9l-1.7,8.9c0,0.2-0.1,0.4-0.1,0.5
		c0,0.6,0.3,0.7,0.7,0.7c0.2,0,0.4,0,0.4,0l-0.2,1.2c0,0-0.4,0-0.7,0c-1,0-1.7-0.4-1.7-1.5h0c-0.5,0.9-1.6,1.6-2.8,1.6
		c-2,0-3-1.3-3-3.3C55.1,31.3,57.2,29.2,59.6,29.2z M58.5,36.3c1.7,0,3-1.9,3-3.7c0-1.1-0.5-2-1.8-2c-1.4,0-3,1.4-3,3.7
		C56.7,35.5,57.4,36.3,58.5,36.3z"/>
	<path d="M74.3,32.5h0.4c0,0,0.1-0.5,0.1-0.8c0-0.8-0.4-1.2-1.5-1.2c-1.3,0-2.4,0.8-2.4,0.8L70.5,30c0,0,1.4-0.8,3.1-0.8
		c1.5,0,2.8,0.6,2.8,2.3c0,0.9-0.7,3.4-0.7,4.1c0,0.6,0.3,0.7,0.7,0.7c0.2,0,0.4,0,0.4,0l-0.2,1.2c0,0-0.3,0-0.7,0
		c-0.9,0-1.6-0.4-1.7-1.5h0c0,0-1,1.6-2.9,1.6c-1.3,0-2.4-0.7-2.4-2C68.8,33.1,72.1,32.5,74.3,32.5z M71.7,36.5
		c1.3,0,2.4-1.5,2.8-2.6l0.1-0.3h-0.4c-1.1,0-3.7,0.2-3.7,1.9C70.4,36,70.8,36.5,71.7,36.5z"/>
	<path d="M82,34.9h1.4l-0.1,0.5c-0.2,0.9,1.1,1,1.7,1c1,0,1.8-0.4,1.8-1.2c0-1.5-3.9-1.1-3.9-3.6c0-1.6,1.7-2.5,3.4-2.5
		c1.3,0,2.8,0.5,2.5,1.7l-0.2,0.9h-1.4l0.1-0.6c0.1-0.6-0.8-0.8-1.3-0.8c-0.9,0-1.7,0.4-1.7,1.1c0,1.6,3.9,1,3.9,3.5
		c0,1.6-1.4,2.7-3.6,2.7c-1.4,0-3.2-0.5-2.9-2L82,34.9z"/>
	<path d="M90.8,34.4l0.7-3.8h-1.4l0.2-1.2h1.4l0.4-2.2h1.5l-0.4,2.2h2l-0.2,1.2h-2l-0.7,3.8c0,0.2-0.1,0.5-0.1,0.6
		c0,1.1,0.7,1.3,1.3,1.3c0.3,0,0.4,0,0.4,0l-0.3,1.3c0,0-0.3,0-0.5,0c-1.2,0-2.6-0.4-2.6-2.4C90.7,34.9,90.8,34.7,90.8,34.4z"/>
	<path d="M100.7,32.5h0.4c0,0,0.1-0.5,0.1-0.8c0-0.8-0.4-1.2-1.5-1.2c-1.3,0-2.4,0.8-2.4,0.8L96.9,30c0,0,1.4-0.8,3.1-0.8
		c1.5,0,2.8,0.6,2.8,2.3c0,0.9-0.7,3.4-0.7,4.1c0,0.6,0.3,0.7,0.7,0.7c0.2,0,0.4,0,0.4,0l-0.2,1.2c0,0-0.3,0-0.7,0
		c-0.9,0-1.6-0.4-1.7-1.5h0c0,0-1,1.6-2.9,1.6c-1.3,0-2.4-0.7-2.4-2C95.2,33.1,98.5,32.5,100.7,32.5z M98.1,36.5
		c1.3,0,2.4-1.5,2.8-2.6l0.1-0.3h-0.4c-1.1,0-3.7,0.2-3.7,1.9C96.8,36,97.2,36.5,98.1,36.5z"/>
	<path d="M105.3,34.4l0.7-3.8h-1.4l0.2-1.2h1.4l0.4-2.2h1.5l-0.4,2.2h2l-0.2,1.2h-2l-0.7,3.8c0,0.2-0.1,0.5-0.1,0.6
		c0,1.1,0.7,1.3,1.3,1.3c0.3,0,0.4,0,0.4,0l-0.3,1.3c0,0-0.3,0-0.5,0c-1.2,0-2.6-0.4-2.6-2.4C105.2,34.9,105.3,34.7,105.3,34.4z"/>
	<path d="M111.9,30.9c0-0.2,0-0.3-0.3-0.3h-1l0.2-1.2h1.8c0.6,0,0.9,0.2,0.9,0.7c0,0.2-0.1,0.8-0.2,1.1h0c0.4-0.7,1.7-2,3.2-2
		c1.3,0,2,0.7,2,2h0c0.6-1.1,1.8-2,3.2-2c1.4,0,2.2,0.8,2.2,2.1c0,1-0.7,3.6-0.7,4.3c0,0.6,0.3,0.7,0.7,0.7c0.2,0,0.4,0,0.4,0
		l-0.2,1.2c0,0-0.3,0-0.7,0c-0.7,0-1.8-0.1-1.8-1.5c0-0.8,0.7-3.5,0.7-4.2c0-0.7-0.3-1.2-1.2-1.2c-1.5,0-2.7,1.6-2.9,3.2l-0.7,3.7
		H116l0.9-4.8c0-0.3,0.1-0.6,0.1-0.9c0-0.7-0.3-1.1-1.2-1.1c-1.6,0-2.7,1.7-3,3.3l-0.7,3.6h-1.6L111.9,30.9z"/>
	<path d="M130.7,29.2c2.1,0,3.1,1.2,3.1,3c0,0.7-0.3,1.4-0.3,1.4h-5.9c0,0-0.1,0.3-0.1,0.6c0,1.2,0.8,2.2,2.3,2.2
		c1.4,0,2.6-0.9,2.6-0.9l0.4,1.2c0,0-1.4,1.1-3.1,1.1c-2.4,0-3.8-1.4-3.8-3.5C126,31.5,128,29.2,130.7,29.2z M132.2,32.6
		c0,0,0-0.3,0-0.5c0-1.1-0.6-1.6-1.6-1.6c-1.2,0-2.3,0.8-2.8,2.2H132.2z"/>
	<path d="M136.6,30.9c0-0.2,0-0.4-0.3-0.4h-1l0.2-1.2h1.8c0.6,0,0.9,0.2,0.9,0.7c0,0.2-0.1,0.8-0.2,1.1h0c0.2-0.5,1.4-2,3.4-2
		c1.4,0,2.2,0.7,2.2,2.1c0,1-0.7,3.6-0.7,4.3c0,0.6,0.3,0.7,0.7,0.7c0.2,0,0.4,0,0.4,0l-0.2,1.2c0,0-0.3,0-0.7,0
		c-0.7,0-1.8-0.1-1.8-1.5c0-0.8,0.7-3.4,0.7-4.2c0-0.8-0.4-1.2-1.2-1.2c-1.6,0-3,1.5-3.3,3.2l-0.7,3.6h-1.6L136.6,30.9z"/>
	<path d="M146.3,34.4l0.7-3.8h-1.4l0.2-1.2h1.4l0.4-2.2h1.5l-0.4,2.2h2l-0.2,1.2h-2l-0.7,3.8c0,0.2-0.1,0.5-0.1,0.6
		c0,1.1,0.7,1.3,1.3,1.3c0.3,0,0.4,0,0.4,0l-0.3,1.3c0,0-0.3,0-0.5,0c-1.2,0-2.6-0.4-2.6-2.4C146.2,34.9,146.3,34.7,146.3,34.4z"/>
	<path d="M152.5,35.9h1.6l-0.3,1.6h-1.6L152.5,35.9z M153,33.6c0.5-2.6,3.6-2.9,3.6-4.9c0-0.8-0.6-1.3-1.5-1.3c-1,0-2,0.7-2,0.7
		l-0.7-1.2c0,0,1.3-0.9,2.8-0.9c1.7,0,3,1,3,2.6c0,2.8-3.4,3.3-3.8,5.2l-0.1,0.7h-1.5L153,33.6z"/>
</g>
</svg>
