<!-- Generator: Adobe Illustrator 18.1.1, SVG Export Plug-In  -->
<svg version="1.1"
	 xmlns="http://www.w3.org/2000/svg" xmlns:xlink="http://www.w3.org/1999/xlink" xmlns:a="http://ns.adobe.com/AdobeSVGViewerExtensions/3.0/"
	 x="0px" y="0px" width="502.4px" height="196.2px" viewBox="0 0 502.4 196.2" enable-background="new 0 0 502.4 196.2"
	 xml:space="preserve">
<defs>
</defs>
<path fill="#494949" d="M497.4,195H264.9v-57.9h236.5V191C501.4,193.2,499.6,195,497.4,195z"/>
<path fill="none" stroke="#000000" stroke-width="2" stroke-miterlimit="10" d="M497.4,195H5c-2.2,0-4-1.8-4-4V5c0-2.2,1.8-4,4-4
	h492.4c2.2,0,4,1.8,4,4v186C501.4,193.2,499.6,195,497.4,195z"/>
<line fill="none" stroke="#000000" stroke-width="2" stroke-miterlimit="10" x1="0.9" y1="137.2" x2="500.9" y2="137.2"/>
<line fill="none" stroke="#000000" stroke-width="2" stroke-miterlimit="10" x1="264.9" y1="137.2" x2="264.9" y2="196.2"/>
<text transform="matrix(1 0 0 1 66.2613 173.3529)" font-family="'MuseoSans-300'" font-size="21.171">2.3k Upvotes</text>
<text transform="matrix(1 0 0 1 334.5467 173.3529)" fill="#FFFFFF" font-family="'MuseoSans-300'" font-size="21.171">Following</text>
<path fill="#00B233" d="M479.2,41.2H22.5c-2.2,0-4-1.8-4-4v-19c0-2.2,1.8-4,4-4h456.7c2.2,0,4,1.8,4,4v19
	C483.2,39.4,481.4,41.2,479.2,41.2z"/>
<text transform="matrix(1 0 0 1 28.2443 31.8441)" fill="#FFFFFF" font-family="'MuseoSans-700'" font-size="12">Answered by Rob Simon, The Daily News</text>
<g>
	<g>
		<defs>
			<rect id="SVGID_1_" x="461.1" y="21.5" width="15.8" height="12.3"/>
		</defs>
		<clipPath id="SVGID_2_">
			<use xlink:href="#SVGID_1_"  overflow="visible"/>
		</clipPath>
		<path clip-path="url(#SVGID_2_)" fill="#FFFFFF" d="M474.7,33.6h-13.4c-0.2,0-0.3-0.1-0.3-0.3v-9.6c0-0.1,0.1-0.3,0.3-0.3h6
			c0.1,0,0.2,0.1,0.3,0.2c0,0.1,0,0.2-0.2,0.3l0,0c-0.1,0-0.1,0.1-0.2,0.1c-1,0.5-1.8,1-2.5,1.7c-0.1,0.1-0.1,0.1-0.2,0.1h-1v5.2h9
			v-1.3c0-0.1,0-0.2,0.1-0.2l1.9-1.3c0.1-0.1,0.2-0.1,0.3,0c0.1,0,0.1,0.1,0.1,0.2v4.8C475,33.4,474.9,33.6,474.7,33.6L474.7,33.6z
			 M474.7,33.6"/>
		<path clip-path="url(#SVGID_2_)" fill="#FFFFFF" d="M470.9,29.8c0,0-0.1,0-0.1,0c-0.1,0-0.1-0.1-0.1-0.2v-2.2
			c-0.9,0-1.7,0-2.3,0.1c-3,0.4-3.8,2.2-3.8,2.2c-0.1,0.1-0.2,0.2-0.3,0.2c-0.1,0-0.2-0.1-0.2-0.3c0-4.5,5.4-5.5,6.6-5.6v-2.1
			c0-0.1,0.1-0.2,0.1-0.2c0.1,0,0.2,0,0.3,0l5.7,3.9c0.1,0.1,0.1,0.1,0.1,0.2c0,0.1,0,0.2-0.1,0.2l-5.7,3.9
			C471,29.8,471,29.8,470.9,29.8L470.9,29.8z M470.9,29.8"/>
	</g>
</g>
</svg>
